<?xml version="1.0" encoding="utf-8" standalone="no"?>
<!DOCTYPE svg PUBLIC "-//W3C//DTD SVG 1.1//EN"
  "http://www.w3.org/Graphics/SVG/1.1/DTD/svg11.dtd">
<svg xmlns:xlink="http://www.w3.org/1999/xlink" width="782.430979pt" height="424.042031pt" viewBox="0 0 782.430979 424.042031" xmlns="http://www.w3.org/2000/svg" version="1.1">
 <metadata>
  <rdf:RDF xmlns:dc="http://purl.org/dc/elements/1.1/" xmlns:cc="http://creativecommons.org/ns#" xmlns:rdf="http://www.w3.org/1999/02/22-rdf-syntax-ns#">
   <cc:Work>
    <dc:type rdf:resource="http://purl.org/dc/dcmitype/StillImage"/>
    <dc:date>2026-07-02T19:56:54.445330</dc:date>
    <dc:format>image/svg+xml</dc:format>
    <dc:creator>
     <cc:Agent>
      <dc:title>Matplotlib v3.10.8, https://matplotlib.org/</dc:title>
     </cc:Agent>
    </dc:creator>
   </cc:Work>
  </rdf:RDF>
 </metadata>
 <defs>
  <style type="text/css">*{stroke-linejoin: round; stroke-linecap: butt}</style>
 </defs>
 <g id="figure_1">
  <g id="patch_1">
   <path d="M 0 424.042031 
L 782.430979 424.042031 
L 782.430979 0 
L 0 0 
z
" style="fill: #fcfcfb"/>
  </g>
  <g id="axes_1">
   <g id="patch_2">
    <path d="M 46.445938 385.517969 
L 596.789728 385.517969 
L 596.789728 31.077969 
L 46.445938 31.077969 
z
" style="fill: #fcfcfb"/>
   </g>
   <g id="matplotlib.axis_1">
    <g id="xtick_1">
     <g id="line2d_1">
      <path d="M 71.461564 385.517969 
L 71.461564 31.077969 
" clip-path="url(#p33bcfced91)" style="fill: none; stroke: #e1e0d9; stroke-width: 0.8; stroke-linecap: square"/>
     </g>
     <g id="line2d_2">
      <defs>
       <path id="md2f7b0c1ca" d="M 0 0 
L 0 3.5 
" style="stroke: #898781; stroke-width: 0.8"/>
      </defs>
      <g>
       <use xlink:href="#md2f7b0c1ca" x="71.461564" y="385.517969" style="fill: #898781; stroke: #898781; stroke-width: 0.8"/>
      </g>
     </g>
     <g id="text_1">
      <!-- 2 -->
      <g style="fill: #898781" transform="translate(68.280314 400.116406) scale(0.1 -0.1)">
       <defs>
        <path id="DejaVuSans-32" d="M 1228 531 
L 3431 531 
L 3431 0 
L 469 0 
L 469 531 
Q 828 903 1448 1529 
Q 2069 2156 2228 2338 
Q 2531 2678 2651 2914 
Q 2772 3150 2772 3378 
Q 2772 3750 2511 3984 
Q 2250 4219 1831 4219 
Q 1534 4219 1204 4116 
Q 875 4013 500 3803 
L 500 4441 
Q 881 4594 1212 4672 
Q 1544 4750 1819 4750 
Q 2544 4750 2975 4387 
Q 3406 4025 3406 3419 
Q 3406 3131 3298 2873 
Q 3191 2616 2906 2266 
Q 2828 2175 2409 1742 
Q 1991 1309 1228 531 
z
" transform="scale(0.015625)"/>
       </defs>
       <use xlink:href="#DejaVuSans-32"/>
      </g>
     </g>
    </g>
    <g id="xtick_2">
     <g id="line2d_3">
      <path d="M 142.934784 385.517969 
L 142.934784 31.077969 
" clip-path="url(#p33bcfced91)" style="fill: none; stroke: #e1e0d9; stroke-width: 0.8; stroke-linecap: square"/>
     </g>
     <g id="line2d_4">
      <g>
       <use xlink:href="#md2f7b0c1ca" x="142.934784" y="385.517969" style="fill: #898781; stroke: #898781; stroke-width: 0.8"/>
      </g>
     </g>
     <g id="text_2">
      <!-- 4 -->
      <g style="fill: #898781" transform="translate(139.753534 400.116406) scale(0.1 -0.1)">
       <defs>
        <path id="DejaVuSans-34" d="M 2419 4116 
L 825 1625 
L 2419 1625 
L 2419 4116 
z
M 2253 4666 
L 3047 4666 
L 3047 1625 
L 3713 1625 
L 3713 1100 
L 3047 1100 
L 3047 0 
L 2419 0 
L 2419 1100 
L 313 1100 
L 313 1709 
L 2253 4666 
z
" transform="scale(0.015625)"/>
       </defs>
       <use xlink:href="#DejaVuSans-34"/>
      </g>
     </g>
    </g>
    <g id="xtick_3">
     <g id="line2d_5">
      <path d="M 214.408004 385.517969 
L 214.408004 31.077969 
" clip-path="url(#p33bcfced91)" style="fill: none; stroke: #e1e0d9; stroke-width: 0.8; stroke-linecap: square"/>
     </g>
     <g id="line2d_6">
      <g>
       <use xlink:href="#md2f7b0c1ca" x="214.408004" y="385.517969" style="fill: #898781; stroke: #898781; stroke-width: 0.8"/>
      </g>
     </g>
     <g id="text_3">
      <!-- 6 -->
      <g style="fill: #898781" transform="translate(211.226754 400.116406) scale(0.1 -0.1)">
       <defs>
        <path id="DejaVuSans-36" d="M 2113 2584 
Q 1688 2584 1439 2293 
Q 1191 2003 1191 1497 
Q 1191 994 1439 701 
Q 1688 409 2113 409 
Q 2538 409 2786 701 
Q 3034 994 3034 1497 
Q 3034 2003 2786 2293 
Q 2538 2584 2113 2584 
z
M 3366 4563 
L 3366 3988 
Q 3128 4100 2886 4159 
Q 2644 4219 2406 4219 
Q 1781 4219 1451 3797 
Q 1122 3375 1075 2522 
Q 1259 2794 1537 2939 
Q 1816 3084 2150 3084 
Q 2853 3084 3261 2657 
Q 3669 2231 3669 1497 
Q 3669 778 3244 343 
Q 2819 -91 2113 -91 
Q 1303 -91 875 529 
Q 447 1150 447 2328 
Q 447 3434 972 4092 
Q 1497 4750 2381 4750 
Q 2619 4750 2861 4703 
Q 3103 4656 3366 4563 
z
" transform="scale(0.015625)"/>
       </defs>
       <use xlink:href="#DejaVuSans-36"/>
      </g>
     </g>
    </g>
    <g id="xtick_4">
     <g id="line2d_7">
      <path d="M 285.881223 385.517969 
L 285.881223 31.077969 
" clip-path="url(#p33bcfced91)" style="fill: none; stroke: #e1e0d9; stroke-width: 0.8; stroke-linecap: square"/>
     </g>
     <g id="line2d_8">
      <g>
       <use xlink:href="#md2f7b0c1ca" x="285.881223" y="385.517969" style="fill: #898781; stroke: #898781; stroke-width: 0.8"/>
      </g>
     </g>
     <g id="text_4">
      <!-- 8 -->
      <g style="fill: #898781" transform="translate(282.699973 400.116406) scale(0.1 -0.1)">
       <defs>
        <path id="DejaVuSans-38" d="M 2034 2216 
Q 1584 2216 1326 1975 
Q 1069 1734 1069 1313 
Q 1069 891 1326 650 
Q 1584 409 2034 409 
Q 2484 409 2743 651 
Q 3003 894 3003 1313 
Q 3003 1734 2745 1975 
Q 2488 2216 2034 2216 
z
M 1403 2484 
Q 997 2584 770 2862 
Q 544 3141 544 3541 
Q 544 4100 942 4425 
Q 1341 4750 2034 4750 
Q 2731 4750 3128 4425 
Q 3525 4100 3525 3541 
Q 3525 3141 3298 2862 
Q 3072 2584 2669 2484 
Q 3125 2378 3379 2068 
Q 3634 1759 3634 1313 
Q 3634 634 3220 271 
Q 2806 -91 2034 -91 
Q 1263 -91 848 271 
Q 434 634 434 1313 
Q 434 1759 690 2068 
Q 947 2378 1403 2484 
z
M 1172 3481 
Q 1172 3119 1398 2916 
Q 1625 2713 2034 2713 
Q 2441 2713 2670 2916 
Q 2900 3119 2900 3481 
Q 2900 3844 2670 4047 
Q 2441 4250 2034 4250 
Q 1625 4250 1398 4047 
Q 1172 3844 1172 3481 
z
" transform="scale(0.015625)"/>
       </defs>
       <use xlink:href="#DejaVuSans-38"/>
      </g>
     </g>
    </g>
    <g id="xtick_5">
     <g id="line2d_9">
      <path d="M 357.354443 385.517969 
L 357.354443 31.077969 
" clip-path="url(#p33bcfced91)" style="fill: none; stroke: #e1e0d9; stroke-width: 0.8; stroke-linecap: square"/>
     </g>
     <g id="line2d_10">
      <g>
       <use xlink:href="#md2f7b0c1ca" x="357.354443" y="385.517969" style="fill: #898781; stroke: #898781; stroke-width: 0.8"/>
      </g>
     </g>
     <g id="text_5">
      <!-- 10 -->
      <g style="fill: #898781" transform="translate(350.991943 400.116406) scale(0.1 -0.1)">
       <defs>
        <path id="DejaVuSans-31" d="M 794 531 
L 1825 531 
L 1825 4091 
L 703 3866 
L 703 4441 
L 1819 4666 
L 2450 4666 
L 2450 531 
L 3481 531 
L 3481 0 
L 794 0 
L 794 531 
z
" transform="scale(0.015625)"/>
        <path id="DejaVuSans-30" d="M 2034 4250 
Q 1547 4250 1301 3770 
Q 1056 3291 1056 2328 
Q 1056 1369 1301 889 
Q 1547 409 2034 409 
Q 2525 409 2770 889 
Q 3016 1369 3016 2328 
Q 3016 3291 2770 3770 
Q 2525 4250 2034 4250 
z
M 2034 4750 
Q 2819 4750 3233 4129 
Q 3647 3509 3647 2328 
Q 3647 1150 3233 529 
Q 2819 -91 2034 -91 
Q 1250 -91 836 529 
Q 422 1150 422 2328 
Q 422 3509 836 4129 
Q 1250 4750 2034 4750 
z
" transform="scale(0.015625)"/>
       </defs>
       <use xlink:href="#DejaVuSans-31"/>
       <use xlink:href="#DejaVuSans-30" transform="translate(63.623047 0)"/>
      </g>
     </g>
    </g>
    <g id="xtick_6">
     <g id="line2d_11">
      <path d="M 428.827662 385.517969 
L 428.827662 31.077969 
" clip-path="url(#p33bcfced91)" style="fill: none; stroke: #e1e0d9; stroke-width: 0.8; stroke-linecap: square"/>
     </g>
     <g id="line2d_12">
      <g>
       <use xlink:href="#md2f7b0c1ca" x="428.827662" y="385.517969" style="fill: #898781; stroke: #898781; stroke-width: 0.8"/>
      </g>
     </g>
     <g id="text_6">
      <!-- 12 -->
      <g style="fill: #898781" transform="translate(422.465162 400.116406) scale(0.1 -0.1)">
       <use xlink:href="#DejaVuSans-31"/>
       <use xlink:href="#DejaVuSans-32" transform="translate(63.623047 0)"/>
      </g>
     </g>
    </g>
    <g id="xtick_7">
     <g id="line2d_13">
      <path d="M 500.300882 385.517969 
L 500.300882 31.077969 
" clip-path="url(#p33bcfced91)" style="fill: none; stroke: #e1e0d9; stroke-width: 0.8; stroke-linecap: square"/>
     </g>
     <g id="line2d_14">
      <g>
       <use xlink:href="#md2f7b0c1ca" x="500.300882" y="385.517969" style="fill: #898781; stroke: #898781; stroke-width: 0.8"/>
      </g>
     </g>
     <g id="text_7">
      <!-- 14 -->
      <g style="fill: #898781" transform="translate(493.938382 400.116406) scale(0.1 -0.1)">
       <use xlink:href="#DejaVuSans-31"/>
       <use xlink:href="#DejaVuSans-34" transform="translate(63.623047 0)"/>
      </g>
     </g>
    </g>
    <g id="xtick_8">
     <g id="line2d_15">
      <path d="M 571.774101 385.517969 
L 571.774101 31.077969 
" clip-path="url(#p33bcfced91)" style="fill: none; stroke: #e1e0d9; stroke-width: 0.8; stroke-linecap: square"/>
     </g>
     <g id="line2d_16">
      <g>
       <use xlink:href="#md2f7b0c1ca" x="571.774101" y="385.517969" style="fill: #898781; stroke: #898781; stroke-width: 0.8"/>
      </g>
     </g>
     <g id="text_8">
      <!-- 16 -->
      <g style="fill: #898781" transform="translate(565.411601 400.116406) scale(0.1 -0.1)">
       <use xlink:href="#DejaVuSans-31"/>
       <use xlink:href="#DejaVuSans-36" transform="translate(63.623047 0)"/>
      </g>
     </g>
    </g>
    <g id="text_9">
     <!-- Number of Qubits -->
     <g style="fill: #52514e" transform="translate(272.869786 414.554375) scale(0.11 -0.11)">
      <defs>
       <path id="DejaVuSans-4e" d="M 628 4666 
L 1478 4666 
L 3547 763 
L 3547 4666 
L 4159 4666 
L 4159 0 
L 3309 0 
L 1241 3903 
L 1241 0 
L 628 0 
L 628 4666 
z
" transform="scale(0.015625)"/>
       <path id="DejaVuSans-75" d="M 544 1381 
L 544 3500 
L 1119 3500 
L 1119 1403 
Q 1119 906 1312 657 
Q 1506 409 1894 409 
Q 2359 409 2629 706 
Q 2900 1003 2900 1516 
L 2900 3500 
L 3475 3500 
L 3475 0 
L 2900 0 
L 2900 538 
Q 2691 219 2414 64 
Q 2138 -91 1772 -91 
Q 1169 -91 856 284 
Q 544 659 544 1381 
z
M 1991 3584 
L 1991 3584 
z
" transform="scale(0.015625)"/>
       <path id="DejaVuSans-6d" d="M 3328 2828 
Q 3544 3216 3844 3400 
Q 4144 3584 4550 3584 
Q 5097 3584 5394 3201 
Q 5691 2819 5691 2113 
L 5691 0 
L 5113 0 
L 5113 2094 
Q 5113 2597 4934 2840 
Q 4756 3084 4391 3084 
Q 3944 3084 3684 2787 
Q 3425 2491 3425 1978 
L 3425 0 
L 2847 0 
L 2847 2094 
Q 2847 2600 2669 2842 
Q 2491 3084 2119 3084 
Q 1678 3084 1418 2786 
Q 1159 2488 1159 1978 
L 1159 0 
L 581 0 
L 581 3500 
L 1159 3500 
L 1159 2956 
Q 1356 3278 1631 3431 
Q 1906 3584 2284 3584 
Q 2666 3584 2933 3390 
Q 3200 3197 3328 2828 
z
" transform="scale(0.015625)"/>
       <path id="DejaVuSans-62" d="M 3116 1747 
Q 3116 2381 2855 2742 
Q 2594 3103 2138 3103 
Q 1681 3103 1420 2742 
Q 1159 2381 1159 1747 
Q 1159 1113 1420 752 
Q 1681 391 2138 391 
Q 2594 391 2855 752 
Q 3116 1113 3116 1747 
z
M 1159 2969 
Q 1341 3281 1617 3432 
Q 1894 3584 2278 3584 
Q 2916 3584 3314 3078 
Q 3713 2572 3713 1747 
Q 3713 922 3314 415 
Q 2916 -91 2278 -91 
Q 1894 -91 1617 61 
Q 1341 213 1159 525 
L 1159 0 
L 581 0 
L 581 4863 
L 1159 4863 
L 1159 2969 
z
" transform="scale(0.015625)"/>
       <path id="DejaVuSans-65" d="M 3597 1894 
L 3597 1613 
L 953 1613 
Q 991 1019 1311 708 
Q 1631 397 2203 397 
Q 2534 397 2845 478 
Q 3156 559 3463 722 
L 3463 178 
Q 3153 47 2828 -22 
Q 2503 -91 2169 -91 
Q 1331 -91 842 396 
Q 353 884 353 1716 
Q 353 2575 817 3079 
Q 1281 3584 2069 3584 
Q 2775 3584 3186 3129 
Q 3597 2675 3597 1894 
z
M 3022 2063 
Q 3016 2534 2758 2815 
Q 2500 3097 2075 3097 
Q 1594 3097 1305 2825 
Q 1016 2553 972 2059 
L 3022 2063 
z
" transform="scale(0.015625)"/>
       <path id="DejaVuSans-72" d="M 2631 2963 
Q 2534 3019 2420 3045 
Q 2306 3072 2169 3072 
Q 1681 3072 1420 2755 
Q 1159 2438 1159 1844 
L 1159 0 
L 581 0 
L 581 3500 
L 1159 3500 
L 1159 2956 
Q 1341 3275 1631 3429 
Q 1922 3584 2338 3584 
Q 2397 3584 2469 3576 
Q 2541 3569 2628 3553 
L 2631 2963 
z
" transform="scale(0.015625)"/>
       <path id="DejaVuSans-20" transform="scale(0.015625)"/>
       <path id="DejaVuSans-6f" d="M 1959 3097 
Q 1497 3097 1228 2736 
Q 959 2375 959 1747 
Q 959 1119 1226 758 
Q 1494 397 1959 397 
Q 2419 397 2687 759 
Q 2956 1122 2956 1747 
Q 2956 2369 2687 2733 
Q 2419 3097 1959 3097 
z
M 1959 3584 
Q 2709 3584 3137 3096 
Q 3566 2609 3566 1747 
Q 3566 888 3137 398 
Q 2709 -91 1959 -91 
Q 1206 -91 779 398 
Q 353 888 353 1747 
Q 353 2609 779 3096 
Q 1206 3584 1959 3584 
z
" transform="scale(0.015625)"/>
       <path id="DejaVuSans-66" d="M 2375 4863 
L 2375 4384 
L 1825 4384 
Q 1516 4384 1395 4259 
Q 1275 4134 1275 3809 
L 1275 3500 
L 2222 3500 
L 2222 3053 
L 1275 3053 
L 1275 0 
L 697 0 
L 697 3053 
L 147 3053 
L 147 3500 
L 697 3500 
L 697 3744 
Q 697 4328 969 4595 
Q 1241 4863 1831 4863 
L 2375 4863 
z
" transform="scale(0.015625)"/>
       <path id="DejaVuSans-51" d="M 2522 4238 
Q 1834 4238 1429 3725 
Q 1025 3213 1025 2328 
Q 1025 1447 1429 934 
Q 1834 422 2522 422 
Q 3209 422 3611 934 
Q 4013 1447 4013 2328 
Q 4013 3213 3611 3725 
Q 3209 4238 2522 4238 
z
M 3406 84 
L 4238 -825 
L 3475 -825 
L 2784 -78 
Q 2681 -84 2626 -87 
Q 2572 -91 2522 -91 
Q 1538 -91 948 567 
Q 359 1225 359 2328 
Q 359 3434 948 4092 
Q 1538 4750 2522 4750 
Q 3503 4750 4090 4092 
Q 4678 3434 4678 2328 
Q 4678 1516 4351 937 
Q 4025 359 3406 84 
z
" transform="scale(0.015625)"/>
       <path id="DejaVuSans-69" d="M 603 3500 
L 1178 3500 
L 1178 0 
L 603 0 
L 603 3500 
z
M 603 4863 
L 1178 4863 
L 1178 4134 
L 603 4134 
L 603 4863 
z
" transform="scale(0.015625)"/>
       <path id="DejaVuSans-74" d="M 1172 4494 
L 1172 3500 
L 2356 3500 
L 2356 3053 
L 1172 3053 
L 1172 1153 
Q 1172 725 1289 603 
Q 1406 481 1766 481 
L 2356 481 
L 2356 0 
L 1766 0 
Q 1100 0 847 248 
Q 594 497 594 1153 
L 594 3053 
L 172 3053 
L 172 3500 
L 594 3500 
L 594 4494 
L 1172 4494 
z
" transform="scale(0.015625)"/>
       <path id="DejaVuSans-73" d="M 2834 3397 
L 2834 2853 
Q 2591 2978 2328 3040 
Q 2066 3103 1784 3103 
Q 1356 3103 1142 2972 
Q 928 2841 928 2578 
Q 928 2378 1081 2264 
Q 1234 2150 1697 2047 
L 1894 2003 
Q 2506 1872 2764 1633 
Q 3022 1394 3022 966 
Q 3022 478 2636 193 
Q 2250 -91 1575 -91 
Q 1294 -91 989 -36 
Q 684 19 347 128 
L 347 722 
Q 666 556 975 473 
Q 1284 391 1588 391 
Q 1994 391 2212 530 
Q 2431 669 2431 922 
Q 2431 1156 2273 1281 
Q 2116 1406 1581 1522 
L 1381 1569 
Q 847 1681 609 1914 
Q 372 2147 372 2553 
Q 372 3047 722 3315 
Q 1072 3584 1716 3584 
Q 2034 3584 2315 3537 
Q 2597 3491 2834 3397 
z
" transform="scale(0.015625)"/>
      </defs>
      <use xlink:href="#DejaVuSans-4e"/>
      <use xlink:href="#DejaVuSans-75" transform="translate(74.804688 0)"/>
      <use xlink:href="#DejaVuSans-6d" transform="translate(138.183594 0)"/>
      <use xlink:href="#DejaVuSans-62" transform="translate(235.595703 0)"/>
      <use xlink:href="#DejaVuSans-65" transform="translate(299.072266 0)"/>
      <use xlink:href="#DejaVuSans-72" transform="translate(360.595703 0)"/>
      <use xlink:href="#DejaVuSans-20" transform="translate(401.708984 0)"/>
      <use xlink:href="#DejaVuSans-6f" transform="translate(433.496094 0)"/>
      <use xlink:href="#DejaVuSans-66" transform="translate(494.677734 0)"/>
      <use xlink:href="#DejaVuSans-20" transform="translate(529.882812 0)"/>
      <use xlink:href="#DejaVuSans-51" transform="translate(561.669922 0)"/>
      <use xlink:href="#DejaVuSans-75" transform="translate(640.380859 0)"/>
      <use xlink:href="#DejaVuSans-62" transform="translate(703.759766 0)"/>
      <use xlink:href="#DejaVuSans-69" transform="translate(767.236328 0)"/>
      <use xlink:href="#DejaVuSans-74" transform="translate(795.019531 0)"/>
      <use xlink:href="#DejaVuSans-73" transform="translate(834.228516 0)"/>
     </g>
    </g>
   </g>
   <g id="matplotlib.axis_2">
    <g id="ytick_1">
     <g id="line2d_17">
      <path d="M 46.445938 310.579765 
L 596.789728 310.579765 
" clip-path="url(#p33bcfced91)" style="fill: none; stroke: #e1e0d9; stroke-width: 0.8; stroke-linecap: square"/>
     </g>
     <g id="line2d_18">
      <defs>
       <path id="mac8af1c0d6" d="M 0 0 
L -3.5 0 
" style="stroke: #898781; stroke-width: 0.8"/>
      </defs>
      <g>
       <use xlink:href="#mac8af1c0d6" x="46.445938" y="310.579765" style="fill: #898781; stroke: #898781; stroke-width: 0.8"/>
      </g>
     </g>
     <g id="text_10">
      <!-- $\mathdefault{10^{3}}$ -->
      <g style="fill: #898781" transform="translate(21.845938 314.378983) scale(0.1 -0.1)">
       <defs>
        <path id="DejaVuSans-33" d="M 2597 2516 
Q 3050 2419 3304 2112 
Q 3559 1806 3559 1356 
Q 3559 666 3084 287 
Q 2609 -91 1734 -91 
Q 1441 -91 1130 -33 
Q 819 25 488 141 
L 488 750 
Q 750 597 1062 519 
Q 1375 441 1716 441 
Q 2309 441 2620 675 
Q 2931 909 2931 1356 
Q 2931 1769 2642 2001 
Q 2353 2234 1838 2234 
L 1294 2234 
L 1294 2753 
L 1863 2753 
Q 2328 2753 2575 2939 
Q 2822 3125 2822 3475 
Q 2822 3834 2567 4026 
Q 2313 4219 1838 4219 
Q 1578 4219 1281 4162 
Q 984 4106 628 3988 
L 628 4550 
Q 988 4650 1302 4700 
Q 1616 4750 1894 4750 
Q 2613 4750 3031 4423 
Q 3450 4097 3450 3541 
Q 3450 3153 3228 2886 
Q 3006 2619 2597 2516 
z
" transform="scale(0.015625)"/>
       </defs>
       <use xlink:href="#DejaVuSans-31" transform="translate(0 0.765625)"/>
       <use xlink:href="#DejaVuSans-30" transform="translate(63.623047 0.765625)"/>
       <use xlink:href="#DejaVuSans-33" transform="translate(128.203125 39.046875) scale(0.7)"/>
      </g>
     </g>
    </g>
    <g id="ytick_2">
     <g id="line2d_19">
      <path d="M 46.445938 166.614179 
L 596.789728 166.614179 
" clip-path="url(#p33bcfced91)" style="fill: none; stroke: #e1e0d9; stroke-width: 0.8; stroke-linecap: square"/>
     </g>
     <g id="line2d_20">
      <g>
       <use xlink:href="#mac8af1c0d6" x="46.445938" y="166.614179" style="fill: #898781; stroke: #898781; stroke-width: 0.8"/>
      </g>
     </g>
     <g id="text_11">
      <!-- $\mathdefault{10^{4}}$ -->
      <g style="fill: #898781" transform="translate(21.845938 170.413398) scale(0.1 -0.1)">
       <use xlink:href="#DejaVuSans-31" transform="translate(0 0.684375)"/>
       <use xlink:href="#DejaVuSans-30" transform="translate(63.623047 0.684375)"/>
       <use xlink:href="#DejaVuSans-34" transform="translate(128.203125 38.965625) scale(0.7)"/>
      </g>
     </g>
    </g>
    <g id="ytick_3">
     <g id="line2d_21">
      <defs>
       <path id="m0d54203a2b" d="M 0 0 
L -2 0 
" style="stroke: #000000; stroke-width: 0.6"/>
      </defs>
      <g>
       <use xlink:href="#m0d54203a2b" x="46.445938" y="367.869431" style="stroke: #000000; stroke-width: 0.6"/>
      </g>
     </g>
    </g>
    <g id="ytick_4">
     <g id="line2d_22">
      <g>
       <use xlink:href="#m0d54203a2b" x="46.445938" y="353.917724" style="stroke: #000000; stroke-width: 0.6"/>
      </g>
     </g>
    </g>
    <g id="ytick_5">
     <g id="line2d_23">
      <g>
       <use xlink:href="#m0d54203a2b" x="46.445938" y="342.51835" style="stroke: #000000; stroke-width: 0.6"/>
      </g>
     </g>
    </g>
    <g id="ytick_6">
     <g id="line2d_24">
      <g>
       <use xlink:href="#m0d54203a2b" x="46.445938" y="332.880316" style="stroke: #000000; stroke-width: 0.6"/>
      </g>
     </g>
    </g>
    <g id="ytick_7">
     <g id="line2d_25">
      <g>
       <use xlink:href="#m0d54203a2b" x="46.445938" y="324.531471" style="stroke: #000000; stroke-width: 0.6"/>
      </g>
     </g>
    </g>
    <g id="ytick_8">
     <g id="line2d_26">
      <g>
       <use xlink:href="#m0d54203a2b" x="46.445938" y="317.167269" style="stroke: #000000; stroke-width: 0.6"/>
      </g>
     </g>
    </g>
    <g id="ytick_9">
     <g id="line2d_27">
      <g>
       <use xlink:href="#m0d54203a2b" x="46.445938" y="267.241805" style="stroke: #000000; stroke-width: 0.6"/>
      </g>
     </g>
    </g>
    <g id="ytick_10">
     <g id="line2d_28">
      <g>
       <use xlink:href="#m0d54203a2b" x="46.445938" y="241.890724" style="stroke: #000000; stroke-width: 0.6"/>
      </g>
     </g>
    </g>
    <g id="ytick_11">
     <g id="line2d_29">
      <g>
       <use xlink:href="#m0d54203a2b" x="46.445938" y="223.903845" style="stroke: #000000; stroke-width: 0.6"/>
      </g>
     </g>
    </g>
    <g id="ytick_12">
     <g id="line2d_30">
      <g>
       <use xlink:href="#m0d54203a2b" x="46.445938" y="209.952139" style="stroke: #000000; stroke-width: 0.6"/>
      </g>
     </g>
    </g>
    <g id="ytick_13">
     <g id="line2d_31">
      <g>
       <use xlink:href="#m0d54203a2b" x="46.445938" y="198.552764" style="stroke: #000000; stroke-width: 0.6"/>
      </g>
     </g>
    </g>
    <g id="ytick_14">
     <g id="line2d_32">
      <g>
       <use xlink:href="#m0d54203a2b" x="46.445938" y="188.91473" style="stroke: #000000; stroke-width: 0.6"/>
      </g>
     </g>
    </g>
    <g id="ytick_15">
     <g id="line2d_33">
      <g>
       <use xlink:href="#m0d54203a2b" x="46.445938" y="180.565886" style="stroke: #000000; stroke-width: 0.6"/>
      </g>
     </g>
    </g>
    <g id="ytick_16">
     <g id="line2d_34">
      <g>
       <use xlink:href="#m0d54203a2b" x="46.445938" y="173.201683" style="stroke: #000000; stroke-width: 0.6"/>
      </g>
     </g>
    </g>
    <g id="ytick_17">
     <g id="line2d_35">
      <g>
       <use xlink:href="#m0d54203a2b" x="46.445938" y="123.276219" style="stroke: #000000; stroke-width: 0.6"/>
      </g>
     </g>
    </g>
    <g id="ytick_18">
     <g id="line2d_36">
      <g>
       <use xlink:href="#m0d54203a2b" x="46.445938" y="97.925138" style="stroke: #000000; stroke-width: 0.6"/>
      </g>
     </g>
    </g>
    <g id="ytick_19">
     <g id="line2d_37">
      <g>
       <use xlink:href="#m0d54203a2b" x="46.445938" y="79.93826" style="stroke: #000000; stroke-width: 0.6"/>
      </g>
     </g>
    </g>
    <g id="ytick_20">
     <g id="line2d_38">
      <g>
       <use xlink:href="#m0d54203a2b" x="46.445938" y="65.986553" style="stroke: #000000; stroke-width: 0.6"/>
      </g>
     </g>
    </g>
    <g id="ytick_21">
     <g id="line2d_39">
      <g>
       <use xlink:href="#m0d54203a2b" x="46.445938" y="54.587179" style="stroke: #000000; stroke-width: 0.6"/>
      </g>
     </g>
    </g>
    <g id="ytick_22">
     <g id="line2d_40">
      <g>
       <use xlink:href="#m0d54203a2b" x="46.445938" y="44.949145" style="stroke: #000000; stroke-width: 0.6"/>
      </g>
     </g>
    </g>
    <g id="ytick_23">
     <g id="line2d_41">
      <g>
       <use xlink:href="#m0d54203a2b" x="46.445938" y="36.6003" style="stroke: #000000; stroke-width: 0.6"/>
      </g>
     </g>
    </g>
    <g id="text_12">
     <!-- Maximum Memory Usage (RSS) [MB] -->
     <g style="fill: #52514e" transform="translate(15.558281 309.802187) rotate(-90) scale(0.11 -0.11)">
      <defs>
       <path id="DejaVuSans-4d" d="M 628 4666 
L 1569 4666 
L 2759 1491 
L 3956 4666 
L 4897 4666 
L 4897 0 
L 4281 0 
L 4281 4097 
L 3078 897 
L 2444 897 
L 1241 4097 
L 1241 0 
L 628 0 
L 628 4666 
z
" transform="scale(0.015625)"/>
       <path id="DejaVuSans-61" d="M 2194 1759 
Q 1497 1759 1228 1600 
Q 959 1441 959 1056 
Q 959 750 1161 570 
Q 1363 391 1709 391 
Q 2188 391 2477 730 
Q 2766 1069 2766 1631 
L 2766 1759 
L 2194 1759 
z
M 3341 1997 
L 3341 0 
L 2766 0 
L 2766 531 
Q 2569 213 2275 61 
Q 1981 -91 1556 -91 
Q 1019 -91 701 211 
Q 384 513 384 1019 
Q 384 1609 779 1909 
Q 1175 2209 1959 2209 
L 2766 2209 
L 2766 2266 
Q 2766 2663 2505 2880 
Q 2244 3097 1772 3097 
Q 1472 3097 1187 3025 
Q 903 2953 641 2809 
L 641 3341 
Q 956 3463 1253 3523 
Q 1550 3584 1831 3584 
Q 2591 3584 2966 3190 
Q 3341 2797 3341 1997 
z
" transform="scale(0.015625)"/>
       <path id="DejaVuSans-78" d="M 3513 3500 
L 2247 1797 
L 3578 0 
L 2900 0 
L 1881 1375 
L 863 0 
L 184 0 
L 1544 1831 
L 300 3500 
L 978 3500 
L 1906 2253 
L 2834 3500 
L 3513 3500 
z
" transform="scale(0.015625)"/>
       <path id="DejaVuSans-79" d="M 2059 -325 
Q 1816 -950 1584 -1140 
Q 1353 -1331 966 -1331 
L 506 -1331 
L 506 -850 
L 844 -850 
Q 1081 -850 1212 -737 
Q 1344 -625 1503 -206 
L 1606 56 
L 191 3500 
L 800 3500 
L 1894 763 
L 2988 3500 
L 3597 3500 
L 2059 -325 
z
" transform="scale(0.015625)"/>
       <path id="DejaVuSans-55" d="M 556 4666 
L 1191 4666 
L 1191 1831 
Q 1191 1081 1462 751 
Q 1734 422 2344 422 
Q 2950 422 3222 751 
Q 3494 1081 3494 1831 
L 3494 4666 
L 4128 4666 
L 4128 1753 
Q 4128 841 3676 375 
Q 3225 -91 2344 -91 
Q 1459 -91 1007 375 
Q 556 841 556 1753 
L 556 4666 
z
" transform="scale(0.015625)"/>
       <path id="DejaVuSans-67" d="M 2906 1791 
Q 2906 2416 2648 2759 
Q 2391 3103 1925 3103 
Q 1463 3103 1205 2759 
Q 947 2416 947 1791 
Q 947 1169 1205 825 
Q 1463 481 1925 481 
Q 2391 481 2648 825 
Q 2906 1169 2906 1791 
z
M 3481 434 
Q 3481 -459 3084 -895 
Q 2688 -1331 1869 -1331 
Q 1566 -1331 1297 -1286 
Q 1028 -1241 775 -1147 
L 775 -588 
Q 1028 -725 1275 -790 
Q 1522 -856 1778 -856 
Q 2344 -856 2625 -561 
Q 2906 -266 2906 331 
L 2906 616 
Q 2728 306 2450 153 
Q 2172 0 1784 0 
Q 1141 0 747 490 
Q 353 981 353 1791 
Q 353 2603 747 3093 
Q 1141 3584 1784 3584 
Q 2172 3584 2450 3431 
Q 2728 3278 2906 2969 
L 2906 3500 
L 3481 3500 
L 3481 434 
z
" transform="scale(0.015625)"/>
       <path id="DejaVuSans-28" d="M 1984 4856 
Q 1566 4138 1362 3434 
Q 1159 2731 1159 2009 
Q 1159 1288 1364 580 
Q 1569 -128 1984 -844 
L 1484 -844 
Q 1016 -109 783 600 
Q 550 1309 550 2009 
Q 550 2706 781 3412 
Q 1013 4119 1484 4856 
L 1984 4856 
z
" transform="scale(0.015625)"/>
       <path id="DejaVuSans-52" d="M 2841 2188 
Q 3044 2119 3236 1894 
Q 3428 1669 3622 1275 
L 4263 0 
L 3584 0 
L 2988 1197 
Q 2756 1666 2539 1819 
Q 2322 1972 1947 1972 
L 1259 1972 
L 1259 0 
L 628 0 
L 628 4666 
L 2053 4666 
Q 2853 4666 3247 4331 
Q 3641 3997 3641 3322 
Q 3641 2881 3436 2590 
Q 3231 2300 2841 2188 
z
M 1259 4147 
L 1259 2491 
L 2053 2491 
Q 2509 2491 2742 2702 
Q 2975 2913 2975 3322 
Q 2975 3731 2742 3939 
Q 2509 4147 2053 4147 
L 1259 4147 
z
" transform="scale(0.015625)"/>
       <path id="DejaVuSans-53" d="M 3425 4513 
L 3425 3897 
Q 3066 4069 2747 4153 
Q 2428 4238 2131 4238 
Q 1616 4238 1336 4038 
Q 1056 3838 1056 3469 
Q 1056 3159 1242 3001 
Q 1428 2844 1947 2747 
L 2328 2669 
Q 3034 2534 3370 2195 
Q 3706 1856 3706 1288 
Q 3706 609 3251 259 
Q 2797 -91 1919 -91 
Q 1588 -91 1214 -16 
Q 841 59 441 206 
L 441 856 
Q 825 641 1194 531 
Q 1563 422 1919 422 
Q 2459 422 2753 634 
Q 3047 847 3047 1241 
Q 3047 1584 2836 1778 
Q 2625 1972 2144 2069 
L 1759 2144 
Q 1053 2284 737 2584 
Q 422 2884 422 3419 
Q 422 4038 858 4394 
Q 1294 4750 2059 4750 
Q 2388 4750 2728 4690 
Q 3069 4631 3425 4513 
z
" transform="scale(0.015625)"/>
       <path id="DejaVuSans-29" d="M 513 4856 
L 1013 4856 
Q 1481 4119 1714 3412 
Q 1947 2706 1947 2009 
Q 1947 1309 1714 600 
Q 1481 -109 1013 -844 
L 513 -844 
Q 928 -128 1133 580 
Q 1338 1288 1338 2009 
Q 1338 2731 1133 3434 
Q 928 4138 513 4856 
z
" transform="scale(0.015625)"/>
       <path id="DejaVuSans-5b" d="M 550 4863 
L 1875 4863 
L 1875 4416 
L 1125 4416 
L 1125 -397 
L 1875 -397 
L 1875 -844 
L 550 -844 
L 550 4863 
z
" transform="scale(0.015625)"/>
       <path id="DejaVuSans-42" d="M 1259 2228 
L 1259 519 
L 2272 519 
Q 2781 519 3026 730 
Q 3272 941 3272 1375 
Q 3272 1813 3026 2020 
Q 2781 2228 2272 2228 
L 1259 2228 
z
M 1259 4147 
L 1259 2741 
L 2194 2741 
Q 2656 2741 2882 2914 
Q 3109 3088 3109 3444 
Q 3109 3797 2882 3972 
Q 2656 4147 2194 4147 
L 1259 4147 
z
M 628 4666 
L 2241 4666 
Q 2963 4666 3353 4366 
Q 3744 4066 3744 3513 
Q 3744 3084 3544 2831 
Q 3344 2578 2956 2516 
Q 3422 2416 3680 2098 
Q 3938 1781 3938 1306 
Q 3938 681 3513 340 
Q 3088 0 2303 0 
L 628 0 
L 628 4666 
z
" transform="scale(0.015625)"/>
       <path id="DejaVuSans-5d" d="M 1947 4863 
L 1947 -844 
L 622 -844 
L 622 -397 
L 1369 -397 
L 1369 4416 
L 622 4416 
L 622 4863 
L 1947 4863 
z
" transform="scale(0.015625)"/>
      </defs>
      <use xlink:href="#DejaVuSans-4d"/>
      <use xlink:href="#DejaVuSans-61" transform="translate(86.279297 0)"/>
      <use xlink:href="#DejaVuSans-78" transform="translate(147.558594 0)"/>
      <use xlink:href="#DejaVuSans-69" transform="translate(206.738281 0)"/>
      <use xlink:href="#DejaVuSans-6d" transform="translate(234.521484 0)"/>
      <use xlink:href="#DejaVuSans-75" transform="translate(331.933594 0)"/>
      <use xlink:href="#DejaVuSans-6d" transform="translate(395.3125 0)"/>
      <use xlink:href="#DejaVuSans-20" transform="translate(492.724609 0)"/>
      <use xlink:href="#DejaVuSans-4d" transform="translate(524.511719 0)"/>
      <use xlink:href="#DejaVuSans-65" transform="translate(610.791016 0)"/>
      <use xlink:href="#DejaVuSans-6d" transform="translate(672.314453 0)"/>
      <use xlink:href="#DejaVuSans-6f" transform="translate(769.726562 0)"/>
      <use xlink:href="#DejaVuSans-72" transform="translate(830.908203 0)"/>
      <use xlink:href="#DejaVuSans-79" transform="translate(872.021484 0)"/>
      <use xlink:href="#DejaVuSans-20" transform="translate(931.201172 0)"/>
      <use xlink:href="#DejaVuSans-55" transform="translate(962.988281 0)"/>
      <use xlink:href="#DejaVuSans-73" transform="translate(1036.181641 0)"/>
      <use xlink:href="#DejaVuSans-61" transform="translate(1088.28125 0)"/>
      <use xlink:href="#DejaVuSans-67" transform="translate(1149.560547 0)"/>
      <use xlink:href="#DejaVuSans-65" transform="translate(1213.037109 0)"/>
      <use xlink:href="#DejaVuSans-20" transform="translate(1274.560547 0)"/>
      <use xlink:href="#DejaVuSans-28" transform="translate(1306.347656 0)"/>
      <use xlink:href="#DejaVuSans-52" transform="translate(1345.361328 0)"/>
      <use xlink:href="#DejaVuSans-53" transform="translate(1414.84375 0)"/>
      <use xlink:href="#DejaVuSans-53" transform="translate(1478.320312 0)"/>
      <use xlink:href="#DejaVuSans-29" transform="translate(1541.796875 0)"/>
      <use xlink:href="#DejaVuSans-20" transform="translate(1580.810547 0)"/>
      <use xlink:href="#DejaVuSans-5b" transform="translate(1612.597656 0)"/>
      <use xlink:href="#DejaVuSans-4d" transform="translate(1651.611328 0)"/>
      <use xlink:href="#DejaVuSans-42" transform="translate(1737.890625 0)"/>
      <use xlink:href="#DejaVuSans-5d" transform="translate(1806.494141 0)"/>
     </g>
    </g>
   </g>
   <g id="FillBetweenPolyCollection_1">
    <defs>
     <path id="me0a4ec8741" d="M 71.461564 -55.449376 
L 71.461564 -55.169099 
L 107.198174 -55.653189 
L 142.934784 -56.255878 
L 178.671394 -56.961528 
L 214.408004 -57.802711 
L 250.144613 -58.330923 
L 285.881223 -58.801734 
L 321.617833 -59.300434 
L 357.354443 -60.245231 
L 393.091052 -66.419316 
L 428.827662 -88.194616 
L 464.564272 -137.763144 
L 500.300882 -209.240846 
L 536.037492 -291.284444 
L 571.774101 -376.848354 
L 571.774101 -376.853153 
L 571.774101 -376.853153 
L 536.037492 -291.341598 
L 500.300882 -209.276397 
L 464.564272 -137.85451 
L 428.827662 -88.579468 
L 393.091052 -66.911669 
L 357.354443 -60.750211 
L 321.617833 -59.757203 
L 285.881223 -59.228192 
L 250.144613 -58.750251 
L 214.408004 -58.132079 
L 178.671394 -57.317822 
L 142.934784 -56.565739 
L 107.198174 -56.082505 
L 71.461564 -55.449376 
z
"/>
    </defs>
    <g clip-path="url(#p33bcfced91)">
     <use xlink:href="#me0a4ec8741" x="0" y="424.042031" style="fill: #2a78d6; fill-opacity: 0.15"/>
    </g>
   </g>
   <g id="FillBetweenPolyCollection_2">
    <defs>
     <path id="mce2cd2ca71" d="M 71.461564 -55.002372 
L 71.461564 -54.780645 
L 107.198174 -54.807489 
L 142.934784 -54.781346 
L 178.671394 -54.808897 
L 214.408004 -54.806864 
L 250.144613 -54.8465 
L 285.881223 -54.764952 
L 321.617833 -54.651037 
L 357.354443 -54.73976 
L 393.091052 -54.83065 
L 428.827662 -55.042884 
L 464.564272 -55.364141 
L 500.300882 -55.662761 
L 536.037492 -57.071041 
L 571.774101 -58.343778 
L 571.774101 -58.921111 
L 571.774101 -58.921111 
L 536.037492 -57.583234 
L 500.300882 -56.167706 
L 464.564272 -55.73442 
L 428.827662 -55.468951 
L 393.091052 -55.163942 
L 357.354443 -55.013316 
L 321.617833 -55.041647 
L 285.881223 -55.006286 
L 250.144613 -54.95412 
L 214.408004 -54.989872 
L 178.671394 -54.983767 
L 142.934784 -55.003106 
L 107.198174 -54.979913 
L 71.461564 -55.002372 
z
"/>
    </defs>
    <g clip-path="url(#p33bcfced91)">
     <use xlink:href="#mce2cd2ca71" x="0" y="424.042031" style="fill: #eb6834; fill-opacity: 0.15"/>
    </g>
   </g>
   <g id="FillBetweenPolyCollection_3">
    <defs>
     <path id="m8c554f47e4" d="M 71.461564 -55.015716 
L 71.461564 -54.737894 
L 107.198174 -54.738409 
L 142.934784 -54.815003 
L 178.671394 -54.762309 
L 214.408004 -54.754263 
L 250.144613 -54.794363 
L 285.881223 -54.70431 
L 321.617833 -54.669079 
L 357.354443 -54.685873 
L 393.091052 -54.834947 
L 428.827662 -55.145294 
L 464.564272 -55.412506 
L 500.300882 -55.945284 
L 536.037492 -61.732605 
L 571.774101 -67.243331 
L 571.774101 -67.899574 
L 571.774101 -67.899574 
L 536.037492 -62.3253 
L 500.300882 -56.720375 
L 464.564272 -55.842535 
L 428.827662 -55.548197 
L 393.091052 -55.263381 
L 357.354443 -55.10379 
L 321.617833 -55.025018 
L 285.881223 -55.029523 
L 250.144613 -54.998161 
L 214.408004 -55.007155 
L 178.671394 -55.015447 
L 142.934784 -54.988606 
L 107.198174 -55.024342 
L 71.461564 -55.015716 
z
"/>
    </defs>
    <g clip-path="url(#p33bcfced91)">
     <use xlink:href="#m8c554f47e4" x="0" y="424.042031" style="fill: #1baf7a; fill-opacity: 0.15"/>
    </g>
   </g>
   <g id="FillBetweenPolyCollection_4">
    <defs>
     <path id="mf357c8a5c5" d="M 71.461564 -54.985539 
L 71.461564 -54.781745 
L 107.198174 -54.819421 
L 142.934784 -54.728292 
L 178.671394 -54.777246 
L 214.408004 -54.750968 
L 250.144613 -54.827602 
L 285.881223 -54.709814 
L 321.617833 -54.634972 
L 357.354443 -54.702457 
L 393.091052 -54.830117 
L 428.827662 -55.158189 
L 464.564272 -55.465468 
L 500.300882 -55.929988 
L 536.037492 -61.738398 
L 571.774101 -67.303588 
L 571.774101 -67.903773 
L 571.774101 -67.903773 
L 536.037492 -62.271857 
L 500.300882 -56.65928 
L 464.564272 -55.886914 
L 428.827662 -55.494153 
L 393.091052 -55.235311 
L 357.354443 -55.068605 
L 321.617833 -55.047233 
L 285.881223 -55.024047 
L 250.144613 -54.981328 
L 214.408004 -55.009226 
L 178.671394 -55.000758 
L 142.934784 -55.023522 
L 107.198174 -54.976202 
L 71.461564 -54.985539 
z
"/>
    </defs>
    <g clip-path="url(#p33bcfced91)">
     <use xlink:href="#mf357c8a5c5" x="0" y="424.042031" style="fill: #4a3aa7; fill-opacity: 0.15"/>
    </g>
   </g>
   <g id="FillBetweenPolyCollection_5">
    <defs>
     <path id="mcd2446ea28" d="M 71.461564 -54.971473 
L 71.461564 -54.827962 
L 107.198174 -54.799075 
L 142.934784 -54.787562 
L 178.671394 -54.798933 
L 214.408004 -54.725473 
L 250.144613 -54.796047 
L 285.881223 -54.711756 
L 321.617833 -54.683107 
L 357.354443 -54.726104 
L 393.091052 -54.833218 
L 428.827662 -55.17211 
L 464.564272 -55.38952 
L 500.300882 -55.875064 
L 536.037492 -61.733729 
L 571.774101 -67.250443 
L 571.774101 -67.911971 
L 571.774101 -67.911971 
L 536.037492 -62.271268 
L 500.300882 -56.70887 
L 464.564272 -55.838049 
L 428.827662 -55.533038 
L 393.091052 -55.241305 
L 357.354443 -55.033118 
L 321.617833 -55.037972 
L 285.881223 -55.017211 
L 250.144613 -54.995113 
L 214.408004 -55.037247 
L 178.671394 -55.002397 
L 142.934784 -54.995765 
L 107.198174 -54.993496 
L 71.461564 -54.971473 
z
"/>
    </defs>
    <g clip-path="url(#p33bcfced91)">
     <use xlink:href="#mcd2446ea28" x="0" y="424.042031" style="fill: #e34948; fill-opacity: 0.15"/>
    </g>
   </g>
   <g id="patch_3">
    <path d="M 46.445938 385.517969 
L 46.445938 31.077969 
" style="fill: none; stroke: #c3c2b7; stroke-width: 0.8; stroke-linejoin: miter; stroke-linecap: square"/>
   </g>
   <g id="patch_4">
    <path d="M 46.445937 385.517969 
L 596.789728 385.517969 
" style="fill: none; stroke: #c3c2b7; stroke-width: 0.8; stroke-linejoin: miter; stroke-linecap: square"/>
   </g>
   <g id="text_13">
    <!-- Peak RSS Memory Usage of Density Matrix vs MCWF Simulations -->
    <g style="fill: #0b0b0b" transform="translate(84.213458 17.077969) scale(0.13 -0.13)">
     <defs>
      <path id="DejaVuSans-Bold-50" d="M 588 4666 
L 2584 4666 
Q 3475 4666 3951 4270 
Q 4428 3875 4428 3144 
Q 4428 2409 3951 2014 
Q 3475 1619 2584 1619 
L 1791 1619 
L 1791 0 
L 588 0 
L 588 4666 
z
M 1791 3794 
L 1791 2491 
L 2456 2491 
Q 2806 2491 2997 2661 
Q 3188 2831 3188 3144 
Q 3188 3456 2997 3625 
Q 2806 3794 2456 3794 
L 1791 3794 
z
" transform="scale(0.015625)"/>
      <path id="DejaVuSans-Bold-65" d="M 4031 1759 
L 4031 1441 
L 1416 1441 
Q 1456 1047 1700 850 
Q 1944 653 2381 653 
Q 2734 653 3104 758 
Q 3475 863 3866 1075 
L 3866 213 
Q 3469 63 3072 -14 
Q 2675 -91 2278 -91 
Q 1328 -91 801 392 
Q 275 875 275 1747 
Q 275 2603 792 3093 
Q 1309 3584 2216 3584 
Q 3041 3584 3536 3087 
Q 4031 2591 4031 1759 
z
M 2881 2131 
Q 2881 2450 2695 2645 
Q 2509 2841 2209 2841 
Q 1884 2841 1681 2658 
Q 1478 2475 1428 2131 
L 2881 2131 
z
" transform="scale(0.015625)"/>
      <path id="DejaVuSans-Bold-61" d="M 2106 1575 
Q 1756 1575 1579 1456 
Q 1403 1338 1403 1106 
Q 1403 894 1545 773 
Q 1688 653 1941 653 
Q 2256 653 2472 879 
Q 2688 1106 2688 1447 
L 2688 1575 
L 2106 1575 
z
M 3816 1997 
L 3816 0 
L 2688 0 
L 2688 519 
Q 2463 200 2181 54 
Q 1900 -91 1497 -91 
Q 953 -91 614 226 
Q 275 544 275 1050 
Q 275 1666 698 1953 
Q 1122 2241 2028 2241 
L 2688 2241 
L 2688 2328 
Q 2688 2594 2478 2717 
Q 2269 2841 1825 2841 
Q 1466 2841 1156 2769 
Q 847 2697 581 2553 
L 581 3406 
Q 941 3494 1303 3539 
Q 1666 3584 2028 3584 
Q 2975 3584 3395 3211 
Q 3816 2838 3816 1997 
z
" transform="scale(0.015625)"/>
      <path id="DejaVuSans-Bold-6b" d="M 538 4863 
L 1656 4863 
L 1656 2216 
L 2944 3500 
L 4244 3500 
L 2534 1894 
L 4378 0 
L 3022 0 
L 1656 1459 
L 1656 0 
L 538 0 
L 538 4863 
z
" transform="scale(0.015625)"/>
      <path id="DejaVuSans-Bold-20" transform="scale(0.015625)"/>
      <path id="DejaVuSans-Bold-52" d="M 2297 2597 
Q 2675 2597 2839 2737 
Q 3003 2878 3003 3200 
Q 3003 3519 2839 3656 
Q 2675 3794 2297 3794 
L 1791 3794 
L 1791 2597 
L 2297 2597 
z
M 1791 1766 
L 1791 0 
L 588 0 
L 588 4666 
L 2425 4666 
Q 3347 4666 3776 4356 
Q 4206 4047 4206 3378 
Q 4206 2916 3982 2619 
Q 3759 2322 3309 2181 
Q 3556 2125 3751 1926 
Q 3947 1728 4147 1325 
L 4800 0 
L 3519 0 
L 2950 1159 
Q 2778 1509 2601 1637 
Q 2425 1766 2131 1766 
L 1791 1766 
z
" transform="scale(0.015625)"/>
      <path id="DejaVuSans-Bold-53" d="M 3834 4519 
L 3834 3531 
Q 3450 3703 3084 3790 
Q 2719 3878 2394 3878 
Q 1963 3878 1756 3759 
Q 1550 3641 1550 3391 
Q 1550 3203 1689 3098 
Q 1828 2994 2194 2919 
L 2706 2816 
Q 3484 2659 3812 2340 
Q 4141 2022 4141 1434 
Q 4141 663 3683 286 
Q 3225 -91 2284 -91 
Q 1841 -91 1394 -6 
Q 947 78 500 244 
L 500 1259 
Q 947 1022 1364 901 
Q 1781 781 2169 781 
Q 2563 781 2772 912 
Q 2981 1044 2981 1288 
Q 2981 1506 2839 1625 
Q 2697 1744 2272 1838 
L 1806 1941 
Q 1106 2091 782 2419 
Q 459 2747 459 3303 
Q 459 4000 909 4375 
Q 1359 4750 2203 4750 
Q 2588 4750 2994 4692 
Q 3400 4634 3834 4519 
z
" transform="scale(0.015625)"/>
      <path id="DejaVuSans-Bold-4d" d="M 588 4666 
L 2119 4666 
L 3181 2169 
L 4250 4666 
L 5778 4666 
L 5778 0 
L 4641 0 
L 4641 3413 
L 3566 897 
L 2803 897 
L 1728 3413 
L 1728 0 
L 588 0 
L 588 4666 
z
" transform="scale(0.015625)"/>
      <path id="DejaVuSans-Bold-6d" d="M 3781 2919 
Q 3994 3244 4286 3414 
Q 4578 3584 4928 3584 
Q 5531 3584 5847 3212 
Q 6163 2841 6163 2131 
L 6163 0 
L 5038 0 
L 5038 1825 
Q 5041 1866 5042 1909 
Q 5044 1953 5044 2034 
Q 5044 2406 4934 2573 
Q 4825 2741 4581 2741 
Q 4263 2741 4089 2478 
Q 3916 2216 3909 1719 
L 3909 0 
L 2784 0 
L 2784 1825 
Q 2784 2406 2684 2573 
Q 2584 2741 2328 2741 
Q 2006 2741 1831 2477 
Q 1656 2213 1656 1722 
L 1656 0 
L 531 0 
L 531 3500 
L 1656 3500 
L 1656 2988 
Q 1863 3284 2130 3434 
Q 2397 3584 2719 3584 
Q 3081 3584 3359 3409 
Q 3638 3234 3781 2919 
z
" transform="scale(0.015625)"/>
      <path id="DejaVuSans-Bold-6f" d="M 2203 2784 
Q 1831 2784 1636 2517 
Q 1441 2250 1441 1747 
Q 1441 1244 1636 976 
Q 1831 709 2203 709 
Q 2569 709 2762 976 
Q 2956 1244 2956 1747 
Q 2956 2250 2762 2517 
Q 2569 2784 2203 2784 
z
M 2203 3584 
Q 3106 3584 3614 3096 
Q 4122 2609 4122 1747 
Q 4122 884 3614 396 
Q 3106 -91 2203 -91 
Q 1297 -91 786 396 
Q 275 884 275 1747 
Q 275 2609 786 3096 
Q 1297 3584 2203 3584 
z
" transform="scale(0.015625)"/>
      <path id="DejaVuSans-Bold-72" d="M 3138 2547 
Q 2991 2616 2845 2648 
Q 2700 2681 2553 2681 
Q 2122 2681 1889 2404 
Q 1656 2128 1656 1613 
L 1656 0 
L 538 0 
L 538 3500 
L 1656 3500 
L 1656 2925 
Q 1872 3269 2151 3426 
Q 2431 3584 2822 3584 
Q 2878 3584 2943 3579 
Q 3009 3575 3134 3559 
L 3138 2547 
z
" transform="scale(0.015625)"/>
      <path id="DejaVuSans-Bold-79" d="M 78 3500 
L 1197 3500 
L 2138 1125 
L 2938 3500 
L 4056 3500 
L 2584 -331 
Q 2363 -916 2067 -1148 
Q 1772 -1381 1288 -1381 
L 641 -1381 
L 641 -647 
L 991 -647 
Q 1275 -647 1404 -556 
Q 1534 -466 1606 -231 
L 1638 -134 
L 78 3500 
z
" transform="scale(0.015625)"/>
      <path id="DejaVuSans-Bold-55" d="M 588 4666 
L 1791 4666 
L 1791 1869 
Q 1791 1291 1980 1042 
Q 2169 794 2597 794 
Q 3028 794 3217 1042 
Q 3406 1291 3406 1869 
L 3406 4666 
L 4609 4666 
L 4609 1869 
Q 4609 878 4112 393 
Q 3616 -91 2597 -91 
Q 1581 -91 1084 393 
Q 588 878 588 1869 
L 588 4666 
z
" transform="scale(0.015625)"/>
      <path id="DejaVuSans-Bold-73" d="M 3272 3391 
L 3272 2541 
Q 2913 2691 2578 2766 
Q 2244 2841 1947 2841 
Q 1628 2841 1473 2761 
Q 1319 2681 1319 2516 
Q 1319 2381 1436 2309 
Q 1553 2238 1856 2203 
L 2053 2175 
Q 2913 2066 3209 1816 
Q 3506 1566 3506 1031 
Q 3506 472 3093 190 
Q 2681 -91 1863 -91 
Q 1516 -91 1145 -36 
Q 775 19 384 128 
L 384 978 
Q 719 816 1070 734 
Q 1422 653 1784 653 
Q 2113 653 2278 743 
Q 2444 834 2444 1013 
Q 2444 1163 2330 1236 
Q 2216 1309 1875 1350 
L 1678 1375 
Q 931 1469 631 1722 
Q 331 1975 331 2491 
Q 331 3047 712 3315 
Q 1094 3584 1881 3584 
Q 2191 3584 2531 3537 
Q 2872 3491 3272 3391 
z
" transform="scale(0.015625)"/>
      <path id="DejaVuSans-Bold-67" d="M 2919 594 
Q 2688 288 2409 144 
Q 2131 0 1766 0 
Q 1125 0 706 504 
Q 288 1009 288 1791 
Q 288 2575 706 3076 
Q 1125 3578 1766 3578 
Q 2131 3578 2409 3434 
Q 2688 3291 2919 2981 
L 2919 3500 
L 4044 3500 
L 4044 353 
Q 4044 -491 3511 -936 
Q 2978 -1381 1966 -1381 
Q 1638 -1381 1331 -1331 
Q 1025 -1281 716 -1178 
L 716 -306 
Q 1009 -475 1290 -558 
Q 1572 -641 1856 -641 
Q 2406 -641 2662 -400 
Q 2919 -159 2919 353 
L 2919 594 
z
M 2181 2772 
Q 1834 2772 1640 2515 
Q 1447 2259 1447 1791 
Q 1447 1309 1634 1061 
Q 1822 813 2181 813 
Q 2531 813 2725 1069 
Q 2919 1325 2919 1791 
Q 2919 2259 2725 2515 
Q 2531 2772 2181 2772 
z
" transform="scale(0.015625)"/>
      <path id="DejaVuSans-Bold-66" d="M 2841 4863 
L 2841 4128 
L 2222 4128 
Q 1984 4128 1890 4042 
Q 1797 3956 1797 3744 
L 1797 3500 
L 2753 3500 
L 2753 2700 
L 1797 2700 
L 1797 0 
L 678 0 
L 678 2700 
L 122 2700 
L 122 3500 
L 678 3500 
L 678 3744 
Q 678 4316 997 4589 
Q 1316 4863 1984 4863 
L 2841 4863 
z
" transform="scale(0.015625)"/>
      <path id="DejaVuSans-Bold-44" d="M 1791 3756 
L 1791 909 
L 2222 909 
Q 2959 909 3348 1275 
Q 3738 1641 3738 2338 
Q 3738 3031 3350 3393 
Q 2963 3756 2222 3756 
L 1791 3756 
z
M 588 4666 
L 1856 4666 
Q 2919 4666 3439 4514 
Q 3959 4363 4331 4000 
Q 4659 3684 4818 3271 
Q 4978 2859 4978 2338 
Q 4978 1809 4818 1395 
Q 4659 981 4331 666 
Q 3956 303 3431 151 
Q 2906 0 1856 0 
L 588 0 
L 588 4666 
z
" transform="scale(0.015625)"/>
      <path id="DejaVuSans-Bold-6e" d="M 4056 2131 
L 4056 0 
L 2931 0 
L 2931 347 
L 2931 1631 
Q 2931 2084 2911 2256 
Q 2891 2428 2841 2509 
Q 2775 2619 2662 2680 
Q 2550 2741 2406 2741 
Q 2056 2741 1856 2470 
Q 1656 2200 1656 1722 
L 1656 0 
L 538 0 
L 538 3500 
L 1656 3500 
L 1656 2988 
Q 1909 3294 2193 3439 
Q 2478 3584 2822 3584 
Q 3428 3584 3742 3212 
Q 4056 2841 4056 2131 
z
" transform="scale(0.015625)"/>
      <path id="DejaVuSans-Bold-69" d="M 538 3500 
L 1656 3500 
L 1656 0 
L 538 0 
L 538 3500 
z
M 538 4863 
L 1656 4863 
L 1656 3950 
L 538 3950 
L 538 4863 
z
" transform="scale(0.015625)"/>
      <path id="DejaVuSans-Bold-74" d="M 1759 4494 
L 1759 3500 
L 2913 3500 
L 2913 2700 
L 1759 2700 
L 1759 1216 
Q 1759 972 1856 886 
Q 1953 800 2241 800 
L 2816 800 
L 2816 0 
L 1856 0 
Q 1194 0 917 276 
Q 641 553 641 1216 
L 641 2700 
L 84 2700 
L 84 3500 
L 641 3500 
L 641 4494 
L 1759 4494 
z
" transform="scale(0.015625)"/>
      <path id="DejaVuSans-Bold-78" d="M 1422 1791 
L 159 3500 
L 1344 3500 
L 2059 2463 
L 2784 3500 
L 3969 3500 
L 2706 1797 
L 4031 0 
L 2847 0 
L 2059 1106 
L 1281 0 
L 97 0 
L 1422 1791 
z
" transform="scale(0.015625)"/>
      <path id="DejaVuSans-Bold-76" d="M 97 3500 
L 1216 3500 
L 2088 1081 
L 2956 3500 
L 4078 3500 
L 2700 0 
L 1472 0 
L 97 3500 
z
" transform="scale(0.015625)"/>
      <path id="DejaVuSans-Bold-43" d="M 4288 256 
Q 3956 84 3597 -3 
Q 3238 -91 2847 -91 
Q 1681 -91 1000 561 
Q 319 1213 319 2328 
Q 319 3447 1000 4098 
Q 1681 4750 2847 4750 
Q 3238 4750 3597 4662 
Q 3956 4575 4288 4403 
L 4288 3438 
Q 3953 3666 3628 3772 
Q 3303 3878 2944 3878 
Q 2300 3878 1931 3465 
Q 1563 3053 1563 2328 
Q 1563 1606 1931 1193 
Q 2300 781 2944 781 
Q 3303 781 3628 887 
Q 3953 994 4288 1222 
L 4288 256 
z
" transform="scale(0.015625)"/>
      <path id="DejaVuSans-Bold-57" d="M 191 4666 
L 1344 4666 
L 2150 1275 
L 2950 4666 
L 4109 4666 
L 4909 1275 
L 5716 4666 
L 6859 4666 
L 5759 0 
L 4372 0 
L 3525 3547 
L 2688 0 
L 1300 0 
L 191 4666 
z
" transform="scale(0.015625)"/>
      <path id="DejaVuSans-Bold-46" d="M 588 4666 
L 3834 4666 
L 3834 3756 
L 1791 3756 
L 1791 2888 
L 3713 2888 
L 3713 1978 
L 1791 1978 
L 1791 0 
L 588 0 
L 588 4666 
z
" transform="scale(0.015625)"/>
      <path id="DejaVuSans-Bold-75" d="M 500 1363 
L 500 3500 
L 1625 3500 
L 1625 3150 
Q 1625 2866 1622 2436 
Q 1619 2006 1619 1863 
Q 1619 1441 1641 1255 
Q 1663 1069 1716 984 
Q 1784 875 1895 815 
Q 2006 756 2150 756 
Q 2500 756 2700 1025 
Q 2900 1294 2900 1772 
L 2900 3500 
L 4019 3500 
L 4019 0 
L 2900 0 
L 2900 506 
Q 2647 200 2364 54 
Q 2081 -91 1741 -91 
Q 1134 -91 817 281 
Q 500 653 500 1363 
z
" transform="scale(0.015625)"/>
      <path id="DejaVuSans-Bold-6c" d="M 538 4863 
L 1656 4863 
L 1656 0 
L 538 0 
L 538 4863 
z
" transform="scale(0.015625)"/>
     </defs>
     <use xlink:href="#DejaVuSans-Bold-50"/>
     <use xlink:href="#DejaVuSans-Bold-65" transform="translate(73.291016 0)"/>
     <use xlink:href="#DejaVuSans-Bold-61" transform="translate(141.113281 0)"/>
     <use xlink:href="#DejaVuSans-Bold-6b" transform="translate(208.59375 0)"/>
     <use xlink:href="#DejaVuSans-Bold-20" transform="translate(275.097656 0)"/>
     <use xlink:href="#DejaVuSans-Bold-52" transform="translate(309.912109 0)"/>
     <use xlink:href="#DejaVuSans-Bold-53" transform="translate(386.914062 0)"/>
     <use xlink:href="#DejaVuSans-Bold-53" transform="translate(454.435547 0)"/>
     <use xlink:href="#DejaVuSans-Bold-20" transform="translate(526.457031 0)"/>
     <use xlink:href="#DejaVuSans-Bold-4d" transform="translate(561.271484 0)"/>
     <use xlink:href="#DejaVuSans-Bold-65" transform="translate(660.783203 0)"/>
     <use xlink:href="#DejaVuSans-Bold-6d" transform="translate(728.605469 0)"/>
     <use xlink:href="#DejaVuSans-Bold-6f" transform="translate(832.804688 0)"/>
     <use xlink:href="#DejaVuSans-Bold-72" transform="translate(901.505859 0)"/>
     <use xlink:href="#DejaVuSans-Bold-79" transform="translate(950.822266 0)"/>
     <use xlink:href="#DejaVuSans-Bold-20" transform="translate(1016.007812 0)"/>
     <use xlink:href="#DejaVuSans-Bold-55" transform="translate(1050.822266 0)"/>
     <use xlink:href="#DejaVuSans-Bold-73" transform="translate(1132.023438 0)"/>
     <use xlink:href="#DejaVuSans-Bold-61" transform="translate(1191.544922 0)"/>
     <use xlink:href="#DejaVuSans-Bold-67" transform="translate(1259.025391 0)"/>
     <use xlink:href="#DejaVuSans-Bold-65" transform="translate(1330.607422 0)"/>
     <use xlink:href="#DejaVuSans-Bold-20" transform="translate(1398.429688 0)"/>
     <use xlink:href="#DejaVuSans-Bold-6f" transform="translate(1433.244141 0)"/>
     <use xlink:href="#DejaVuSans-Bold-66" transform="translate(1501.945312 0)"/>
     <use xlink:href="#DejaVuSans-Bold-20" transform="translate(1545.451172 0)"/>
     <use xlink:href="#DejaVuSans-Bold-44" transform="translate(1580.265625 0)"/>
     <use xlink:href="#DejaVuSans-Bold-65" transform="translate(1663.273438 0)"/>
     <use xlink:href="#DejaVuSans-Bold-6e" transform="translate(1731.095703 0)"/>
     <use xlink:href="#DejaVuSans-Bold-73" transform="translate(1802.287109 0)"/>
     <use xlink:href="#DejaVuSans-Bold-69" transform="translate(1861.808594 0)"/>
     <use xlink:href="#DejaVuSans-Bold-74" transform="translate(1896.085938 0)"/>
     <use xlink:href="#DejaVuSans-Bold-79" transform="translate(1943.888672 0)"/>
     <use xlink:href="#DejaVuSans-Bold-20" transform="translate(2009.074219 0)"/>
     <use xlink:href="#DejaVuSans-Bold-4d" transform="translate(2043.888672 0)"/>
     <use xlink:href="#DejaVuSans-Bold-61" transform="translate(2143.400391 0)"/>
     <use xlink:href="#DejaVuSans-Bold-74" transform="translate(2210.880859 0)"/>
     <use xlink:href="#DejaVuSans-Bold-72" transform="translate(2258.683594 0)"/>
     <use xlink:href="#DejaVuSans-Bold-69" transform="translate(2308 0)"/>
     <use xlink:href="#DejaVuSans-Bold-78" transform="translate(2342.277344 0)"/>
     <use xlink:href="#DejaVuSans-Bold-20" transform="translate(2406.779297 0)"/>
     <use xlink:href="#DejaVuSans-Bold-76" transform="translate(2441.59375 0)"/>
     <use xlink:href="#DejaVuSans-Bold-73" transform="translate(2506.779297 0)"/>
     <use xlink:href="#DejaVuSans-Bold-20" transform="translate(2566.300781 0)"/>
     <use xlink:href="#DejaVuSans-Bold-4d" transform="translate(2601.115234 0)"/>
     <use xlink:href="#DejaVuSans-Bold-43" transform="translate(2700.626953 0)"/>
     <use xlink:href="#DejaVuSans-Bold-57" transform="translate(2774.015625 0)"/>
     <use xlink:href="#DejaVuSans-Bold-46" transform="translate(2884.318359 0)"/>
     <use xlink:href="#DejaVuSans-Bold-20" transform="translate(2952.628906 0)"/>
     <use xlink:href="#DejaVuSans-Bold-53" transform="translate(2987.443359 0)"/>
     <use xlink:href="#DejaVuSans-Bold-69" transform="translate(3059.464844 0)"/>
     <use xlink:href="#DejaVuSans-Bold-6d" transform="translate(3093.742188 0)"/>
     <use xlink:href="#DejaVuSans-Bold-75" transform="translate(3197.941406 0)"/>
     <use xlink:href="#DejaVuSans-Bold-6c" transform="translate(3269.132812 0)"/>
     <use xlink:href="#DejaVuSans-Bold-61" transform="translate(3303.410156 0)"/>
     <use xlink:href="#DejaVuSans-Bold-74" transform="translate(3370.890625 0)"/>
     <use xlink:href="#DejaVuSans-Bold-69" transform="translate(3418.693359 0)"/>
     <use xlink:href="#DejaVuSans-Bold-6f" transform="translate(3452.970703 0)"/>
     <use xlink:href="#DejaVuSans-Bold-6e" transform="translate(3521.671875 0)"/>
     <use xlink:href="#DejaVuSans-Bold-73" transform="translate(3592.863281 0)"/>
    </g>
   </g>
   <g id="line2d_42">
    <path d="M 71.461564 369.150425 
L 107.198174 369.148271 
L 142.934784 369.149707 
L 178.671394 369.145638 
L 214.408004 369.143596 
L 250.144613 369.141698 
L 285.881223 369.156296 
L 321.617833 369.195384 
L 357.354443 369.165344 
L 393.091052 369.044513 
L 428.827662 368.785751 
L 464.564272 368.492476 
L 500.300882 368.126288 
L 536.037492 366.714369 
L 571.774101 365.40892 
" clip-path="url(#p33bcfced91)" style="fill: none; stroke-dasharray: 7.4,3.2; stroke-dashoffset: 0; stroke: #eb6834; stroke-width: 2"/>
    <defs>
     <path id="m2f90fa5685" d="M -3.25 3.25 
L 3.25 3.25 
L 3.25 -3.25 
L -3.25 -3.25 
z
" style="stroke: #fcfcfb; stroke-linejoin: miter"/>
    </defs>
    <g clip-path="url(#p33bcfced91)">
     <use xlink:href="#m2f90fa5685" x="71.461564" y="369.150425" style="fill: #eb6834; stroke: #fcfcfb; stroke-linejoin: miter"/>
     <use xlink:href="#m2f90fa5685" x="107.198174" y="369.148271" style="fill: #eb6834; stroke: #fcfcfb; stroke-linejoin: miter"/>
     <use xlink:href="#m2f90fa5685" x="142.934784" y="369.149707" style="fill: #eb6834; stroke: #fcfcfb; stroke-linejoin: miter"/>
     <use xlink:href="#m2f90fa5685" x="178.671394" y="369.145638" style="fill: #eb6834; stroke: #fcfcfb; stroke-linejoin: miter"/>
     <use xlink:href="#m2f90fa5685" x="214.408004" y="369.143596" style="fill: #eb6834; stroke: #fcfcfb; stroke-linejoin: miter"/>
     <use xlink:href="#m2f90fa5685" x="250.144613" y="369.141698" style="fill: #eb6834; stroke: #fcfcfb; stroke-linejoin: miter"/>
     <use xlink:href="#m2f90fa5685" x="285.881223" y="369.156296" style="fill: #eb6834; stroke: #fcfcfb; stroke-linejoin: miter"/>
     <use xlink:href="#m2f90fa5685" x="321.617833" y="369.195384" style="fill: #eb6834; stroke: #fcfcfb; stroke-linejoin: miter"/>
     <use xlink:href="#m2f90fa5685" x="357.354443" y="369.165344" style="fill: #eb6834; stroke: #fcfcfb; stroke-linejoin: miter"/>
     <use xlink:href="#m2f90fa5685" x="393.091052" y="369.044513" style="fill: #eb6834; stroke: #fcfcfb; stroke-linejoin: miter"/>
     <use xlink:href="#m2f90fa5685" x="428.827662" y="368.785751" style="fill: #eb6834; stroke: #fcfcfb; stroke-linejoin: miter"/>
     <use xlink:href="#m2f90fa5685" x="464.564272" y="368.492476" style="fill: #eb6834; stroke: #fcfcfb; stroke-linejoin: miter"/>
     <use xlink:href="#m2f90fa5685" x="500.300882" y="368.126288" style="fill: #eb6834; stroke: #fcfcfb; stroke-linejoin: miter"/>
     <use xlink:href="#m2f90fa5685" x="536.037492" y="366.714369" style="fill: #eb6834; stroke: #fcfcfb; stroke-linejoin: miter"/>
     <use xlink:href="#m2f90fa5685" x="571.774101" y="365.40892" style="fill: #eb6834; stroke: #fcfcfb; stroke-linejoin: miter"/>
    </g>
   </g>
   <g id="line2d_43">
    <path d="M 71.461564 369.165072 
L 107.198174 369.160493 
L 142.934784 369.140167 
L 178.671394 369.153025 
L 214.408004 369.161195 
L 250.144613 369.145686 
L 285.881223 369.174903 
L 321.617833 369.19473 
L 357.354443 369.146851 
L 393.091052 368.9925 
L 428.827662 368.694962 
L 464.564272 368.414141 
L 500.300882 367.708001 
L 536.037492 362.012376 
L 571.774101 356.469718 
" clip-path="url(#p33bcfced91)" style="fill: none; stroke-dasharray: 2,3.3; stroke-dashoffset: 0; stroke: #1baf7a; stroke-width: 2"/>
    <defs>
     <path id="mfe987ce499" d="M 0 -3.25 
L -3.25 3.25 
L 3.25 3.25 
z
" style="stroke: #fcfcfb; stroke-linejoin: miter"/>
    </defs>
    <g clip-path="url(#p33bcfced91)">
     <use xlink:href="#mfe987ce499" x="71.461564" y="369.165072" style="fill: #1baf7a; stroke: #fcfcfb; stroke-linejoin: miter"/>
     <use xlink:href="#mfe987ce499" x="107.198174" y="369.160493" style="fill: #1baf7a; stroke: #fcfcfb; stroke-linejoin: miter"/>
     <use xlink:href="#mfe987ce499" x="142.934784" y="369.140167" style="fill: #1baf7a; stroke: #fcfcfb; stroke-linejoin: miter"/>
     <use xlink:href="#mfe987ce499" x="178.671394" y="369.153025" style="fill: #1baf7a; stroke: #fcfcfb; stroke-linejoin: miter"/>
     <use xlink:href="#mfe987ce499" x="214.408004" y="369.161195" style="fill: #1baf7a; stroke: #fcfcfb; stroke-linejoin: miter"/>
     <use xlink:href="#mfe987ce499" x="250.144613" y="369.145686" style="fill: #1baf7a; stroke: #fcfcfb; stroke-linejoin: miter"/>
     <use xlink:href="#mfe987ce499" x="285.881223" y="369.174903" style="fill: #1baf7a; stroke: #fcfcfb; stroke-linejoin: miter"/>
     <use xlink:href="#mfe987ce499" x="321.617833" y="369.19473" style="fill: #1baf7a; stroke: #fcfcfb; stroke-linejoin: miter"/>
     <use xlink:href="#mfe987ce499" x="357.354443" y="369.146851" style="fill: #1baf7a; stroke: #fcfcfb; stroke-linejoin: miter"/>
     <use xlink:href="#mfe987ce499" x="393.091052" y="368.9925" style="fill: #1baf7a; stroke: #fcfcfb; stroke-linejoin: miter"/>
     <use xlink:href="#mfe987ce499" x="428.827662" y="368.694962" style="fill: #1baf7a; stroke: #fcfcfb; stroke-linejoin: miter"/>
     <use xlink:href="#mfe987ce499" x="464.564272" y="368.414141" style="fill: #1baf7a; stroke: #fcfcfb; stroke-linejoin: miter"/>
     <use xlink:href="#mfe987ce499" x="500.300882" y="367.708001" style="fill: #1baf7a; stroke: #fcfcfb; stroke-linejoin: miter"/>
     <use xlink:href="#mfe987ce499" x="536.037492" y="362.012376" style="fill: #1baf7a; stroke: #fcfcfb; stroke-linejoin: miter"/>
     <use xlink:href="#mfe987ce499" x="571.774101" y="356.469718" style="fill: #1baf7a; stroke: #fcfcfb; stroke-linejoin: miter"/>
    </g>
   </g>
   <g id="line2d_44">
    <path d="M 71.461564 369.158307 
L 107.198174 369.144171 
L 142.934784 369.16595 
L 178.671394 369.152929 
L 214.408004 369.161801 
L 250.144613 369.137519 
L 285.881223 369.174903 
L 321.617833 369.200589 
L 357.354443 369.156232 
L 393.091052 369.008989 
L 428.827662 368.715634 
L 464.564272 368.365485 
L 500.300882 367.746334 
L 536.037492 362.036335 
L 571.774101 356.437631 
" clip-path="url(#p33bcfced91)" style="fill: none; stroke-dasharray: 12.8,3.2,2,3.2; stroke-dashoffset: 0; stroke: #4a3aa7; stroke-width: 2"/>
    <defs>
     <path id="mbf57d754da" d="M -0 4.596194 
L 4.596194 0 
L 0 -4.596194 
L -4.596194 -0 
z
" style="stroke: #fcfcfb; stroke-linejoin: miter"/>
    </defs>
    <g clip-path="url(#p33bcfced91)">
     <use xlink:href="#mbf57d754da" x="71.461564" y="369.158307" style="fill: #4a3aa7; stroke: #fcfcfb; stroke-linejoin: miter"/>
     <use xlink:href="#mbf57d754da" x="107.198174" y="369.144171" style="fill: #4a3aa7; stroke: #fcfcfb; stroke-linejoin: miter"/>
     <use xlink:href="#mbf57d754da" x="142.934784" y="369.16595" style="fill: #4a3aa7; stroke: #fcfcfb; stroke-linejoin: miter"/>
     <use xlink:href="#mbf57d754da" x="178.671394" y="369.152929" style="fill: #4a3aa7; stroke: #fcfcfb; stroke-linejoin: miter"/>
     <use xlink:href="#mbf57d754da" x="214.408004" y="369.161801" style="fill: #4a3aa7; stroke: #fcfcfb; stroke-linejoin: miter"/>
     <use xlink:href="#mbf57d754da" x="250.144613" y="369.137519" style="fill: #4a3aa7; stroke: #fcfcfb; stroke-linejoin: miter"/>
     <use xlink:href="#mbf57d754da" x="285.881223" y="369.174903" style="fill: #4a3aa7; stroke: #fcfcfb; stroke-linejoin: miter"/>
     <use xlink:href="#mbf57d754da" x="321.617833" y="369.200589" style="fill: #4a3aa7; stroke: #fcfcfb; stroke-linejoin: miter"/>
     <use xlink:href="#mbf57d754da" x="357.354443" y="369.156232" style="fill: #4a3aa7; stroke: #fcfcfb; stroke-linejoin: miter"/>
     <use xlink:href="#mbf57d754da" x="393.091052" y="369.008989" style="fill: #4a3aa7; stroke: #fcfcfb; stroke-linejoin: miter"/>
     <use xlink:href="#mbf57d754da" x="428.827662" y="368.715634" style="fill: #4a3aa7; stroke: #fcfcfb; stroke-linejoin: miter"/>
     <use xlink:href="#mbf57d754da" x="464.564272" y="368.365485" style="fill: #4a3aa7; stroke: #fcfcfb; stroke-linejoin: miter"/>
     <use xlink:href="#mbf57d754da" x="500.300882" y="367.746334" style="fill: #4a3aa7; stroke: #fcfcfb; stroke-linejoin: miter"/>
     <use xlink:href="#mbf57d754da" x="536.037492" y="362.036335" style="fill: #4a3aa7; stroke: #fcfcfb; stroke-linejoin: miter"/>
     <use xlink:href="#mbf57d754da" x="571.774101" y="356.437631" style="fill: #4a3aa7; stroke: #fcfcfb; stroke-linejoin: miter"/>
    </g>
   </g>
   <g id="line2d_45">
    <path d="M 71.461564 369.142272 
L 107.198174 369.14567 
L 142.934784 369.150281 
L 178.671394 369.141283 
L 214.408004 369.160477 
L 250.144613 369.146372 
L 285.881223 369.177361 
L 321.617833 369.18124 
L 357.354443 369.162232 
L 393.091052 369.004437 
L 428.827662 368.689197 
L 464.564272 368.427845 
L 500.300882 367.748674 
L 536.037492 362.038955 
L 571.774101 356.459949 
" clip-path="url(#p33bcfced91)" style="fill: none; stroke-dasharray: 6,2,2,2; stroke-dashoffset: 0; stroke: #e34948; stroke-width: 2"/>
    <defs>
     <path id="ma843821890" d="M -0 3.25 
L 3.25 -3.25 
L -3.25 -3.25 
z
" style="stroke: #fcfcfb; stroke-linejoin: miter"/>
    </defs>
    <g clip-path="url(#p33bcfced91)">
     <use xlink:href="#ma843821890" x="71.461564" y="369.142272" style="fill: #e34948; stroke: #fcfcfb; stroke-linejoin: miter"/>
     <use xlink:href="#ma843821890" x="107.198174" y="369.14567" style="fill: #e34948; stroke: #fcfcfb; stroke-linejoin: miter"/>
     <use xlink:href="#ma843821890" x="142.934784" y="369.150281" style="fill: #e34948; stroke: #fcfcfb; stroke-linejoin: miter"/>
     <use xlink:href="#ma843821890" x="178.671394" y="369.141283" style="fill: #e34948; stroke: #fcfcfb; stroke-linejoin: miter"/>
     <use xlink:href="#ma843821890" x="214.408004" y="369.160477" style="fill: #e34948; stroke: #fcfcfb; stroke-linejoin: miter"/>
     <use xlink:href="#ma843821890" x="250.144613" y="369.146372" style="fill: #e34948; stroke: #fcfcfb; stroke-linejoin: miter"/>
     <use xlink:href="#ma843821890" x="285.881223" y="369.177361" style="fill: #e34948; stroke: #fcfcfb; stroke-linejoin: miter"/>
     <use xlink:href="#ma843821890" x="321.617833" y="369.18124" style="fill: #e34948; stroke: #fcfcfb; stroke-linejoin: miter"/>
     <use xlink:href="#ma843821890" x="357.354443" y="369.162232" style="fill: #e34948; stroke: #fcfcfb; stroke-linejoin: miter"/>
     <use xlink:href="#ma843821890" x="393.091052" y="369.004437" style="fill: #e34948; stroke: #fcfcfb; stroke-linejoin: miter"/>
     <use xlink:href="#ma843821890" x="428.827662" y="368.689197" style="fill: #e34948; stroke: #fcfcfb; stroke-linejoin: miter"/>
     <use xlink:href="#ma843821890" x="464.564272" y="368.427845" style="fill: #e34948; stroke: #fcfcfb; stroke-linejoin: miter"/>
     <use xlink:href="#ma843821890" x="500.300882" y="367.748674" style="fill: #e34948; stroke: #fcfcfb; stroke-linejoin: miter"/>
     <use xlink:href="#ma843821890" x="536.037492" y="362.038955" style="fill: #e34948; stroke: #fcfcfb; stroke-linejoin: miter"/>
     <use xlink:href="#ma843821890" x="571.774101" y="356.459949" style="fill: #e34948; stroke: #fcfcfb; stroke-linejoin: miter"/>
    </g>
   </g>
   <g id="line2d_46">
    <path d="M 71.461564 368.732637 
L 107.198174 368.173816 
L 142.934784 367.631031 
L 178.671394 366.902103 
L 214.408004 366.074419 
L 250.144613 365.501093 
L 285.881223 365.026705 
L 321.617833 364.512795 
L 357.354443 363.5438 
L 393.091052 357.376054 
L 428.827662 335.654693 
L 464.564272 286.233188 
L 500.300882 214.783407 
L 536.037492 132.729004 
L 571.774101 47.191278 
" clip-path="url(#p33bcfced91)" style="fill: none; stroke: #2a78d6; stroke-width: 2; stroke-linecap: square"/>
    <defs>
     <path id="m3743fb33fa" d="M 0 3.25 
C 0.86191 3.25 1.688635 2.907559 2.298097 2.298097 
C 2.907559 1.688635 3.25 0.86191 3.25 0 
C 3.25 -0.86191 2.907559 -1.688635 2.298097 -2.298097 
C 1.688635 -2.907559 0.86191 -3.25 0 -3.25 
C -0.86191 -3.25 -1.688635 -2.907559 -2.298097 -2.298097 
C -2.907559 -1.688635 -3.25 -0.86191 -3.25 0 
C -3.25 0.86191 -2.907559 1.688635 -2.298097 2.298097 
C -1.688635 2.907559 -0.86191 3.25 0 3.25 
z
" style="stroke: #fcfcfb"/>
    </defs>
    <g clip-path="url(#p33bcfced91)">
     <use xlink:href="#m3743fb33fa" x="71.461564" y="368.732637" style="fill: #2a78d6; stroke: #fcfcfb"/>
     <use xlink:href="#m3743fb33fa" x="107.198174" y="368.173816" style="fill: #2a78d6; stroke: #fcfcfb"/>
     <use xlink:href="#m3743fb33fa" x="142.934784" y="367.631031" style="fill: #2a78d6; stroke: #fcfcfb"/>
     <use xlink:href="#m3743fb33fa" x="178.671394" y="366.902103" style="fill: #2a78d6; stroke: #fcfcfb"/>
     <use xlink:href="#m3743fb33fa" x="214.408004" y="366.074419" style="fill: #2a78d6; stroke: #fcfcfb"/>
     <use xlink:href="#m3743fb33fa" x="250.144613" y="365.501093" style="fill: #2a78d6; stroke: #fcfcfb"/>
     <use xlink:href="#m3743fb33fa" x="285.881223" y="365.026705" style="fill: #2a78d6; stroke: #fcfcfb"/>
     <use xlink:href="#m3743fb33fa" x="321.617833" y="364.512795" style="fill: #2a78d6; stroke: #fcfcfb"/>
     <use xlink:href="#m3743fb33fa" x="357.354443" y="363.5438" style="fill: #2a78d6; stroke: #fcfcfb"/>
     <use xlink:href="#m3743fb33fa" x="393.091052" y="357.376054" style="fill: #2a78d6; stroke: #fcfcfb"/>
     <use xlink:href="#m3743fb33fa" x="428.827662" y="335.654693" style="fill: #2a78d6; stroke: #fcfcfb"/>
     <use xlink:href="#m3743fb33fa" x="464.564272" y="286.233188" style="fill: #2a78d6; stroke: #fcfcfb"/>
     <use xlink:href="#m3743fb33fa" x="500.300882" y="214.783407" style="fill: #2a78d6; stroke: #fcfcfb"/>
     <use xlink:href="#m3743fb33fa" x="536.037492" y="132.729004" style="fill: #2a78d6; stroke: #fcfcfb"/>
     <use xlink:href="#m3743fb33fa" x="571.774101" y="47.191278" style="fill: #2a78d6; stroke: #fcfcfb"/>
    </g>
   </g>
   <g id="legend_1">
    <g id="line2d_47">
     <path d="M 611.796604 39.176406 
L 623.796604 39.176406 
L 635.796604 39.176406 
" style="fill: none; stroke: #2a78d6; stroke-width: 2; stroke-linecap: square"/>
     <g>
      <use xlink:href="#m3743fb33fa" x="623.796604" y="39.176406" style="fill: #2a78d6; stroke: #fcfcfb"/>
     </g>
    </g>
    <g id="text_14">
     <!-- Density Matrix -->
     <g style="fill: #52514e" transform="translate(643.796604 42.676406) scale(0.1 -0.1)">
      <defs>
       <path id="DejaVuSans-44" d="M 1259 4147 
L 1259 519 
L 2022 519 
Q 2988 519 3436 956 
Q 3884 1394 3884 2338 
Q 3884 3275 3436 3711 
Q 2988 4147 2022 4147 
L 1259 4147 
z
M 628 4666 
L 1925 4666 
Q 3281 4666 3915 4102 
Q 4550 3538 4550 2338 
Q 4550 1131 3912 565 
Q 3275 0 1925 0 
L 628 0 
L 628 4666 
z
" transform="scale(0.015625)"/>
       <path id="DejaVuSans-6e" d="M 3513 2113 
L 3513 0 
L 2938 0 
L 2938 2094 
Q 2938 2591 2744 2837 
Q 2550 3084 2163 3084 
Q 1697 3084 1428 2787 
Q 1159 2491 1159 1978 
L 1159 0 
L 581 0 
L 581 3500 
L 1159 3500 
L 1159 2956 
Q 1366 3272 1645 3428 
Q 1925 3584 2291 3584 
Q 2894 3584 3203 3211 
Q 3513 2838 3513 2113 
z
" transform="scale(0.015625)"/>
      </defs>
      <use xlink:href="#DejaVuSans-44"/>
      <use xlink:href="#DejaVuSans-65" transform="translate(77.001953 0)"/>
      <use xlink:href="#DejaVuSans-6e" transform="translate(138.525391 0)"/>
      <use xlink:href="#DejaVuSans-73" transform="translate(201.904297 0)"/>
      <use xlink:href="#DejaVuSans-69" transform="translate(254.003906 0)"/>
      <use xlink:href="#DejaVuSans-74" transform="translate(281.787109 0)"/>
      <use xlink:href="#DejaVuSans-79" transform="translate(320.996094 0)"/>
      <use xlink:href="#DejaVuSans-20" transform="translate(380.175781 0)"/>
      <use xlink:href="#DejaVuSans-4d" transform="translate(411.962891 0)"/>
      <use xlink:href="#DejaVuSans-61" transform="translate(498.242188 0)"/>
      <use xlink:href="#DejaVuSans-74" transform="translate(559.521484 0)"/>
      <use xlink:href="#DejaVuSans-72" transform="translate(598.730469 0)"/>
      <use xlink:href="#DejaVuSans-69" transform="translate(639.84375 0)"/>
      <use xlink:href="#DejaVuSans-78" transform="translate(667.626953 0)"/>
     </g>
    </g>
    <g id="line2d_48">
     <path d="M 611.796604 53.854531 
L 623.796604 53.854531 
L 635.796604 53.854531 
" style="fill: none; stroke-dasharray: 7.4,3.2; stroke-dashoffset: 0; stroke: #eb6834; stroke-width: 2"/>
     <g>
      <use xlink:href="#m2f90fa5685" x="623.796604" y="53.854531" style="fill: #eb6834; stroke: #fcfcfb; stroke-linejoin: miter"/>
     </g>
    </g>
    <g id="text_15">
     <!-- MCWF - 10 Trajectories -->
     <g style="fill: #52514e" transform="translate(643.796604 57.354531) scale(0.1 -0.1)">
      <defs>
       <path id="DejaVuSans-43" d="M 4122 4306 
L 4122 3641 
Q 3803 3938 3442 4084 
Q 3081 4231 2675 4231 
Q 1875 4231 1450 3742 
Q 1025 3253 1025 2328 
Q 1025 1406 1450 917 
Q 1875 428 2675 428 
Q 3081 428 3442 575 
Q 3803 722 4122 1019 
L 4122 359 
Q 3791 134 3420 21 
Q 3050 -91 2638 -91 
Q 1578 -91 968 557 
Q 359 1206 359 2328 
Q 359 3453 968 4101 
Q 1578 4750 2638 4750 
Q 3056 4750 3426 4639 
Q 3797 4528 4122 4306 
z
" transform="scale(0.015625)"/>
       <path id="DejaVuSans-57" d="M 213 4666 
L 850 4666 
L 1831 722 
L 2809 4666 
L 3519 4666 
L 4500 722 
L 5478 4666 
L 6119 4666 
L 4947 0 
L 4153 0 
L 3169 4050 
L 2175 0 
L 1381 0 
L 213 4666 
z
" transform="scale(0.015625)"/>
       <path id="DejaVuSans-46" d="M 628 4666 
L 3309 4666 
L 3309 4134 
L 1259 4134 
L 1259 2759 
L 3109 2759 
L 3109 2228 
L 1259 2228 
L 1259 0 
L 628 0 
L 628 4666 
z
" transform="scale(0.015625)"/>
       <path id="DejaVuSans-2d" d="M 313 2009 
L 1997 2009 
L 1997 1497 
L 313 1497 
L 313 2009 
z
" transform="scale(0.015625)"/>
       <path id="DejaVuSans-54" d="M -19 4666 
L 3928 4666 
L 3928 4134 
L 2272 4134 
L 2272 0 
L 1638 0 
L 1638 4134 
L -19 4134 
L -19 4666 
z
" transform="scale(0.015625)"/>
       <path id="DejaVuSans-6a" d="M 603 3500 
L 1178 3500 
L 1178 -63 
Q 1178 -731 923 -1031 
Q 669 -1331 103 -1331 
L -116 -1331 
L -116 -844 
L 38 -844 
Q 366 -844 484 -692 
Q 603 -541 603 -63 
L 603 3500 
z
M 603 4863 
L 1178 4863 
L 1178 4134 
L 603 4134 
L 603 4863 
z
" transform="scale(0.015625)"/>
       <path id="DejaVuSans-63" d="M 3122 3366 
L 3122 2828 
Q 2878 2963 2633 3030 
Q 2388 3097 2138 3097 
Q 1578 3097 1268 2742 
Q 959 2388 959 1747 
Q 959 1106 1268 751 
Q 1578 397 2138 397 
Q 2388 397 2633 464 
Q 2878 531 3122 666 
L 3122 134 
Q 2881 22 2623 -34 
Q 2366 -91 2075 -91 
Q 1284 -91 818 406 
Q 353 903 353 1747 
Q 353 2603 823 3093 
Q 1294 3584 2113 3584 
Q 2378 3584 2631 3529 
Q 2884 3475 3122 3366 
z
" transform="scale(0.015625)"/>
      </defs>
      <use xlink:href="#DejaVuSans-4d"/>
      <use xlink:href="#DejaVuSans-43" transform="translate(86.279297 0)"/>
      <use xlink:href="#DejaVuSans-57" transform="translate(156.103516 0)"/>
      <use xlink:href="#DejaVuSans-46" transform="translate(254.980469 0)"/>
      <use xlink:href="#DejaVuSans-20" transform="translate(312.5 0)"/>
      <use xlink:href="#DejaVuSans-2d" transform="translate(344.287109 0)"/>
      <use xlink:href="#DejaVuSans-20" transform="translate(380.371094 0)"/>
      <use xlink:href="#DejaVuSans-31" transform="translate(412.158203 0)"/>
      <use xlink:href="#DejaVuSans-30" transform="translate(475.78125 0)"/>
      <use xlink:href="#DejaVuSans-20" transform="translate(539.404297 0)"/>
      <use xlink:href="#DejaVuSans-54" transform="translate(571.191406 0)"/>
      <use xlink:href="#DejaVuSans-72" transform="translate(617.525391 0)"/>
      <use xlink:href="#DejaVuSans-61" transform="translate(658.638672 0)"/>
      <use xlink:href="#DejaVuSans-6a" transform="translate(719.917969 0)"/>
      <use xlink:href="#DejaVuSans-65" transform="translate(747.701172 0)"/>
      <use xlink:href="#DejaVuSans-63" transform="translate(809.224609 0)"/>
      <use xlink:href="#DejaVuSans-74" transform="translate(864.205078 0)"/>
      <use xlink:href="#DejaVuSans-6f" transform="translate(903.414062 0)"/>
      <use xlink:href="#DejaVuSans-72" transform="translate(964.595703 0)"/>
      <use xlink:href="#DejaVuSans-69" transform="translate(1005.708984 0)"/>
      <use xlink:href="#DejaVuSans-65" transform="translate(1033.492188 0)"/>
      <use xlink:href="#DejaVuSans-73" transform="translate(1095.015625 0)"/>
     </g>
    </g>
    <g id="line2d_49">
     <path d="M 611.796604 68.532656 
L 623.796604 68.532656 
L 635.796604 68.532656 
" style="fill: none; stroke-dasharray: 2,3.3; stroke-dashoffset: 0; stroke: #1baf7a; stroke-width: 2"/>
     <g>
      <use xlink:href="#mfe987ce499" x="623.796604" y="68.532656" style="fill: #1baf7a; stroke: #fcfcfb; stroke-linejoin: miter"/>
     </g>
    </g>
    <g id="text_16">
     <!-- MCWF - 100 Trajectories -->
     <g style="fill: #52514e" transform="translate(643.796604 72.032656) scale(0.1 -0.1)">
      <use xlink:href="#DejaVuSans-4d"/>
      <use xlink:href="#DejaVuSans-43" transform="translate(86.279297 0)"/>
      <use xlink:href="#DejaVuSans-57" transform="translate(156.103516 0)"/>
      <use xlink:href="#DejaVuSans-46" transform="translate(254.980469 0)"/>
      <use xlink:href="#DejaVuSans-20" transform="translate(312.5 0)"/>
      <use xlink:href="#DejaVuSans-2d" transform="translate(344.287109 0)"/>
      <use xlink:href="#DejaVuSans-20" transform="translate(380.371094 0)"/>
      <use xlink:href="#DejaVuSans-31" transform="translate(412.158203 0)"/>
      <use xlink:href="#DejaVuSans-30" transform="translate(475.78125 0)"/>
      <use xlink:href="#DejaVuSans-30" transform="translate(539.404297 0)"/>
      <use xlink:href="#DejaVuSans-20" transform="translate(603.027344 0)"/>
      <use xlink:href="#DejaVuSans-54" transform="translate(634.814453 0)"/>
      <use xlink:href="#DejaVuSans-72" transform="translate(681.148438 0)"/>
      <use xlink:href="#DejaVuSans-61" transform="translate(722.261719 0)"/>
      <use xlink:href="#DejaVuSans-6a" transform="translate(783.541016 0)"/>
      <use xlink:href="#DejaVuSans-65" transform="translate(811.324219 0)"/>
      <use xlink:href="#DejaVuSans-63" transform="translate(872.847656 0)"/>
      <use xlink:href="#DejaVuSans-74" transform="translate(927.828125 0)"/>
      <use xlink:href="#DejaVuSans-6f" transform="translate(967.037109 0)"/>
      <use xlink:href="#DejaVuSans-72" transform="translate(1028.21875 0)"/>
      <use xlink:href="#DejaVuSans-69" transform="translate(1069.332031 0)"/>
      <use xlink:href="#DejaVuSans-65" transform="translate(1097.115234 0)"/>
      <use xlink:href="#DejaVuSans-73" transform="translate(1158.638672 0)"/>
     </g>
    </g>
    <g id="line2d_50">
     <path d="M 611.796604 83.210781 
L 623.796604 83.210781 
L 635.796604 83.210781 
" style="fill: none; stroke-dasharray: 12.8,3.2,2,3.2; stroke-dashoffset: 0; stroke: #4a3aa7; stroke-width: 2"/>
     <g>
      <use xlink:href="#mbf57d754da" x="623.796604" y="83.210781" style="fill: #4a3aa7; stroke: #fcfcfb; stroke-linejoin: miter"/>
     </g>
    </g>
    <g id="text_17">
     <!-- MCWF - 500 Trajectories -->
     <g style="fill: #52514e" transform="translate(643.796604 86.710781) scale(0.1 -0.1)">
      <defs>
       <path id="DejaVuSans-35" d="M 691 4666 
L 3169 4666 
L 3169 4134 
L 1269 4134 
L 1269 2991 
Q 1406 3038 1543 3061 
Q 1681 3084 1819 3084 
Q 2600 3084 3056 2656 
Q 3513 2228 3513 1497 
Q 3513 744 3044 326 
Q 2575 -91 1722 -91 
Q 1428 -91 1123 -41 
Q 819 9 494 109 
L 494 744 
Q 775 591 1075 516 
Q 1375 441 1709 441 
Q 2250 441 2565 725 
Q 2881 1009 2881 1497 
Q 2881 1984 2565 2268 
Q 2250 2553 1709 2553 
Q 1456 2553 1204 2497 
Q 953 2441 691 2322 
L 691 4666 
z
" transform="scale(0.015625)"/>
      </defs>
      <use xlink:href="#DejaVuSans-4d"/>
      <use xlink:href="#DejaVuSans-43" transform="translate(86.279297 0)"/>
      <use xlink:href="#DejaVuSans-57" transform="translate(156.103516 0)"/>
      <use xlink:href="#DejaVuSans-46" transform="translate(254.980469 0)"/>
      <use xlink:href="#DejaVuSans-20" transform="translate(312.5 0)"/>
      <use xlink:href="#DejaVuSans-2d" transform="translate(344.287109 0)"/>
      <use xlink:href="#DejaVuSans-20" transform="translate(380.371094 0)"/>
      <use xlink:href="#DejaVuSans-35" transform="translate(412.158203 0)"/>
      <use xlink:href="#DejaVuSans-30" transform="translate(475.78125 0)"/>
      <use xlink:href="#DejaVuSans-30" transform="translate(539.404297 0)"/>
      <use xlink:href="#DejaVuSans-20" transform="translate(603.027344 0)"/>
      <use xlink:href="#DejaVuSans-54" transform="translate(634.814453 0)"/>
      <use xlink:href="#DejaVuSans-72" transform="translate(681.148438 0)"/>
      <use xlink:href="#DejaVuSans-61" transform="translate(722.261719 0)"/>
      <use xlink:href="#DejaVuSans-6a" transform="translate(783.541016 0)"/>
      <use xlink:href="#DejaVuSans-65" transform="translate(811.324219 0)"/>
      <use xlink:href="#DejaVuSans-63" transform="translate(872.847656 0)"/>
      <use xlink:href="#DejaVuSans-74" transform="translate(927.828125 0)"/>
      <use xlink:href="#DejaVuSans-6f" transform="translate(967.037109 0)"/>
      <use xlink:href="#DejaVuSans-72" transform="translate(1028.21875 0)"/>
      <use xlink:href="#DejaVuSans-69" transform="translate(1069.332031 0)"/>
      <use xlink:href="#DejaVuSans-65" transform="translate(1097.115234 0)"/>
      <use xlink:href="#DejaVuSans-73" transform="translate(1158.638672 0)"/>
     </g>
    </g>
    <g id="line2d_51">
     <path d="M 611.796604 97.888906 
L 623.796604 97.888906 
L 635.796604 97.888906 
" style="fill: none; stroke-dasharray: 6,2,2,2; stroke-dashoffset: 0; stroke: #e34948; stroke-width: 2"/>
     <g>
      <use xlink:href="#ma843821890" x="623.796604" y="97.888906" style="fill: #e34948; stroke: #fcfcfb; stroke-linejoin: miter"/>
     </g>
    </g>
    <g id="text_18">
     <!-- MCWF - 1000 Trajectories -->
     <g style="fill: #52514e" transform="translate(643.796604 101.388906) scale(0.1 -0.1)">
      <use xlink:href="#DejaVuSans-4d"/>
      <use xlink:href="#DejaVuSans-43" transform="translate(86.279297 0)"/>
      <use xlink:href="#DejaVuSans-57" transform="translate(156.103516 0)"/>
      <use xlink:href="#DejaVuSans-46" transform="translate(254.980469 0)"/>
      <use xlink:href="#DejaVuSans-20" transform="translate(312.5 0)"/>
      <use xlink:href="#DejaVuSans-2d" transform="translate(344.287109 0)"/>
      <use xlink:href="#DejaVuSans-20" transform="translate(380.371094 0)"/>
      <use xlink:href="#DejaVuSans-31" transform="translate(412.158203 0)"/>
      <use xlink:href="#DejaVuSans-30" transform="translate(475.78125 0)"/>
      <use xlink:href="#DejaVuSans-30" transform="translate(539.404297 0)"/>
      <use xlink:href="#DejaVuSans-30" transform="translate(603.027344 0)"/>
      <use xlink:href="#DejaVuSans-20" transform="translate(666.650391 0)"/>
      <use xlink:href="#DejaVuSans-54" transform="translate(698.4375 0)"/>
      <use xlink:href="#DejaVuSans-72" transform="translate(744.771484 0)"/>
      <use xlink:href="#DejaVuSans-61" transform="translate(785.884766 0)"/>
      <use xlink:href="#DejaVuSans-6a" transform="translate(847.164062 0)"/>
      <use xlink:href="#DejaVuSans-65" transform="translate(874.947266 0)"/>
      <use xlink:href="#DejaVuSans-63" transform="translate(936.470703 0)"/>
      <use xlink:href="#DejaVuSans-74" transform="translate(991.451172 0)"/>
      <use xlink:href="#DejaVuSans-6f" transform="translate(1030.660156 0)"/>
      <use xlink:href="#DejaVuSans-72" transform="translate(1091.841797 0)"/>
      <use xlink:href="#DejaVuSans-69" transform="translate(1132.955078 0)"/>
      <use xlink:href="#DejaVuSans-65" transform="translate(1160.738281 0)"/>
      <use xlink:href="#DejaVuSans-73" transform="translate(1222.261719 0)"/>
     </g>
    </g>
   </g>
  </g>
 </g>
 <defs>
  <clipPath id="p33bcfced91">
   <rect x="46.445938" y="31.077969" width="550.343791" height="354.44"/>
  </clipPath>
 </defs>
</svg>
