<?xml version="1.0" encoding="utf-8" standalone="no"?>
<!DOCTYPE svg PUBLIC "-//W3C//DTD SVG 1.1//EN"
  "http://www.w3.org/Graphics/SVG/1.1/DTD/svg11.dtd">
<svg xmlns:xlink="http://www.w3.org/1999/xlink" width="783.393755pt" height="424.042031pt" viewBox="0 0 783.393755 424.042031" xmlns="http://www.w3.org/2000/svg" version="1.1">
 <metadata>
  <rdf:RDF xmlns:dc="http://purl.org/dc/elements/1.1/" xmlns:cc="http://creativecommons.org/ns#" xmlns:rdf="http://www.w3.org/1999/02/22-rdf-syntax-ns#">
   <cc:Work>
    <dc:type rdf:resource="http://purl.org/dc/dcmitype/StillImage"/>
    <dc:date>2026-07-13T20:17:05.723053</dc:date>
    <dc:format>image/svg+xml</dc:format>
    <dc:creator>
     <cc:Agent>
      <dc:title>Matplotlib v3.10.8, https://matplotlib.org/</dc:title>
     </cc:Agent>
    </dc:creator>
   </cc:Work>
  </rdf:RDF>
 </metadata>
 <defs>
  <style type="text/css">*{stroke-linejoin: round; stroke-linecap: butt}</style>
 </defs>
 <g id="figure_1">
  <g id="patch_1">
   <path d="M 0 424.042031 
L 783.393755 424.042031 
L 783.393755 0 
L 0 0 
z
" style="fill: #fcfcfb"/>
  </g>
  <g id="axes_1">
   <g id="patch_2">
    <path d="M 63.836563 385.517969 
L 638.480562 385.517969 
L 638.480562 31.077969 
L 63.836563 31.077969 
z
" style="fill: #fcfcfb"/>
   </g>
   <g id="matplotlib.axis_1">
    <g id="xtick_1">
     <g id="line2d_1">
      <path d="M 89.956744 385.517969 
L 89.956744 31.077969 
" clip-path="url(#p9da7e41184)" style="fill: none; stroke: #e1e0d9; stroke-width: 0.8; stroke-linecap: square"/>
     </g>
     <g id="line2d_2">
      <defs>
       <path id="m237fe3eaea" d="M 0 0 
L 0 3.5 
" style="stroke: #898781; stroke-width: 0.8"/>
      </defs>
      <g>
       <use xlink:href="#m237fe3eaea" x="89.956744" y="385.517969" style="fill: #898781; stroke: #898781; stroke-width: 0.8"/>
      </g>
     </g>
     <g id="text_1">
      <!-- 2 -->
      <g style="fill: #898781" transform="translate(86.775494 400.116406) scale(0.1 -0.1)">
       <defs>
        <path id="DejaVuSans-32" d="M 1228 531 
L 3431 531 
L 3431 0 
L 469 0 
L 469 531 
Q 828 903 1448 1529 
Q 2069 2156 2228 2338 
Q 2531 2678 2651 2914 
Q 2772 3150 2772 3378 
Q 2772 3750 2511 3984 
Q 2250 4219 1831 4219 
Q 1534 4219 1204 4116 
Q 875 4013 500 3803 
L 500 4441 
Q 881 4594 1212 4672 
Q 1544 4750 1819 4750 
Q 2544 4750 2975 4387 
Q 3406 4025 3406 3419 
Q 3406 3131 3298 2873 
Q 3191 2616 2906 2266 
Q 2828 2175 2409 1742 
Q 1991 1309 1228 531 
z
" transform="scale(0.015625)"/>
       </defs>
       <use xlink:href="#DejaVuSans-32"/>
      </g>
     </g>
    </g>
    <g id="xtick_2">
     <g id="line2d_3">
      <path d="M 164.585835 385.517969 
L 164.585835 31.077969 
" clip-path="url(#p9da7e41184)" style="fill: none; stroke: #e1e0d9; stroke-width: 0.8; stroke-linecap: square"/>
     </g>
     <g id="line2d_4">
      <g>
       <use xlink:href="#m237fe3eaea" x="164.585835" y="385.517969" style="fill: #898781; stroke: #898781; stroke-width: 0.8"/>
      </g>
     </g>
     <g id="text_2">
      <!-- 4 -->
      <g style="fill: #898781" transform="translate(161.404585 400.116406) scale(0.1 -0.1)">
       <defs>
        <path id="DejaVuSans-34" d="M 2419 4116 
L 825 1625 
L 2419 1625 
L 2419 4116 
z
M 2253 4666 
L 3047 4666 
L 3047 1625 
L 3713 1625 
L 3713 1100 
L 3047 1100 
L 3047 0 
L 2419 0 
L 2419 1100 
L 313 1100 
L 313 1709 
L 2253 4666 
z
" transform="scale(0.015625)"/>
       </defs>
       <use xlink:href="#DejaVuSans-34"/>
      </g>
     </g>
    </g>
    <g id="xtick_3">
     <g id="line2d_5">
      <path d="M 239.214926 385.517969 
L 239.214926 31.077969 
" clip-path="url(#p9da7e41184)" style="fill: none; stroke: #e1e0d9; stroke-width: 0.8; stroke-linecap: square"/>
     </g>
     <g id="line2d_6">
      <g>
       <use xlink:href="#m237fe3eaea" x="239.214926" y="385.517969" style="fill: #898781; stroke: #898781; stroke-width: 0.8"/>
      </g>
     </g>
     <g id="text_3">
      <!-- 6 -->
      <g style="fill: #898781" transform="translate(236.033676 400.116406) scale(0.1 -0.1)">
       <defs>
        <path id="DejaVuSans-36" d="M 2113 2584 
Q 1688 2584 1439 2293 
Q 1191 2003 1191 1497 
Q 1191 994 1439 701 
Q 1688 409 2113 409 
Q 2538 409 2786 701 
Q 3034 994 3034 1497 
Q 3034 2003 2786 2293 
Q 2538 2584 2113 2584 
z
M 3366 4563 
L 3366 3988 
Q 3128 4100 2886 4159 
Q 2644 4219 2406 4219 
Q 1781 4219 1451 3797 
Q 1122 3375 1075 2522 
Q 1259 2794 1537 2939 
Q 1816 3084 2150 3084 
Q 2853 3084 3261 2657 
Q 3669 2231 3669 1497 
Q 3669 778 3244 343 
Q 2819 -91 2113 -91 
Q 1303 -91 875 529 
Q 447 1150 447 2328 
Q 447 3434 972 4092 
Q 1497 4750 2381 4750 
Q 2619 4750 2861 4703 
Q 3103 4656 3366 4563 
z
" transform="scale(0.015625)"/>
       </defs>
       <use xlink:href="#DejaVuSans-36"/>
      </g>
     </g>
    </g>
    <g id="xtick_4">
     <g id="line2d_7">
      <path d="M 313.844017 385.517969 
L 313.844017 31.077969 
" clip-path="url(#p9da7e41184)" style="fill: none; stroke: #e1e0d9; stroke-width: 0.8; stroke-linecap: square"/>
     </g>
     <g id="line2d_8">
      <g>
       <use xlink:href="#m237fe3eaea" x="313.844017" y="385.517969" style="fill: #898781; stroke: #898781; stroke-width: 0.8"/>
      </g>
     </g>
     <g id="text_4">
      <!-- 8 -->
      <g style="fill: #898781" transform="translate(310.662767 400.116406) scale(0.1 -0.1)">
       <defs>
        <path id="DejaVuSans-38" d="M 2034 2216 
Q 1584 2216 1326 1975 
Q 1069 1734 1069 1313 
Q 1069 891 1326 650 
Q 1584 409 2034 409 
Q 2484 409 2743 651 
Q 3003 894 3003 1313 
Q 3003 1734 2745 1975 
Q 2488 2216 2034 2216 
z
M 1403 2484 
Q 997 2584 770 2862 
Q 544 3141 544 3541 
Q 544 4100 942 4425 
Q 1341 4750 2034 4750 
Q 2731 4750 3128 4425 
Q 3525 4100 3525 3541 
Q 3525 3141 3298 2862 
Q 3072 2584 2669 2484 
Q 3125 2378 3379 2068 
Q 3634 1759 3634 1313 
Q 3634 634 3220 271 
Q 2806 -91 2034 -91 
Q 1263 -91 848 271 
Q 434 634 434 1313 
Q 434 1759 690 2068 
Q 947 2378 1403 2484 
z
M 1172 3481 
Q 1172 3119 1398 2916 
Q 1625 2713 2034 2713 
Q 2441 2713 2670 2916 
Q 2900 3119 2900 3481 
Q 2900 3844 2670 4047 
Q 2441 4250 2034 4250 
Q 1625 4250 1398 4047 
Q 1172 3844 1172 3481 
z
" transform="scale(0.015625)"/>
       </defs>
       <use xlink:href="#DejaVuSans-38"/>
      </g>
     </g>
    </g>
    <g id="xtick_5">
     <g id="line2d_9">
      <path d="M 388.473108 385.517969 
L 388.473108 31.077969 
" clip-path="url(#p9da7e41184)" style="fill: none; stroke: #e1e0d9; stroke-width: 0.8; stroke-linecap: square"/>
     </g>
     <g id="line2d_10">
      <g>
       <use xlink:href="#m237fe3eaea" x="388.473108" y="385.517969" style="fill: #898781; stroke: #898781; stroke-width: 0.8"/>
      </g>
     </g>
     <g id="text_5">
      <!-- 10 -->
      <g style="fill: #898781" transform="translate(382.110608 400.116406) scale(0.1 -0.1)">
       <defs>
        <path id="DejaVuSans-31" d="M 794 531 
L 1825 531 
L 1825 4091 
L 703 3866 
L 703 4441 
L 1819 4666 
L 2450 4666 
L 2450 531 
L 3481 531 
L 3481 0 
L 794 0 
L 794 531 
z
" transform="scale(0.015625)"/>
        <path id="DejaVuSans-30" d="M 2034 4250 
Q 1547 4250 1301 3770 
Q 1056 3291 1056 2328 
Q 1056 1369 1301 889 
Q 1547 409 2034 409 
Q 2525 409 2770 889 
Q 3016 1369 3016 2328 
Q 3016 3291 2770 3770 
Q 2525 4250 2034 4250 
z
M 2034 4750 
Q 2819 4750 3233 4129 
Q 3647 3509 3647 2328 
Q 3647 1150 3233 529 
Q 2819 -91 2034 -91 
Q 1250 -91 836 529 
Q 422 1150 422 2328 
Q 422 3509 836 4129 
Q 1250 4750 2034 4750 
z
" transform="scale(0.015625)"/>
       </defs>
       <use xlink:href="#DejaVuSans-31"/>
       <use xlink:href="#DejaVuSans-30" transform="translate(63.623047 0)"/>
      </g>
     </g>
    </g>
    <g id="xtick_6">
     <g id="line2d_11">
      <path d="M 463.102199 385.517969 
L 463.102199 31.077969 
" clip-path="url(#p9da7e41184)" style="fill: none; stroke: #e1e0d9; stroke-width: 0.8; stroke-linecap: square"/>
     </g>
     <g id="line2d_12">
      <g>
       <use xlink:href="#m237fe3eaea" x="463.102199" y="385.517969" style="fill: #898781; stroke: #898781; stroke-width: 0.8"/>
      </g>
     </g>
     <g id="text_6">
      <!-- 12 -->
      <g style="fill: #898781" transform="translate(456.739699 400.116406) scale(0.1 -0.1)">
       <use xlink:href="#DejaVuSans-31"/>
       <use xlink:href="#DejaVuSans-32" transform="translate(63.623047 0)"/>
      </g>
     </g>
    </g>
    <g id="xtick_7">
     <g id="line2d_13">
      <path d="M 537.73129 385.517969 
L 537.73129 31.077969 
" clip-path="url(#p9da7e41184)" style="fill: none; stroke: #e1e0d9; stroke-width: 0.8; stroke-linecap: square"/>
     </g>
     <g id="line2d_14">
      <g>
       <use xlink:href="#m237fe3eaea" x="537.73129" y="385.517969" style="fill: #898781; stroke: #898781; stroke-width: 0.8"/>
      </g>
     </g>
     <g id="text_7">
      <!-- 14 -->
      <g style="fill: #898781" transform="translate(531.36879 400.116406) scale(0.1 -0.1)">
       <use xlink:href="#DejaVuSans-31"/>
       <use xlink:href="#DejaVuSans-34" transform="translate(63.623047 0)"/>
      </g>
     </g>
    </g>
    <g id="xtick_8">
     <g id="line2d_15">
      <path d="M 612.360381 385.517969 
L 612.360381 31.077969 
" clip-path="url(#p9da7e41184)" style="fill: none; stroke: #e1e0d9; stroke-width: 0.8; stroke-linecap: square"/>
     </g>
     <g id="line2d_16">
      <g>
       <use xlink:href="#m237fe3eaea" x="612.360381" y="385.517969" style="fill: #898781; stroke: #898781; stroke-width: 0.8"/>
      </g>
     </g>
     <g id="text_8">
      <!-- 16 -->
      <g style="fill: #898781" transform="translate(605.997881 400.116406) scale(0.1 -0.1)">
       <use xlink:href="#DejaVuSans-31"/>
       <use xlink:href="#DejaVuSans-36" transform="translate(63.623047 0)"/>
      </g>
     </g>
    </g>
    <g id="text_9">
     <!-- Number of Qubits -->
     <g style="fill: #52514e" transform="translate(302.410516 414.554375) scale(0.11 -0.11)">
      <defs>
       <path id="DejaVuSans-4e" d="M 628 4666 
L 1478 4666 
L 3547 763 
L 3547 4666 
L 4159 4666 
L 4159 0 
L 3309 0 
L 1241 3903 
L 1241 0 
L 628 0 
L 628 4666 
z
" transform="scale(0.015625)"/>
       <path id="DejaVuSans-75" d="M 544 1381 
L 544 3500 
L 1119 3500 
L 1119 1403 
Q 1119 906 1312 657 
Q 1506 409 1894 409 
Q 2359 409 2629 706 
Q 2900 1003 2900 1516 
L 2900 3500 
L 3475 3500 
L 3475 0 
L 2900 0 
L 2900 538 
Q 2691 219 2414 64 
Q 2138 -91 1772 -91 
Q 1169 -91 856 284 
Q 544 659 544 1381 
z
M 1991 3584 
L 1991 3584 
z
" transform="scale(0.015625)"/>
       <path id="DejaVuSans-6d" d="M 3328 2828 
Q 3544 3216 3844 3400 
Q 4144 3584 4550 3584 
Q 5097 3584 5394 3201 
Q 5691 2819 5691 2113 
L 5691 0 
L 5113 0 
L 5113 2094 
Q 5113 2597 4934 2840 
Q 4756 3084 4391 3084 
Q 3944 3084 3684 2787 
Q 3425 2491 3425 1978 
L 3425 0 
L 2847 0 
L 2847 2094 
Q 2847 2600 2669 2842 
Q 2491 3084 2119 3084 
Q 1678 3084 1418 2786 
Q 1159 2488 1159 1978 
L 1159 0 
L 581 0 
L 581 3500 
L 1159 3500 
L 1159 2956 
Q 1356 3278 1631 3431 
Q 1906 3584 2284 3584 
Q 2666 3584 2933 3390 
Q 3200 3197 3328 2828 
z
" transform="scale(0.015625)"/>
       <path id="DejaVuSans-62" d="M 3116 1747 
Q 3116 2381 2855 2742 
Q 2594 3103 2138 3103 
Q 1681 3103 1420 2742 
Q 1159 2381 1159 1747 
Q 1159 1113 1420 752 
Q 1681 391 2138 391 
Q 2594 391 2855 752 
Q 3116 1113 3116 1747 
z
M 1159 2969 
Q 1341 3281 1617 3432 
Q 1894 3584 2278 3584 
Q 2916 3584 3314 3078 
Q 3713 2572 3713 1747 
Q 3713 922 3314 415 
Q 2916 -91 2278 -91 
Q 1894 -91 1617 61 
Q 1341 213 1159 525 
L 1159 0 
L 581 0 
L 581 4863 
L 1159 4863 
L 1159 2969 
z
" transform="scale(0.015625)"/>
       <path id="DejaVuSans-65" d="M 3597 1894 
L 3597 1613 
L 953 1613 
Q 991 1019 1311 708 
Q 1631 397 2203 397 
Q 2534 397 2845 478 
Q 3156 559 3463 722 
L 3463 178 
Q 3153 47 2828 -22 
Q 2503 -91 2169 -91 
Q 1331 -91 842 396 
Q 353 884 353 1716 
Q 353 2575 817 3079 
Q 1281 3584 2069 3584 
Q 2775 3584 3186 3129 
Q 3597 2675 3597 1894 
z
M 3022 2063 
Q 3016 2534 2758 2815 
Q 2500 3097 2075 3097 
Q 1594 3097 1305 2825 
Q 1016 2553 972 2059 
L 3022 2063 
z
" transform="scale(0.015625)"/>
       <path id="DejaVuSans-72" d="M 2631 2963 
Q 2534 3019 2420 3045 
Q 2306 3072 2169 3072 
Q 1681 3072 1420 2755 
Q 1159 2438 1159 1844 
L 1159 0 
L 581 0 
L 581 3500 
L 1159 3500 
L 1159 2956 
Q 1341 3275 1631 3429 
Q 1922 3584 2338 3584 
Q 2397 3584 2469 3576 
Q 2541 3569 2628 3553 
L 2631 2963 
z
" transform="scale(0.015625)"/>
       <path id="DejaVuSans-20" transform="scale(0.015625)"/>
       <path id="DejaVuSans-6f" d="M 1959 3097 
Q 1497 3097 1228 2736 
Q 959 2375 959 1747 
Q 959 1119 1226 758 
Q 1494 397 1959 397 
Q 2419 397 2687 759 
Q 2956 1122 2956 1747 
Q 2956 2369 2687 2733 
Q 2419 3097 1959 3097 
z
M 1959 3584 
Q 2709 3584 3137 3096 
Q 3566 2609 3566 1747 
Q 3566 888 3137 398 
Q 2709 -91 1959 -91 
Q 1206 -91 779 398 
Q 353 888 353 1747 
Q 353 2609 779 3096 
Q 1206 3584 1959 3584 
z
" transform="scale(0.015625)"/>
       <path id="DejaVuSans-66" d="M 2375 4863 
L 2375 4384 
L 1825 4384 
Q 1516 4384 1395 4259 
Q 1275 4134 1275 3809 
L 1275 3500 
L 2222 3500 
L 2222 3053 
L 1275 3053 
L 1275 0 
L 697 0 
L 697 3053 
L 147 3053 
L 147 3500 
L 697 3500 
L 697 3744 
Q 697 4328 969 4595 
Q 1241 4863 1831 4863 
L 2375 4863 
z
" transform="scale(0.015625)"/>
       <path id="DejaVuSans-51" d="M 2522 4238 
Q 1834 4238 1429 3725 
Q 1025 3213 1025 2328 
Q 1025 1447 1429 934 
Q 1834 422 2522 422 
Q 3209 422 3611 934 
Q 4013 1447 4013 2328 
Q 4013 3213 3611 3725 
Q 3209 4238 2522 4238 
z
M 3406 84 
L 4238 -825 
L 3475 -825 
L 2784 -78 
Q 2681 -84 2626 -87 
Q 2572 -91 2522 -91 
Q 1538 -91 948 567 
Q 359 1225 359 2328 
Q 359 3434 948 4092 
Q 1538 4750 2522 4750 
Q 3503 4750 4090 4092 
Q 4678 3434 4678 2328 
Q 4678 1516 4351 937 
Q 4025 359 3406 84 
z
" transform="scale(0.015625)"/>
       <path id="DejaVuSans-69" d="M 603 3500 
L 1178 3500 
L 1178 0 
L 603 0 
L 603 3500 
z
M 603 4863 
L 1178 4863 
L 1178 4134 
L 603 4134 
L 603 4863 
z
" transform="scale(0.015625)"/>
       <path id="DejaVuSans-74" d="M 1172 4494 
L 1172 3500 
L 2356 3500 
L 2356 3053 
L 1172 3053 
L 1172 1153 
Q 1172 725 1289 603 
Q 1406 481 1766 481 
L 2356 481 
L 2356 0 
L 1766 0 
Q 1100 0 847 248 
Q 594 497 594 1153 
L 594 3053 
L 172 3053 
L 172 3500 
L 594 3500 
L 594 4494 
L 1172 4494 
z
" transform="scale(0.015625)"/>
       <path id="DejaVuSans-73" d="M 2834 3397 
L 2834 2853 
Q 2591 2978 2328 3040 
Q 2066 3103 1784 3103 
Q 1356 3103 1142 2972 
Q 928 2841 928 2578 
Q 928 2378 1081 2264 
Q 1234 2150 1697 2047 
L 1894 2003 
Q 2506 1872 2764 1633 
Q 3022 1394 3022 966 
Q 3022 478 2636 193 
Q 2250 -91 1575 -91 
Q 1294 -91 989 -36 
Q 684 19 347 128 
L 347 722 
Q 666 556 975 473 
Q 1284 391 1588 391 
Q 1994 391 2212 530 
Q 2431 669 2431 922 
Q 2431 1156 2273 1281 
Q 2116 1406 1581 1522 
L 1381 1569 
Q 847 1681 609 1914 
Q 372 2147 372 2553 
Q 372 3047 722 3315 
Q 1072 3584 1716 3584 
Q 2034 3584 2315 3537 
Q 2597 3491 2834 3397 
z
" transform="scale(0.015625)"/>
      </defs>
      <use xlink:href="#DejaVuSans-4e"/>
      <use xlink:href="#DejaVuSans-75" transform="translate(74.804688 0)"/>
      <use xlink:href="#DejaVuSans-6d" transform="translate(138.183594 0)"/>
      <use xlink:href="#DejaVuSans-62" transform="translate(235.595703 0)"/>
      <use xlink:href="#DejaVuSans-65" transform="translate(299.072266 0)"/>
      <use xlink:href="#DejaVuSans-72" transform="translate(360.595703 0)"/>
      <use xlink:href="#DejaVuSans-20" transform="translate(401.708984 0)"/>
      <use xlink:href="#DejaVuSans-6f" transform="translate(433.496094 0)"/>
      <use xlink:href="#DejaVuSans-66" transform="translate(494.677734 0)"/>
      <use xlink:href="#DejaVuSans-20" transform="translate(529.882812 0)"/>
      <use xlink:href="#DejaVuSans-51" transform="translate(561.669922 0)"/>
      <use xlink:href="#DejaVuSans-75" transform="translate(640.380859 0)"/>
      <use xlink:href="#DejaVuSans-62" transform="translate(703.759766 0)"/>
      <use xlink:href="#DejaVuSans-69" transform="translate(767.236328 0)"/>
      <use xlink:href="#DejaVuSans-74" transform="translate(795.019531 0)"/>
      <use xlink:href="#DejaVuSans-73" transform="translate(834.228516 0)"/>
     </g>
    </g>
   </g>
   <g id="matplotlib.axis_2">
    <g id="ytick_1">
     <g id="line2d_17">
      <path d="M 63.836563 385.517969 
L 638.480562 385.517969 
" clip-path="url(#p9da7e41184)" style="fill: none; stroke: #e1e0d9; stroke-width: 0.8; stroke-linecap: square"/>
     </g>
     <g id="line2d_18">
      <defs>
       <path id="m5a3f80d8ec" d="M 0 0 
L -3.5 0 
" style="stroke: #898781; stroke-width: 0.8"/>
      </defs>
      <g>
       <use xlink:href="#m5a3f80d8ec" x="63.836563" y="385.517969" style="fill: #898781; stroke: #898781; stroke-width: 0.8"/>
      </g>
     </g>
     <g id="text_10">
      <!-- 0.0000 -->
      <g style="fill: #898781" transform="translate(21.845938 389.317187) scale(0.1 -0.1)">
       <defs>
        <path id="DejaVuSans-2e" d="M 684 794 
L 1344 794 
L 1344 0 
L 684 0 
L 684 794 
z
" transform="scale(0.015625)"/>
       </defs>
       <use xlink:href="#DejaVuSans-30"/>
       <use xlink:href="#DejaVuSans-2e" transform="translate(63.623047 0)"/>
       <use xlink:href="#DejaVuSans-30" transform="translate(95.410156 0)"/>
       <use xlink:href="#DejaVuSans-30" transform="translate(159.033203 0)"/>
       <use xlink:href="#DejaVuSans-30" transform="translate(222.65625 0)"/>
       <use xlink:href="#DejaVuSans-30" transform="translate(286.279297 0)"/>
      </g>
     </g>
    </g>
    <g id="ytick_2">
     <g id="line2d_19">
      <path d="M 63.836563 337.9519 
L 638.480562 337.9519 
" clip-path="url(#p9da7e41184)" style="fill: none; stroke: #e1e0d9; stroke-width: 0.8; stroke-linecap: square"/>
     </g>
     <g id="line2d_20">
      <g>
       <use xlink:href="#m5a3f80d8ec" x="63.836563" y="337.9519" style="fill: #898781; stroke: #898781; stroke-width: 0.8"/>
      </g>
     </g>
     <g id="text_11">
      <!-- 0.0025 -->
      <g style="fill: #898781" transform="translate(21.845938 341.751118) scale(0.1 -0.1)">
       <defs>
        <path id="DejaVuSans-35" d="M 691 4666 
L 3169 4666 
L 3169 4134 
L 1269 4134 
L 1269 2991 
Q 1406 3038 1543 3061 
Q 1681 3084 1819 3084 
Q 2600 3084 3056 2656 
Q 3513 2228 3513 1497 
Q 3513 744 3044 326 
Q 2575 -91 1722 -91 
Q 1428 -91 1123 -41 
Q 819 9 494 109 
L 494 744 
Q 775 591 1075 516 
Q 1375 441 1709 441 
Q 2250 441 2565 725 
Q 2881 1009 2881 1497 
Q 2881 1984 2565 2268 
Q 2250 2553 1709 2553 
Q 1456 2553 1204 2497 
Q 953 2441 691 2322 
L 691 4666 
z
" transform="scale(0.015625)"/>
       </defs>
       <use xlink:href="#DejaVuSans-30"/>
       <use xlink:href="#DejaVuSans-2e" transform="translate(63.623047 0)"/>
       <use xlink:href="#DejaVuSans-30" transform="translate(95.410156 0)"/>
       <use xlink:href="#DejaVuSans-30" transform="translate(159.033203 0)"/>
       <use xlink:href="#DejaVuSans-32" transform="translate(222.65625 0)"/>
       <use xlink:href="#DejaVuSans-35" transform="translate(286.279297 0)"/>
      </g>
     </g>
    </g>
    <g id="ytick_3">
     <g id="line2d_21">
      <path d="M 63.836563 290.38583 
L 638.480562 290.38583 
" clip-path="url(#p9da7e41184)" style="fill: none; stroke: #e1e0d9; stroke-width: 0.8; stroke-linecap: square"/>
     </g>
     <g id="line2d_22">
      <g>
       <use xlink:href="#m5a3f80d8ec" x="63.836563" y="290.38583" style="fill: #898781; stroke: #898781; stroke-width: 0.8"/>
      </g>
     </g>
     <g id="text_12">
      <!-- 0.0050 -->
      <g style="fill: #898781" transform="translate(21.845938 294.185049) scale(0.1 -0.1)">
       <use xlink:href="#DejaVuSans-30"/>
       <use xlink:href="#DejaVuSans-2e" transform="translate(63.623047 0)"/>
       <use xlink:href="#DejaVuSans-30" transform="translate(95.410156 0)"/>
       <use xlink:href="#DejaVuSans-30" transform="translate(159.033203 0)"/>
       <use xlink:href="#DejaVuSans-35" transform="translate(222.65625 0)"/>
       <use xlink:href="#DejaVuSans-30" transform="translate(286.279297 0)"/>
      </g>
     </g>
    </g>
    <g id="ytick_4">
     <g id="line2d_23">
      <path d="M 63.836563 242.819761 
L 638.480562 242.819761 
" clip-path="url(#p9da7e41184)" style="fill: none; stroke: #e1e0d9; stroke-width: 0.8; stroke-linecap: square"/>
     </g>
     <g id="line2d_24">
      <g>
       <use xlink:href="#m5a3f80d8ec" x="63.836563" y="242.819761" style="fill: #898781; stroke: #898781; stroke-width: 0.8"/>
      </g>
     </g>
     <g id="text_13">
      <!-- 0.0075 -->
      <g style="fill: #898781" transform="translate(21.845938 246.61898) scale(0.1 -0.1)">
       <defs>
        <path id="DejaVuSans-37" d="M 525 4666 
L 3525 4666 
L 3525 4397 
L 1831 0 
L 1172 0 
L 2766 4134 
L 525 4134 
L 525 4666 
z
" transform="scale(0.015625)"/>
       </defs>
       <use xlink:href="#DejaVuSans-30"/>
       <use xlink:href="#DejaVuSans-2e" transform="translate(63.623047 0)"/>
       <use xlink:href="#DejaVuSans-30" transform="translate(95.410156 0)"/>
       <use xlink:href="#DejaVuSans-30" transform="translate(159.033203 0)"/>
       <use xlink:href="#DejaVuSans-37" transform="translate(222.65625 0)"/>
       <use xlink:href="#DejaVuSans-35" transform="translate(286.279297 0)"/>
      </g>
     </g>
    </g>
    <g id="ytick_5">
     <g id="line2d_25">
      <path d="M 63.836563 195.253692 
L 638.480562 195.253692 
" clip-path="url(#p9da7e41184)" style="fill: none; stroke: #e1e0d9; stroke-width: 0.8; stroke-linecap: square"/>
     </g>
     <g id="line2d_26">
      <g>
       <use xlink:href="#m5a3f80d8ec" x="63.836563" y="195.253692" style="fill: #898781; stroke: #898781; stroke-width: 0.8"/>
      </g>
     </g>
     <g id="text_14">
      <!-- 0.0100 -->
      <g style="fill: #898781" transform="translate(21.845938 199.052911) scale(0.1 -0.1)">
       <use xlink:href="#DejaVuSans-30"/>
       <use xlink:href="#DejaVuSans-2e" transform="translate(63.623047 0)"/>
       <use xlink:href="#DejaVuSans-30" transform="translate(95.410156 0)"/>
       <use xlink:href="#DejaVuSans-31" transform="translate(159.033203 0)"/>
       <use xlink:href="#DejaVuSans-30" transform="translate(222.65625 0)"/>
       <use xlink:href="#DejaVuSans-30" transform="translate(286.279297 0)"/>
      </g>
     </g>
    </g>
    <g id="ytick_6">
     <g id="line2d_27">
      <path d="M 63.836563 147.687623 
L 638.480562 147.687623 
" clip-path="url(#p9da7e41184)" style="fill: none; stroke: #e1e0d9; stroke-width: 0.8; stroke-linecap: square"/>
     </g>
     <g id="line2d_28">
      <g>
       <use xlink:href="#m5a3f80d8ec" x="63.836563" y="147.687623" style="fill: #898781; stroke: #898781; stroke-width: 0.8"/>
      </g>
     </g>
     <g id="text_15">
      <!-- 0.0125 -->
      <g style="fill: #898781" transform="translate(21.845938 151.486841) scale(0.1 -0.1)">
       <use xlink:href="#DejaVuSans-30"/>
       <use xlink:href="#DejaVuSans-2e" transform="translate(63.623047 0)"/>
       <use xlink:href="#DejaVuSans-30" transform="translate(95.410156 0)"/>
       <use xlink:href="#DejaVuSans-31" transform="translate(159.033203 0)"/>
       <use xlink:href="#DejaVuSans-32" transform="translate(222.65625 0)"/>
       <use xlink:href="#DejaVuSans-35" transform="translate(286.279297 0)"/>
      </g>
     </g>
    </g>
    <g id="ytick_7">
     <g id="line2d_29">
      <path d="M 63.836563 100.121553 
L 638.480562 100.121553 
" clip-path="url(#p9da7e41184)" style="fill: none; stroke: #e1e0d9; stroke-width: 0.8; stroke-linecap: square"/>
     </g>
     <g id="line2d_30">
      <g>
       <use xlink:href="#m5a3f80d8ec" x="63.836563" y="100.121553" style="fill: #898781; stroke: #898781; stroke-width: 0.8"/>
      </g>
     </g>
     <g id="text_16">
      <!-- 0.0150 -->
      <g style="fill: #898781" transform="translate(21.845938 103.920772) scale(0.1 -0.1)">
       <use xlink:href="#DejaVuSans-30"/>
       <use xlink:href="#DejaVuSans-2e" transform="translate(63.623047 0)"/>
       <use xlink:href="#DejaVuSans-30" transform="translate(95.410156 0)"/>
       <use xlink:href="#DejaVuSans-31" transform="translate(159.033203 0)"/>
       <use xlink:href="#DejaVuSans-35" transform="translate(222.65625 0)"/>
       <use xlink:href="#DejaVuSans-30" transform="translate(286.279297 0)"/>
      </g>
     </g>
    </g>
    <g id="ytick_8">
     <g id="line2d_31">
      <path d="M 63.836563 52.555484 
L 638.480562 52.555484 
" clip-path="url(#p9da7e41184)" style="fill: none; stroke: #e1e0d9; stroke-width: 0.8; stroke-linecap: square"/>
     </g>
     <g id="line2d_32">
      <g>
       <use xlink:href="#m5a3f80d8ec" x="63.836563" y="52.555484" style="fill: #898781; stroke: #898781; stroke-width: 0.8"/>
      </g>
     </g>
     <g id="text_17">
      <!-- 0.0175 -->
      <g style="fill: #898781" transform="translate(21.845938 56.354703) scale(0.1 -0.1)">
       <use xlink:href="#DejaVuSans-30"/>
       <use xlink:href="#DejaVuSans-2e" transform="translate(63.623047 0)"/>
       <use xlink:href="#DejaVuSans-30" transform="translate(95.410156 0)"/>
       <use xlink:href="#DejaVuSans-31" transform="translate(159.033203 0)"/>
       <use xlink:href="#DejaVuSans-37" transform="translate(222.65625 0)"/>
       <use xlink:href="#DejaVuSans-35" transform="translate(286.279297 0)"/>
      </g>
     </g>
    </g>
    <g id="text_18">
     <!-- JS Divergence -->
     <g style="fill: #52514e" transform="translate(15.558281 246.497187) rotate(-90) scale(0.11 -0.11)">
      <defs>
       <path id="DejaVuSans-4a" d="M 628 4666 
L 1259 4666 
L 1259 325 
Q 1259 -519 939 -900 
Q 619 -1281 -91 -1281 
L -331 -1281 
L -331 -750 
L -134 -750 
Q 284 -750 456 -515 
Q 628 -281 628 325 
L 628 4666 
z
" transform="scale(0.015625)"/>
       <path id="DejaVuSans-53" d="M 3425 4513 
L 3425 3897 
Q 3066 4069 2747 4153 
Q 2428 4238 2131 4238 
Q 1616 4238 1336 4038 
Q 1056 3838 1056 3469 
Q 1056 3159 1242 3001 
Q 1428 2844 1947 2747 
L 2328 2669 
Q 3034 2534 3370 2195 
Q 3706 1856 3706 1288 
Q 3706 609 3251 259 
Q 2797 -91 1919 -91 
Q 1588 -91 1214 -16 
Q 841 59 441 206 
L 441 856 
Q 825 641 1194 531 
Q 1563 422 1919 422 
Q 2459 422 2753 634 
Q 3047 847 3047 1241 
Q 3047 1584 2836 1778 
Q 2625 1972 2144 2069 
L 1759 2144 
Q 1053 2284 737 2584 
Q 422 2884 422 3419 
Q 422 4038 858 4394 
Q 1294 4750 2059 4750 
Q 2388 4750 2728 4690 
Q 3069 4631 3425 4513 
z
" transform="scale(0.015625)"/>
       <path id="DejaVuSans-44" d="M 1259 4147 
L 1259 519 
L 2022 519 
Q 2988 519 3436 956 
Q 3884 1394 3884 2338 
Q 3884 3275 3436 3711 
Q 2988 4147 2022 4147 
L 1259 4147 
z
M 628 4666 
L 1925 4666 
Q 3281 4666 3915 4102 
Q 4550 3538 4550 2338 
Q 4550 1131 3912 565 
Q 3275 0 1925 0 
L 628 0 
L 628 4666 
z
" transform="scale(0.015625)"/>
       <path id="DejaVuSans-76" d="M 191 3500 
L 800 3500 
L 1894 563 
L 2988 3500 
L 3597 3500 
L 2284 0 
L 1503 0 
L 191 3500 
z
" transform="scale(0.015625)"/>
       <path id="DejaVuSans-67" d="M 2906 1791 
Q 2906 2416 2648 2759 
Q 2391 3103 1925 3103 
Q 1463 3103 1205 2759 
Q 947 2416 947 1791 
Q 947 1169 1205 825 
Q 1463 481 1925 481 
Q 2391 481 2648 825 
Q 2906 1169 2906 1791 
z
M 3481 434 
Q 3481 -459 3084 -895 
Q 2688 -1331 1869 -1331 
Q 1566 -1331 1297 -1286 
Q 1028 -1241 775 -1147 
L 775 -588 
Q 1028 -725 1275 -790 
Q 1522 -856 1778 -856 
Q 2344 -856 2625 -561 
Q 2906 -266 2906 331 
L 2906 616 
Q 2728 306 2450 153 
Q 2172 0 1784 0 
Q 1141 0 747 490 
Q 353 981 353 1791 
Q 353 2603 747 3093 
Q 1141 3584 1784 3584 
Q 2172 3584 2450 3431 
Q 2728 3278 2906 2969 
L 2906 3500 
L 3481 3500 
L 3481 434 
z
" transform="scale(0.015625)"/>
       <path id="DejaVuSans-6e" d="M 3513 2113 
L 3513 0 
L 2938 0 
L 2938 2094 
Q 2938 2591 2744 2837 
Q 2550 3084 2163 3084 
Q 1697 3084 1428 2787 
Q 1159 2491 1159 1978 
L 1159 0 
L 581 0 
L 581 3500 
L 1159 3500 
L 1159 2956 
Q 1366 3272 1645 3428 
Q 1925 3584 2291 3584 
Q 2894 3584 3203 3211 
Q 3513 2838 3513 2113 
z
" transform="scale(0.015625)"/>
       <path id="DejaVuSans-63" d="M 3122 3366 
L 3122 2828 
Q 2878 2963 2633 3030 
Q 2388 3097 2138 3097 
Q 1578 3097 1268 2742 
Q 959 2388 959 1747 
Q 959 1106 1268 751 
Q 1578 397 2138 397 
Q 2388 397 2633 464 
Q 2878 531 3122 666 
L 3122 134 
Q 2881 22 2623 -34 
Q 2366 -91 2075 -91 
Q 1284 -91 818 406 
Q 353 903 353 1747 
Q 353 2603 823 3093 
Q 1294 3584 2113 3584 
Q 2378 3584 2631 3529 
Q 2884 3475 3122 3366 
z
" transform="scale(0.015625)"/>
      </defs>
      <use xlink:href="#DejaVuSans-4a"/>
      <use xlink:href="#DejaVuSans-53" transform="translate(29.492188 0)"/>
      <use xlink:href="#DejaVuSans-20" transform="translate(92.96875 0)"/>
      <use xlink:href="#DejaVuSans-44" transform="translate(124.755859 0)"/>
      <use xlink:href="#DejaVuSans-69" transform="translate(201.757812 0)"/>
      <use xlink:href="#DejaVuSans-76" transform="translate(229.541016 0)"/>
      <use xlink:href="#DejaVuSans-65" transform="translate(288.720703 0)"/>
      <use xlink:href="#DejaVuSans-72" transform="translate(350.244141 0)"/>
      <use xlink:href="#DejaVuSans-67" transform="translate(389.607422 0)"/>
      <use xlink:href="#DejaVuSans-65" transform="translate(453.083984 0)"/>
      <use xlink:href="#DejaVuSans-6e" transform="translate(514.607422 0)"/>
      <use xlink:href="#DejaVuSans-63" transform="translate(577.986328 0)"/>
      <use xlink:href="#DejaVuSans-65" transform="translate(632.966797 0)"/>
     </g>
    </g>
   </g>
   <g id="FillBetweenPolyCollection_1">
    <defs>
     <path id="mb9f9eb3a1e" d="M 89.956744 -360.742244 
L 89.956744 27.245609 
L 127.27129 -29.104332 
L 164.585835 -79.568071 
L 201.900381 -110.520294 
L 239.214926 -137.878468 
L 276.529472 -162.137025 
L 313.844017 -174.592945 
L 351.158563 -184.107652 
L 388.473108 -195.272644 
L 425.787653 -181.489709 
L 463.102199 -174.529868 
L 500.416744 -179.185535 
L 537.73129 -171.631098 
L 575.045835 -167.216805 
L 612.360381 -154.807479 
L 612.360381 -225.029524 
L 612.360381 -225.029524 
L 575.045835 -178.620135 
L 537.73129 -244.406428 
L 500.416744 -204.725985 
L 463.102199 -204.045496 
L 425.787653 -266.476229 
L 388.473108 -277.09 
L 351.158563 -223.371562 
L 313.844017 -234.082569 
L 276.529472 -248.027875 
L 239.214926 -263.388023 
L 201.900381 -250.553786 
L 164.585835 -276.955406 
L 127.27129 -243.553326 
L 89.956744 -360.742244 
z
"/>
    </defs>
    <g clip-path="url(#p9da7e41184)">
     <use xlink:href="#mb9f9eb3a1e" x="0" y="424.042031" style="fill: #eb6834; fill-opacity: 0.15"/>
    </g>
   </g>
   <g id="FillBetweenPolyCollection_2">
    <defs>
     <path id="md521b0611f" d="M 89.956744 -79.763623 
L 89.956744 -25.595474 
L 127.27129 -36.517495 
L 164.585835 -43.578061 
L 201.900381 -46.183028 
L 239.214926 -50.683302 
L 276.529472 -51.445204 
L 313.844017 -54.768915 
L 351.158563 -54.707367 
L 388.473108 -56.637488 
L 425.787653 -55.595144 
L 463.102199 -55.222816 
L 500.416744 -53.3981 
L 537.73129 -53.21347 
L 575.045835 -53.032896 
L 612.360381 -52.678168 
L 612.360381 -55.964947 
L 612.360381 -55.964947 
L 575.045835 -55.65329 
L 537.73129 -56.808896 
L 500.416744 -55.908069 
L 463.102199 -58.368546 
L 425.787653 -59.851908 
L 388.473108 -61.90169 
L 351.158563 -59.768825 
L 313.844017 -63.42521 
L 276.529472 -61.453187 
L 239.214926 -64.749069 
L 201.900381 -60.267411 
L 164.585835 -62.064413 
L 127.27129 -61.509059 
L 89.956744 -79.763623 
z
"/>
    </defs>
    <g clip-path="url(#p9da7e41184)">
     <use xlink:href="#md521b0611f" x="0" y="424.042031" style="fill: #1baf7a; fill-opacity: 0.15"/>
    </g>
   </g>
   <g id="FillBetweenPolyCollection_3">
    <defs>
     <path id="mdf41656b21" d="M 89.956744 -42.894144 
L 89.956744 -37.420031 
L 127.27129 -37.606665 
L 164.585835 -39.500352 
L 201.900381 -40.066367 
L 239.214926 -40.827767 
L 276.529472 -41.242783 
L 313.844017 -41.548609 
L 351.158563 -42.053102 
L 388.473108 -41.788148 
L 425.787653 -41.811273 
L 463.102199 -41.661884 
L 500.416744 -41.633757 
L 537.73129 -41.47139 
L 575.045835 -41.434321 
L 612.360381 -41.378253 
L 612.360381 -41.793059 
L 612.360381 -41.793059 
L 575.045835 -41.762665 
L 537.73129 -41.880639 
L 500.416744 -42.157902 
L 463.102199 -42.126978 
L 425.787653 -42.620439 
L 388.473108 -42.677762 
L 351.158563 -43.695408 
L 313.844017 -42.780738 
L 276.529472 -43.060653 
L 239.214926 -43.317773 
L 201.900381 -43.87454 
L 164.585835 -43.15693 
L 127.27129 -43.972037 
L 89.956744 -42.894144 
z
"/>
    </defs>
    <g clip-path="url(#p9da7e41184)">
     <use xlink:href="#mdf41656b21" x="0" y="424.042031" style="fill: #4a3aa7; fill-opacity: 0.15"/>
    </g>
   </g>
   <g id="FillBetweenPolyCollection_4">
    <defs>
     <path id="m08d92e8643" d="M 89.956744 -40.490118 
L 89.956744 -37.928072 
L 127.27129 -38.481556 
L 164.585835 -38.858283 
L 201.900381 -39.319916 
L 239.214926 -39.612554 
L 276.529472 -39.747033 
L 313.844017 -40.049797 
L 351.158563 -40.20478 
L 388.473108 -40.388178 
L 425.787653 -40.172692 
L 463.102199 -40.074194 
L 500.416744 -40.109924 
L 537.73129 -40.027813 
L 575.045835 -39.959433 
L 612.360381 -39.946904 
L 612.360381 -40.171188 
L 612.360381 -40.171188 
L 575.045835 -40.153525 
L 537.73129 -40.245478 
L 500.416744 -40.344332 
L 463.102199 -40.264445 
L 425.787653 -40.497811 
L 388.473108 -40.82744 
L 351.158563 -40.912053 
L 313.844017 -40.642596 
L 276.529472 -40.748828 
L 239.214926 -41.082712 
L 201.900381 -40.788163 
L 164.585835 -41.15221 
L 127.27129 -41.89377 
L 89.956744 -40.490118 
z
"/>
    </defs>
    <g clip-path="url(#p9da7e41184)">
     <use xlink:href="#m08d92e8643" x="0" y="424.042031" style="fill: #e34948; fill-opacity: 0.15"/>
    </g>
   </g>
   <g id="patch_3">
    <path d="M 63.836563 385.517969 
L 63.836563 31.077969 
" style="fill: none; stroke: #c3c2b7; stroke-width: 0.8; stroke-linejoin: miter; stroke-linecap: square"/>
   </g>
   <g id="patch_4">
    <path d="M 63.836563 385.517969 
L 638.480562 385.517969 
" style="fill: none; stroke: #c3c2b7; stroke-width: 0.8; stroke-linejoin: miter; stroke-linecap: square"/>
   </g>
   <g id="text_19">
    <!-- Fidelity Between Density Matrix Simulations Vs MCWF Simulations for Depth = 100 -->
    <g style="fill: #0b0b0b" transform="translate(45.462547 17.077969) scale(0.13 -0.13)">
     <defs>
      <path id="DejaVuSans-Bold-46" d="M 588 4666 
L 3834 4666 
L 3834 3756 
L 1791 3756 
L 1791 2888 
L 3713 2888 
L 3713 1978 
L 1791 1978 
L 1791 0 
L 588 0 
L 588 4666 
z
" transform="scale(0.015625)"/>
      <path id="DejaVuSans-Bold-69" d="M 538 3500 
L 1656 3500 
L 1656 0 
L 538 0 
L 538 3500 
z
M 538 4863 
L 1656 4863 
L 1656 3950 
L 538 3950 
L 538 4863 
z
" transform="scale(0.015625)"/>
      <path id="DejaVuSans-Bold-64" d="M 2919 2988 
L 2919 4863 
L 4044 4863 
L 4044 0 
L 2919 0 
L 2919 506 
Q 2688 197 2409 53 
Q 2131 -91 1766 -91 
Q 1119 -91 703 423 
Q 288 938 288 1747 
Q 288 2556 703 3070 
Q 1119 3584 1766 3584 
Q 2128 3584 2408 3439 
Q 2688 3294 2919 2988 
z
M 2181 722 
Q 2541 722 2730 984 
Q 2919 1247 2919 1747 
Q 2919 2247 2730 2509 
Q 2541 2772 2181 2772 
Q 1825 2772 1636 2509 
Q 1447 2247 1447 1747 
Q 1447 1247 1636 984 
Q 1825 722 2181 722 
z
" transform="scale(0.015625)"/>
      <path id="DejaVuSans-Bold-65" d="M 4031 1759 
L 4031 1441 
L 1416 1441 
Q 1456 1047 1700 850 
Q 1944 653 2381 653 
Q 2734 653 3104 758 
Q 3475 863 3866 1075 
L 3866 213 
Q 3469 63 3072 -14 
Q 2675 -91 2278 -91 
Q 1328 -91 801 392 
Q 275 875 275 1747 
Q 275 2603 792 3093 
Q 1309 3584 2216 3584 
Q 3041 3584 3536 3087 
Q 4031 2591 4031 1759 
z
M 2881 2131 
Q 2881 2450 2695 2645 
Q 2509 2841 2209 2841 
Q 1884 2841 1681 2658 
Q 1478 2475 1428 2131 
L 2881 2131 
z
" transform="scale(0.015625)"/>
      <path id="DejaVuSans-Bold-6c" d="M 538 4863 
L 1656 4863 
L 1656 0 
L 538 0 
L 538 4863 
z
" transform="scale(0.015625)"/>
      <path id="DejaVuSans-Bold-74" d="M 1759 4494 
L 1759 3500 
L 2913 3500 
L 2913 2700 
L 1759 2700 
L 1759 1216 
Q 1759 972 1856 886 
Q 1953 800 2241 800 
L 2816 800 
L 2816 0 
L 1856 0 
Q 1194 0 917 276 
Q 641 553 641 1216 
L 641 2700 
L 84 2700 
L 84 3500 
L 641 3500 
L 641 4494 
L 1759 4494 
z
" transform="scale(0.015625)"/>
      <path id="DejaVuSans-Bold-79" d="M 78 3500 
L 1197 3500 
L 2138 1125 
L 2938 3500 
L 4056 3500 
L 2584 -331 
Q 2363 -916 2067 -1148 
Q 1772 -1381 1288 -1381 
L 641 -1381 
L 641 -647 
L 991 -647 
Q 1275 -647 1404 -556 
Q 1534 -466 1606 -231 
L 1638 -134 
L 78 3500 
z
" transform="scale(0.015625)"/>
      <path id="DejaVuSans-Bold-20" transform="scale(0.015625)"/>
      <path id="DejaVuSans-Bold-42" d="M 2456 2859 
Q 2741 2859 2887 2984 
Q 3034 3109 3034 3353 
Q 3034 3594 2887 3720 
Q 2741 3847 2456 3847 
L 1791 3847 
L 1791 2859 
L 2456 2859 
z
M 2497 819 
Q 2859 819 3042 972 
Q 3225 1125 3225 1434 
Q 3225 1738 3044 1889 
Q 2863 2041 2497 2041 
L 1791 2041 
L 1791 819 
L 2497 819 
z
M 3616 2497 
Q 4003 2384 4215 2081 
Q 4428 1778 4428 1338 
Q 4428 663 3972 331 
Q 3516 0 2584 0 
L 588 0 
L 588 4666 
L 2394 4666 
Q 3366 4666 3802 4372 
Q 4238 4078 4238 3431 
Q 4238 3091 4078 2852 
Q 3919 2613 3616 2497 
z
" transform="scale(0.015625)"/>
      <path id="DejaVuSans-Bold-77" d="M 225 3500 
L 1313 3500 
L 1900 1088 
L 2491 3500 
L 3425 3500 
L 4013 1113 
L 4603 3500 
L 5691 3500 
L 4769 0 
L 3547 0 
L 2956 2406 
L 2369 0 
L 1147 0 
L 225 3500 
z
" transform="scale(0.015625)"/>
      <path id="DejaVuSans-Bold-6e" d="M 4056 2131 
L 4056 0 
L 2931 0 
L 2931 347 
L 2931 1631 
Q 2931 2084 2911 2256 
Q 2891 2428 2841 2509 
Q 2775 2619 2662 2680 
Q 2550 2741 2406 2741 
Q 2056 2741 1856 2470 
Q 1656 2200 1656 1722 
L 1656 0 
L 538 0 
L 538 3500 
L 1656 3500 
L 1656 2988 
Q 1909 3294 2193 3439 
Q 2478 3584 2822 3584 
Q 3428 3584 3742 3212 
Q 4056 2841 4056 2131 
z
" transform="scale(0.015625)"/>
      <path id="DejaVuSans-Bold-44" d="M 1791 3756 
L 1791 909 
L 2222 909 
Q 2959 909 3348 1275 
Q 3738 1641 3738 2338 
Q 3738 3031 3350 3393 
Q 2963 3756 2222 3756 
L 1791 3756 
z
M 588 4666 
L 1856 4666 
Q 2919 4666 3439 4514 
Q 3959 4363 4331 4000 
Q 4659 3684 4818 3271 
Q 4978 2859 4978 2338 
Q 4978 1809 4818 1395 
Q 4659 981 4331 666 
Q 3956 303 3431 151 
Q 2906 0 1856 0 
L 588 0 
L 588 4666 
z
" transform="scale(0.015625)"/>
      <path id="DejaVuSans-Bold-73" d="M 3272 3391 
L 3272 2541 
Q 2913 2691 2578 2766 
Q 2244 2841 1947 2841 
Q 1628 2841 1473 2761 
Q 1319 2681 1319 2516 
Q 1319 2381 1436 2309 
Q 1553 2238 1856 2203 
L 2053 2175 
Q 2913 2066 3209 1816 
Q 3506 1566 3506 1031 
Q 3506 472 3093 190 
Q 2681 -91 1863 -91 
Q 1516 -91 1145 -36 
Q 775 19 384 128 
L 384 978 
Q 719 816 1070 734 
Q 1422 653 1784 653 
Q 2113 653 2278 743 
Q 2444 834 2444 1013 
Q 2444 1163 2330 1236 
Q 2216 1309 1875 1350 
L 1678 1375 
Q 931 1469 631 1722 
Q 331 1975 331 2491 
Q 331 3047 712 3315 
Q 1094 3584 1881 3584 
Q 2191 3584 2531 3537 
Q 2872 3491 3272 3391 
z
" transform="scale(0.015625)"/>
      <path id="DejaVuSans-Bold-4d" d="M 588 4666 
L 2119 4666 
L 3181 2169 
L 4250 4666 
L 5778 4666 
L 5778 0 
L 4641 0 
L 4641 3413 
L 3566 897 
L 2803 897 
L 1728 3413 
L 1728 0 
L 588 0 
L 588 4666 
z
" transform="scale(0.015625)"/>
      <path id="DejaVuSans-Bold-61" d="M 2106 1575 
Q 1756 1575 1579 1456 
Q 1403 1338 1403 1106 
Q 1403 894 1545 773 
Q 1688 653 1941 653 
Q 2256 653 2472 879 
Q 2688 1106 2688 1447 
L 2688 1575 
L 2106 1575 
z
M 3816 1997 
L 3816 0 
L 2688 0 
L 2688 519 
Q 2463 200 2181 54 
Q 1900 -91 1497 -91 
Q 953 -91 614 226 
Q 275 544 275 1050 
Q 275 1666 698 1953 
Q 1122 2241 2028 2241 
L 2688 2241 
L 2688 2328 
Q 2688 2594 2478 2717 
Q 2269 2841 1825 2841 
Q 1466 2841 1156 2769 
Q 847 2697 581 2553 
L 581 3406 
Q 941 3494 1303 3539 
Q 1666 3584 2028 3584 
Q 2975 3584 3395 3211 
Q 3816 2838 3816 1997 
z
" transform="scale(0.015625)"/>
      <path id="DejaVuSans-Bold-72" d="M 3138 2547 
Q 2991 2616 2845 2648 
Q 2700 2681 2553 2681 
Q 2122 2681 1889 2404 
Q 1656 2128 1656 1613 
L 1656 0 
L 538 0 
L 538 3500 
L 1656 3500 
L 1656 2925 
Q 1872 3269 2151 3426 
Q 2431 3584 2822 3584 
Q 2878 3584 2943 3579 
Q 3009 3575 3134 3559 
L 3138 2547 
z
" transform="scale(0.015625)"/>
      <path id="DejaVuSans-Bold-78" d="M 1422 1791 
L 159 3500 
L 1344 3500 
L 2059 2463 
L 2784 3500 
L 3969 3500 
L 2706 1797 
L 4031 0 
L 2847 0 
L 2059 1106 
L 1281 0 
L 97 0 
L 1422 1791 
z
" transform="scale(0.015625)"/>
      <path id="DejaVuSans-Bold-53" d="M 3834 4519 
L 3834 3531 
Q 3450 3703 3084 3790 
Q 2719 3878 2394 3878 
Q 1963 3878 1756 3759 
Q 1550 3641 1550 3391 
Q 1550 3203 1689 3098 
Q 1828 2994 2194 2919 
L 2706 2816 
Q 3484 2659 3812 2340 
Q 4141 2022 4141 1434 
Q 4141 663 3683 286 
Q 3225 -91 2284 -91 
Q 1841 -91 1394 -6 
Q 947 78 500 244 
L 500 1259 
Q 947 1022 1364 901 
Q 1781 781 2169 781 
Q 2563 781 2772 912 
Q 2981 1044 2981 1288 
Q 2981 1506 2839 1625 
Q 2697 1744 2272 1838 
L 1806 1941 
Q 1106 2091 782 2419 
Q 459 2747 459 3303 
Q 459 4000 909 4375 
Q 1359 4750 2203 4750 
Q 2588 4750 2994 4692 
Q 3400 4634 3834 4519 
z
" transform="scale(0.015625)"/>
      <path id="DejaVuSans-Bold-6d" d="M 3781 2919 
Q 3994 3244 4286 3414 
Q 4578 3584 4928 3584 
Q 5531 3584 5847 3212 
Q 6163 2841 6163 2131 
L 6163 0 
L 5038 0 
L 5038 1825 
Q 5041 1866 5042 1909 
Q 5044 1953 5044 2034 
Q 5044 2406 4934 2573 
Q 4825 2741 4581 2741 
Q 4263 2741 4089 2478 
Q 3916 2216 3909 1719 
L 3909 0 
L 2784 0 
L 2784 1825 
Q 2784 2406 2684 2573 
Q 2584 2741 2328 2741 
Q 2006 2741 1831 2477 
Q 1656 2213 1656 1722 
L 1656 0 
L 531 0 
L 531 3500 
L 1656 3500 
L 1656 2988 
Q 1863 3284 2130 3434 
Q 2397 3584 2719 3584 
Q 3081 3584 3359 3409 
Q 3638 3234 3781 2919 
z
" transform="scale(0.015625)"/>
      <path id="DejaVuSans-Bold-75" d="M 500 1363 
L 500 3500 
L 1625 3500 
L 1625 3150 
Q 1625 2866 1622 2436 
Q 1619 2006 1619 1863 
Q 1619 1441 1641 1255 
Q 1663 1069 1716 984 
Q 1784 875 1895 815 
Q 2006 756 2150 756 
Q 2500 756 2700 1025 
Q 2900 1294 2900 1772 
L 2900 3500 
L 4019 3500 
L 4019 0 
L 2900 0 
L 2900 506 
Q 2647 200 2364 54 
Q 2081 -91 1741 -91 
Q 1134 -91 817 281 
Q 500 653 500 1363 
z
" transform="scale(0.015625)"/>
      <path id="DejaVuSans-Bold-6f" d="M 2203 2784 
Q 1831 2784 1636 2517 
Q 1441 2250 1441 1747 
Q 1441 1244 1636 976 
Q 1831 709 2203 709 
Q 2569 709 2762 976 
Q 2956 1244 2956 1747 
Q 2956 2250 2762 2517 
Q 2569 2784 2203 2784 
z
M 2203 3584 
Q 3106 3584 3614 3096 
Q 4122 2609 4122 1747 
Q 4122 884 3614 396 
Q 3106 -91 2203 -91 
Q 1297 -91 786 396 
Q 275 884 275 1747 
Q 275 2609 786 3096 
Q 1297 3584 2203 3584 
z
" transform="scale(0.015625)"/>
      <path id="DejaVuSans-Bold-56" d="M 31 4666 
L 1241 4666 
L 2478 1222 
L 3713 4666 
L 4922 4666 
L 3194 0 
L 1759 0 
L 31 4666 
z
" transform="scale(0.015625)"/>
      <path id="DejaVuSans-Bold-43" d="M 4288 256 
Q 3956 84 3597 -3 
Q 3238 -91 2847 -91 
Q 1681 -91 1000 561 
Q 319 1213 319 2328 
Q 319 3447 1000 4098 
Q 1681 4750 2847 4750 
Q 3238 4750 3597 4662 
Q 3956 4575 4288 4403 
L 4288 3438 
Q 3953 3666 3628 3772 
Q 3303 3878 2944 3878 
Q 2300 3878 1931 3465 
Q 1563 3053 1563 2328 
Q 1563 1606 1931 1193 
Q 2300 781 2944 781 
Q 3303 781 3628 887 
Q 3953 994 4288 1222 
L 4288 256 
z
" transform="scale(0.015625)"/>
      <path id="DejaVuSans-Bold-57" d="M 191 4666 
L 1344 4666 
L 2150 1275 
L 2950 4666 
L 4109 4666 
L 4909 1275 
L 5716 4666 
L 6859 4666 
L 5759 0 
L 4372 0 
L 3525 3547 
L 2688 0 
L 1300 0 
L 191 4666 
z
" transform="scale(0.015625)"/>
      <path id="DejaVuSans-Bold-66" d="M 2841 4863 
L 2841 4128 
L 2222 4128 
Q 1984 4128 1890 4042 
Q 1797 3956 1797 3744 
L 1797 3500 
L 2753 3500 
L 2753 2700 
L 1797 2700 
L 1797 0 
L 678 0 
L 678 2700 
L 122 2700 
L 122 3500 
L 678 3500 
L 678 3744 
Q 678 4316 997 4589 
Q 1316 4863 1984 4863 
L 2841 4863 
z
" transform="scale(0.015625)"/>
      <path id="DejaVuSans-Bold-70" d="M 1656 506 
L 1656 -1331 
L 538 -1331 
L 538 3500 
L 1656 3500 
L 1656 2988 
Q 1888 3294 2169 3439 
Q 2450 3584 2816 3584 
Q 3463 3584 3878 3070 
Q 4294 2556 4294 1747 
Q 4294 938 3878 423 
Q 3463 -91 2816 -91 
Q 2450 -91 2169 54 
Q 1888 200 1656 506 
z
M 2400 2772 
Q 2041 2772 1848 2508 
Q 1656 2244 1656 1747 
Q 1656 1250 1848 986 
Q 2041 722 2400 722 
Q 2759 722 2948 984 
Q 3138 1247 3138 1747 
Q 3138 2247 2948 2509 
Q 2759 2772 2400 2772 
z
" transform="scale(0.015625)"/>
      <path id="DejaVuSans-Bold-68" d="M 4056 2131 
L 4056 0 
L 2931 0 
L 2931 347 
L 2931 1625 
Q 2931 2084 2911 2256 
Q 2891 2428 2841 2509 
Q 2775 2619 2662 2680 
Q 2550 2741 2406 2741 
Q 2056 2741 1856 2470 
Q 1656 2200 1656 1722 
L 1656 0 
L 538 0 
L 538 4863 
L 1656 4863 
L 1656 2988 
Q 1909 3294 2193 3439 
Q 2478 3584 2822 3584 
Q 3428 3584 3742 3212 
Q 4056 2841 4056 2131 
z
" transform="scale(0.015625)"/>
      <path id="DejaVuSans-Bold-3d" d="M 678 3084 
L 4684 3084 
L 4684 2350 
L 678 2350 
L 678 3084 
z
M 678 1663 
L 4684 1663 
L 4684 922 
L 678 922 
L 678 1663 
z
" transform="scale(0.015625)"/>
      <path id="DejaVuSans-Bold-31" d="M 750 831 
L 1813 831 
L 1813 3847 
L 722 3622 
L 722 4441 
L 1806 4666 
L 2950 4666 
L 2950 831 
L 4013 831 
L 4013 0 
L 750 0 
L 750 831 
z
" transform="scale(0.015625)"/>
      <path id="DejaVuSans-Bold-30" d="M 2944 2338 
Q 2944 3213 2780 3570 
Q 2616 3928 2228 3928 
Q 1841 3928 1675 3570 
Q 1509 3213 1509 2338 
Q 1509 1453 1675 1090 
Q 1841 728 2228 728 
Q 2613 728 2778 1090 
Q 2944 1453 2944 2338 
z
M 4147 2328 
Q 4147 1169 3647 539 
Q 3147 -91 2228 -91 
Q 1306 -91 806 539 
Q 306 1169 306 2328 
Q 306 3491 806 4120 
Q 1306 4750 2228 4750 
Q 3147 4750 3647 4120 
Q 4147 3491 4147 2328 
z
" transform="scale(0.015625)"/>
     </defs>
     <use xlink:href="#DejaVuSans-Bold-46"/>
     <use xlink:href="#DejaVuSans-Bold-69" transform="translate(68.310547 0)"/>
     <use xlink:href="#DejaVuSans-Bold-64" transform="translate(102.587891 0)"/>
     <use xlink:href="#DejaVuSans-Bold-65" transform="translate(174.169922 0)"/>
     <use xlink:href="#DejaVuSans-Bold-6c" transform="translate(241.992188 0)"/>
     <use xlink:href="#DejaVuSans-Bold-69" transform="translate(276.269531 0)"/>
     <use xlink:href="#DejaVuSans-Bold-74" transform="translate(310.546875 0)"/>
     <use xlink:href="#DejaVuSans-Bold-79" transform="translate(358.349609 0)"/>
     <use xlink:href="#DejaVuSans-Bold-20" transform="translate(423.535156 0)"/>
     <use xlink:href="#DejaVuSans-Bold-42" transform="translate(458.349609 0)"/>
     <use xlink:href="#DejaVuSans-Bold-65" transform="translate(534.570312 0)"/>
     <use xlink:href="#DejaVuSans-Bold-74" transform="translate(602.392578 0)"/>
     <use xlink:href="#DejaVuSans-Bold-77" transform="translate(650.195312 0)"/>
     <use xlink:href="#DejaVuSans-Bold-65" transform="translate(742.578125 0)"/>
     <use xlink:href="#DejaVuSans-Bold-65" transform="translate(810.400391 0)"/>
     <use xlink:href="#DejaVuSans-Bold-6e" transform="translate(878.222656 0)"/>
     <use xlink:href="#DejaVuSans-Bold-20" transform="translate(949.414062 0)"/>
     <use xlink:href="#DejaVuSans-Bold-44" transform="translate(984.228516 0)"/>
     <use xlink:href="#DejaVuSans-Bold-65" transform="translate(1067.236328 0)"/>
     <use xlink:href="#DejaVuSans-Bold-6e" transform="translate(1135.058594 0)"/>
     <use xlink:href="#DejaVuSans-Bold-73" transform="translate(1206.25 0)"/>
     <use xlink:href="#DejaVuSans-Bold-69" transform="translate(1265.771484 0)"/>
     <use xlink:href="#DejaVuSans-Bold-74" transform="translate(1300.048828 0)"/>
     <use xlink:href="#DejaVuSans-Bold-79" transform="translate(1347.851562 0)"/>
     <use xlink:href="#DejaVuSans-Bold-20" transform="translate(1413.037109 0)"/>
     <use xlink:href="#DejaVuSans-Bold-4d" transform="translate(1447.851562 0)"/>
     <use xlink:href="#DejaVuSans-Bold-61" transform="translate(1547.363281 0)"/>
     <use xlink:href="#DejaVuSans-Bold-74" transform="translate(1614.84375 0)"/>
     <use xlink:href="#DejaVuSans-Bold-72" transform="translate(1662.646484 0)"/>
     <use xlink:href="#DejaVuSans-Bold-69" transform="translate(1711.962891 0)"/>
     <use xlink:href="#DejaVuSans-Bold-78" transform="translate(1746.240234 0)"/>
     <use xlink:href="#DejaVuSans-Bold-20" transform="translate(1810.742188 0)"/>
     <use xlink:href="#DejaVuSans-Bold-53" transform="translate(1845.556641 0)"/>
     <use xlink:href="#DejaVuSans-Bold-69" transform="translate(1917.578125 0)"/>
     <use xlink:href="#DejaVuSans-Bold-6d" transform="translate(1951.855469 0)"/>
     <use xlink:href="#DejaVuSans-Bold-75" transform="translate(2056.054688 0)"/>
     <use xlink:href="#DejaVuSans-Bold-6c" transform="translate(2127.246094 0)"/>
     <use xlink:href="#DejaVuSans-Bold-61" transform="translate(2161.523438 0)"/>
     <use xlink:href="#DejaVuSans-Bold-74" transform="translate(2229.003906 0)"/>
     <use xlink:href="#DejaVuSans-Bold-69" transform="translate(2276.806641 0)"/>
     <use xlink:href="#DejaVuSans-Bold-6f" transform="translate(2311.083984 0)"/>
     <use xlink:href="#DejaVuSans-Bold-6e" transform="translate(2379.785156 0)"/>
     <use xlink:href="#DejaVuSans-Bold-73" transform="translate(2450.976562 0)"/>
     <use xlink:href="#DejaVuSans-Bold-20" transform="translate(2510.498047 0)"/>
     <use xlink:href="#DejaVuSans-Bold-56" transform="translate(2545.3125 0)"/>
     <use xlink:href="#DejaVuSans-Bold-73" transform="translate(2622.705078 0)"/>
     <use xlink:href="#DejaVuSans-Bold-20" transform="translate(2682.226562 0)"/>
     <use xlink:href="#DejaVuSans-Bold-4d" transform="translate(2717.041016 0)"/>
     <use xlink:href="#DejaVuSans-Bold-43" transform="translate(2816.552734 0)"/>
     <use xlink:href="#DejaVuSans-Bold-57" transform="translate(2889.941406 0)"/>
     <use xlink:href="#DejaVuSans-Bold-46" transform="translate(3000.244141 0)"/>
     <use xlink:href="#DejaVuSans-Bold-20" transform="translate(3068.554688 0)"/>
     <use xlink:href="#DejaVuSans-Bold-53" transform="translate(3103.369141 0)"/>
     <use xlink:href="#DejaVuSans-Bold-69" transform="translate(3175.390625 0)"/>
     <use xlink:href="#DejaVuSans-Bold-6d" transform="translate(3209.667969 0)"/>
     <use xlink:href="#DejaVuSans-Bold-75" transform="translate(3313.867188 0)"/>
     <use xlink:href="#DejaVuSans-Bold-6c" transform="translate(3385.058594 0)"/>
     <use xlink:href="#DejaVuSans-Bold-61" transform="translate(3419.335938 0)"/>
     <use xlink:href="#DejaVuSans-Bold-74" transform="translate(3486.816406 0)"/>
     <use xlink:href="#DejaVuSans-Bold-69" transform="translate(3534.619141 0)"/>
     <use xlink:href="#DejaVuSans-Bold-6f" transform="translate(3568.896484 0)"/>
     <use xlink:href="#DejaVuSans-Bold-6e" transform="translate(3637.597656 0)"/>
     <use xlink:href="#DejaVuSans-Bold-73" transform="translate(3708.789062 0)"/>
     <use xlink:href="#DejaVuSans-Bold-20" transform="translate(3768.310547 0)"/>
     <use xlink:href="#DejaVuSans-Bold-66" transform="translate(3803.125 0)"/>
     <use xlink:href="#DejaVuSans-Bold-6f" transform="translate(3846.630859 0)"/>
     <use xlink:href="#DejaVuSans-Bold-72" transform="translate(3915.332031 0)"/>
     <use xlink:href="#DejaVuSans-Bold-20" transform="translate(3964.648438 0)"/>
     <use xlink:href="#DejaVuSans-Bold-44" transform="translate(3999.462891 0)"/>
     <use xlink:href="#DejaVuSans-Bold-65" transform="translate(4082.470703 0)"/>
     <use xlink:href="#DejaVuSans-Bold-70" transform="translate(4150.292969 0)"/>
     <use xlink:href="#DejaVuSans-Bold-74" transform="translate(4221.875 0)"/>
     <use xlink:href="#DejaVuSans-Bold-68" transform="translate(4269.677734 0)"/>
     <use xlink:href="#DejaVuSans-Bold-20" transform="translate(4340.869141 0)"/>
     <use xlink:href="#DejaVuSans-Bold-3d" transform="translate(4375.683594 0)"/>
     <use xlink:href="#DejaVuSans-Bold-20" transform="translate(4459.472656 0)"/>
     <use xlink:href="#DejaVuSans-Bold-31" transform="translate(4494.287109 0)"/>
     <use xlink:href="#DejaVuSans-Bold-30" transform="translate(4563.867188 0)"/>
     <use xlink:href="#DejaVuSans-Bold-30" transform="translate(4633.447266 0)"/>
    </g>
   </g>
   <g id="line2d_33">
    <path d="M 89.956744 257.293713 
L 127.27129 287.713202 
L 164.585835 245.780292 
L 201.900381 243.504992 
L 239.214926 223.408786 
L 276.529472 218.959581 
L 313.844017 219.704274 
L 351.158563 220.302424 
L 388.473108 187.86071 
L 425.787653 200.059062 
L 463.102199 234.75435 
L 500.416744 232.086271 
L 537.73129 216.023268 
L 575.045835 251.123561 
L 612.360381 234.12353 
" clip-path="url(#p9da7e41184)" style="fill: none; stroke-dasharray: 7.4,3.2; stroke-dashoffset: 0; stroke: #eb6834; stroke-width: 2"/>
    <defs>
     <path id="m762e557cef" d="M -3.25 3.25 
L 3.25 3.25 
L 3.25 -3.25 
L -3.25 -3.25 
z
" style="stroke: #fcfcfb; stroke-linejoin: miter"/>
    </defs>
    <g clip-path="url(#p9da7e41184)">
     <use xlink:href="#m762e557cef" x="89.956744" y="257.293713" style="fill: #eb6834; stroke: #fcfcfb; stroke-linejoin: miter"/>
     <use xlink:href="#m762e557cef" x="127.27129" y="287.713202" style="fill: #eb6834; stroke: #fcfcfb; stroke-linejoin: miter"/>
     <use xlink:href="#m762e557cef" x="164.585835" y="245.780292" style="fill: #eb6834; stroke: #fcfcfb; stroke-linejoin: miter"/>
     <use xlink:href="#m762e557cef" x="201.900381" y="243.504992" style="fill: #eb6834; stroke: #fcfcfb; stroke-linejoin: miter"/>
     <use xlink:href="#m762e557cef" x="239.214926" y="223.408786" style="fill: #eb6834; stroke: #fcfcfb; stroke-linejoin: miter"/>
     <use xlink:href="#m762e557cef" x="276.529472" y="218.959581" style="fill: #eb6834; stroke: #fcfcfb; stroke-linejoin: miter"/>
     <use xlink:href="#m762e557cef" x="313.844017" y="219.704274" style="fill: #eb6834; stroke: #fcfcfb; stroke-linejoin: miter"/>
     <use xlink:href="#m762e557cef" x="351.158563" y="220.302424" style="fill: #eb6834; stroke: #fcfcfb; stroke-linejoin: miter"/>
     <use xlink:href="#m762e557cef" x="388.473108" y="187.86071" style="fill: #eb6834; stroke: #fcfcfb; stroke-linejoin: miter"/>
     <use xlink:href="#m762e557cef" x="425.787653" y="200.059062" style="fill: #eb6834; stroke: #fcfcfb; stroke-linejoin: miter"/>
     <use xlink:href="#m762e557cef" x="463.102199" y="234.75435" style="fill: #eb6834; stroke: #fcfcfb; stroke-linejoin: miter"/>
     <use xlink:href="#m762e557cef" x="500.416744" y="232.086271" style="fill: #eb6834; stroke: #fcfcfb; stroke-linejoin: miter"/>
     <use xlink:href="#m762e557cef" x="537.73129" y="216.023268" style="fill: #eb6834; stroke: #fcfcfb; stroke-linejoin: miter"/>
     <use xlink:href="#m762e557cef" x="575.045835" y="251.123561" style="fill: #eb6834; stroke: #fcfcfb; stroke-linejoin: miter"/>
     <use xlink:href="#m762e557cef" x="612.360381" y="234.12353" style="fill: #eb6834; stroke: #fcfcfb; stroke-linejoin: miter"/>
    </g>
   </g>
   <g id="line2d_34">
    <path d="M 89.956744 371.362483 
L 127.27129 375.028754 
L 164.585835 371.220794 
L 201.900381 370.816812 
L 239.214926 366.325846 
L 276.529472 367.592836 
L 313.844017 364.944969 
L 351.158563 366.803936 
L 388.473108 364.772443 
L 425.787653 366.318505 
L 463.102199 367.24635 
L 500.416744 369.388946 
L 537.73129 369.030848 
L 575.045835 369.698938 
L 612.360381 369.720474 
" clip-path="url(#p9da7e41184)" style="fill: none; stroke-dasharray: 2,3.3; stroke-dashoffset: 0; stroke: #1baf7a; stroke-width: 2"/>
    <defs>
     <path id="mb0fcfed06c" d="M 0 -3.25 
L -3.25 3.25 
L 3.25 3.25 
z
" style="stroke: #fcfcfb; stroke-linejoin: miter"/>
    </defs>
    <g clip-path="url(#p9da7e41184)">
     <use xlink:href="#mb0fcfed06c" x="89.956744" y="371.362483" style="fill: #1baf7a; stroke: #fcfcfb; stroke-linejoin: miter"/>
     <use xlink:href="#mb0fcfed06c" x="127.27129" y="375.028754" style="fill: #1baf7a; stroke: #fcfcfb; stroke-linejoin: miter"/>
     <use xlink:href="#mb0fcfed06c" x="164.585835" y="371.220794" style="fill: #1baf7a; stroke: #fcfcfb; stroke-linejoin: miter"/>
     <use xlink:href="#mb0fcfed06c" x="201.900381" y="370.816812" style="fill: #1baf7a; stroke: #fcfcfb; stroke-linejoin: miter"/>
     <use xlink:href="#mb0fcfed06c" x="239.214926" y="366.325846" style="fill: #1baf7a; stroke: #fcfcfb; stroke-linejoin: miter"/>
     <use xlink:href="#mb0fcfed06c" x="276.529472" y="367.592836" style="fill: #1baf7a; stroke: #fcfcfb; stroke-linejoin: miter"/>
     <use xlink:href="#mb0fcfed06c" x="313.844017" y="364.944969" style="fill: #1baf7a; stroke: #fcfcfb; stroke-linejoin: miter"/>
     <use xlink:href="#mb0fcfed06c" x="351.158563" y="366.803936" style="fill: #1baf7a; stroke: #fcfcfb; stroke-linejoin: miter"/>
     <use xlink:href="#mb0fcfed06c" x="388.473108" y="364.772443" style="fill: #1baf7a; stroke: #fcfcfb; stroke-linejoin: miter"/>
     <use xlink:href="#mb0fcfed06c" x="425.787653" y="366.318505" style="fill: #1baf7a; stroke: #fcfcfb; stroke-linejoin: miter"/>
     <use xlink:href="#mb0fcfed06c" x="463.102199" y="367.24635" style="fill: #1baf7a; stroke: #fcfcfb; stroke-linejoin: miter"/>
     <use xlink:href="#mb0fcfed06c" x="500.416744" y="369.388946" style="fill: #1baf7a; stroke: #fcfcfb; stroke-linejoin: miter"/>
     <use xlink:href="#mb0fcfed06c" x="537.73129" y="369.030848" style="fill: #1baf7a; stroke: #fcfcfb; stroke-linejoin: miter"/>
     <use xlink:href="#mb0fcfed06c" x="575.045835" y="369.698938" style="fill: #1baf7a; stroke: #fcfcfb; stroke-linejoin: miter"/>
     <use xlink:href="#mb0fcfed06c" x="612.360381" y="369.720474" style="fill: #1baf7a; stroke: #fcfcfb; stroke-linejoin: miter"/>
    </g>
   </g>
   <g id="line2d_35">
    <path d="M 89.956744 383.884944 
L 127.27129 383.252681 
L 164.585835 382.71339 
L 201.900381 382.071578 
L 239.214926 381.969261 
L 276.529472 381.890313 
L 313.844017 381.877358 
L 351.158563 381.167776 
L 388.473108 381.809076 
L 425.787653 381.826175 
L 463.102199 382.1476 
L 500.416744 382.146202 
L 537.73129 382.366017 
L 575.045835 382.443538 
L 612.360381 382.456375 
" clip-path="url(#p9da7e41184)" style="fill: none; stroke-dasharray: 12.8,3.2,2,3.2; stroke-dashoffset: 0; stroke: #4a3aa7; stroke-width: 2"/>
    <defs>
     <path id="m3155fc3a85" d="M -0 4.596194 
L 4.596194 0 
L 0 -4.596194 
L -4.596194 -0 
z
" style="stroke: #fcfcfb; stroke-linejoin: miter"/>
    </defs>
    <g clip-path="url(#p9da7e41184)">
     <use xlink:href="#m3155fc3a85" x="89.956744" y="383.884944" style="fill: #4a3aa7; stroke: #fcfcfb; stroke-linejoin: miter"/>
     <use xlink:href="#m3155fc3a85" x="127.27129" y="383.252681" style="fill: #4a3aa7; stroke: #fcfcfb; stroke-linejoin: miter"/>
     <use xlink:href="#m3155fc3a85" x="164.585835" y="382.71339" style="fill: #4a3aa7; stroke: #fcfcfb; stroke-linejoin: miter"/>
     <use xlink:href="#m3155fc3a85" x="201.900381" y="382.071578" style="fill: #4a3aa7; stroke: #fcfcfb; stroke-linejoin: miter"/>
     <use xlink:href="#m3155fc3a85" x="239.214926" y="381.969261" style="fill: #4a3aa7; stroke: #fcfcfb; stroke-linejoin: miter"/>
     <use xlink:href="#m3155fc3a85" x="276.529472" y="381.890313" style="fill: #4a3aa7; stroke: #fcfcfb; stroke-linejoin: miter"/>
     <use xlink:href="#m3155fc3a85" x="313.844017" y="381.877358" style="fill: #4a3aa7; stroke: #fcfcfb; stroke-linejoin: miter"/>
     <use xlink:href="#m3155fc3a85" x="351.158563" y="381.167776" style="fill: #4a3aa7; stroke: #fcfcfb; stroke-linejoin: miter"/>
     <use xlink:href="#m3155fc3a85" x="388.473108" y="381.809076" style="fill: #4a3aa7; stroke: #fcfcfb; stroke-linejoin: miter"/>
     <use xlink:href="#m3155fc3a85" x="425.787653" y="381.826175" style="fill: #4a3aa7; stroke: #fcfcfb; stroke-linejoin: miter"/>
     <use xlink:href="#m3155fc3a85" x="463.102199" y="382.1476" style="fill: #4a3aa7; stroke: #fcfcfb; stroke-linejoin: miter"/>
     <use xlink:href="#m3155fc3a85" x="500.416744" y="382.146202" style="fill: #4a3aa7; stroke: #fcfcfb; stroke-linejoin: miter"/>
     <use xlink:href="#m3155fc3a85" x="537.73129" y="382.366017" style="fill: #4a3aa7; stroke: #fcfcfb; stroke-linejoin: miter"/>
     <use xlink:href="#m3155fc3a85" x="575.045835" y="382.443538" style="fill: #4a3aa7; stroke: #fcfcfb; stroke-linejoin: miter"/>
     <use xlink:href="#m3155fc3a85" x="612.360381" y="382.456375" style="fill: #4a3aa7; stroke: #fcfcfb; stroke-linejoin: miter"/>
    </g>
   </g>
   <g id="line2d_36">
    <path d="M 89.956744 384.832936 
L 127.27129 383.854368 
L 164.585835 384.036785 
L 201.900381 383.987991 
L 239.214926 383.694398 
L 276.529472 383.794101 
L 313.844017 383.695835 
L 351.158563 383.483615 
L 388.473108 383.434222 
L 425.787653 383.70678 
L 463.102199 383.872711 
L 500.416744 383.814903 
L 537.73129 383.905386 
L 575.045835 383.985552 
L 612.360381 383.982986 
" clip-path="url(#p9da7e41184)" style="fill: none; stroke-dasharray: 6,2,2,2; stroke-dashoffset: 0; stroke: #e34948; stroke-width: 2"/>
    <defs>
     <path id="m8d0a4d236b" d="M -0 3.25 
L 3.25 -3.25 
L -3.25 -3.25 
z
" style="stroke: #fcfcfb; stroke-linejoin: miter"/>
    </defs>
    <g clip-path="url(#p9da7e41184)">
     <use xlink:href="#m8d0a4d236b" x="89.956744" y="384.832936" style="fill: #e34948; stroke: #fcfcfb; stroke-linejoin: miter"/>
     <use xlink:href="#m8d0a4d236b" x="127.27129" y="383.854368" style="fill: #e34948; stroke: #fcfcfb; stroke-linejoin: miter"/>
     <use xlink:href="#m8d0a4d236b" x="164.585835" y="384.036785" style="fill: #e34948; stroke: #fcfcfb; stroke-linejoin: miter"/>
     <use xlink:href="#m8d0a4d236b" x="201.900381" y="383.987991" style="fill: #e34948; stroke: #fcfcfb; stroke-linejoin: miter"/>
     <use xlink:href="#m8d0a4d236b" x="239.214926" y="383.694398" style="fill: #e34948; stroke: #fcfcfb; stroke-linejoin: miter"/>
     <use xlink:href="#m8d0a4d236b" x="276.529472" y="383.794101" style="fill: #e34948; stroke: #fcfcfb; stroke-linejoin: miter"/>
     <use xlink:href="#m8d0a4d236b" x="313.844017" y="383.695835" style="fill: #e34948; stroke: #fcfcfb; stroke-linejoin: miter"/>
     <use xlink:href="#m8d0a4d236b" x="351.158563" y="383.483615" style="fill: #e34948; stroke: #fcfcfb; stroke-linejoin: miter"/>
     <use xlink:href="#m8d0a4d236b" x="388.473108" y="383.434222" style="fill: #e34948; stroke: #fcfcfb; stroke-linejoin: miter"/>
     <use xlink:href="#m8d0a4d236b" x="425.787653" y="383.70678" style="fill: #e34948; stroke: #fcfcfb; stroke-linejoin: miter"/>
     <use xlink:href="#m8d0a4d236b" x="463.102199" y="383.872711" style="fill: #e34948; stroke: #fcfcfb; stroke-linejoin: miter"/>
     <use xlink:href="#m8d0a4d236b" x="500.416744" y="383.814903" style="fill: #e34948; stroke: #fcfcfb; stroke-linejoin: miter"/>
     <use xlink:href="#m8d0a4d236b" x="537.73129" y="383.905386" style="fill: #e34948; stroke: #fcfcfb; stroke-linejoin: miter"/>
     <use xlink:href="#m8d0a4d236b" x="575.045835" y="383.985552" style="fill: #e34948; stroke: #fcfcfb; stroke-linejoin: miter"/>
     <use xlink:href="#m8d0a4d236b" x="612.360381" y="383.982986" style="fill: #e34948; stroke: #fcfcfb; stroke-linejoin: miter"/>
    </g>
   </g>
   <g id="legend_1">
    <g id="line2d_37">
     <path d="M 653.973442 39.176406 
L 665.973442 39.176406 
L 677.973442 39.176406 
" style="fill: none; stroke-dasharray: 7.4,3.2; stroke-dashoffset: 0; stroke: #eb6834; stroke-width: 2"/>
     <g>
      <use xlink:href="#m762e557cef" x="665.973442" y="39.176406" style="fill: #eb6834; stroke: #fcfcfb; stroke-linejoin: miter"/>
     </g>
    </g>
    <g id="text_20">
     <!-- 10 Trajectories -->
     <g style="fill: #52514e" transform="translate(685.973442 42.676406) scale(0.1 -0.1)">
      <defs>
       <path id="DejaVuSans-54" d="M -19 4666 
L 3928 4666 
L 3928 4134 
L 2272 4134 
L 2272 0 
L 1638 0 
L 1638 4134 
L -19 4134 
L -19 4666 
z
" transform="scale(0.015625)"/>
       <path id="DejaVuSans-61" d="M 2194 1759 
Q 1497 1759 1228 1600 
Q 959 1441 959 1056 
Q 959 750 1161 570 
Q 1363 391 1709 391 
Q 2188 391 2477 730 
Q 2766 1069 2766 1631 
L 2766 1759 
L 2194 1759 
z
M 3341 1997 
L 3341 0 
L 2766 0 
L 2766 531 
Q 2569 213 2275 61 
Q 1981 -91 1556 -91 
Q 1019 -91 701 211 
Q 384 513 384 1019 
Q 384 1609 779 1909 
Q 1175 2209 1959 2209 
L 2766 2209 
L 2766 2266 
Q 2766 2663 2505 2880 
Q 2244 3097 1772 3097 
Q 1472 3097 1187 3025 
Q 903 2953 641 2809 
L 641 3341 
Q 956 3463 1253 3523 
Q 1550 3584 1831 3584 
Q 2591 3584 2966 3190 
Q 3341 2797 3341 1997 
z
" transform="scale(0.015625)"/>
       <path id="DejaVuSans-6a" d="M 603 3500 
L 1178 3500 
L 1178 -63 
Q 1178 -731 923 -1031 
Q 669 -1331 103 -1331 
L -116 -1331 
L -116 -844 
L 38 -844 
Q 366 -844 484 -692 
Q 603 -541 603 -63 
L 603 3500 
z
M 603 4863 
L 1178 4863 
L 1178 4134 
L 603 4134 
L 603 4863 
z
" transform="scale(0.015625)"/>
      </defs>
      <use xlink:href="#DejaVuSans-31"/>
      <use xlink:href="#DejaVuSans-30" transform="translate(63.623047 0)"/>
      <use xlink:href="#DejaVuSans-20" transform="translate(127.246094 0)"/>
      <use xlink:href="#DejaVuSans-54" transform="translate(159.033203 0)"/>
      <use xlink:href="#DejaVuSans-72" transform="translate(205.367188 0)"/>
      <use xlink:href="#DejaVuSans-61" transform="translate(246.480469 0)"/>
      <use xlink:href="#DejaVuSans-6a" transform="translate(307.759766 0)"/>
      <use xlink:href="#DejaVuSans-65" transform="translate(335.542969 0)"/>
      <use xlink:href="#DejaVuSans-63" transform="translate(397.066406 0)"/>
      <use xlink:href="#DejaVuSans-74" transform="translate(452.046875 0)"/>
      <use xlink:href="#DejaVuSans-6f" transform="translate(491.255859 0)"/>
      <use xlink:href="#DejaVuSans-72" transform="translate(552.4375 0)"/>
      <use xlink:href="#DejaVuSans-69" transform="translate(593.550781 0)"/>
      <use xlink:href="#DejaVuSans-65" transform="translate(621.333984 0)"/>
      <use xlink:href="#DejaVuSans-73" transform="translate(682.857422 0)"/>
     </g>
    </g>
    <g id="line2d_38">
     <path d="M 653.973442 53.854531 
L 665.973442 53.854531 
L 677.973442 53.854531 
" style="fill: none; stroke-dasharray: 2,3.3; stroke-dashoffset: 0; stroke: #1baf7a; stroke-width: 2"/>
     <g>
      <use xlink:href="#mb0fcfed06c" x="665.973442" y="53.854531" style="fill: #1baf7a; stroke: #fcfcfb; stroke-linejoin: miter"/>
     </g>
    </g>
    <g id="text_21">
     <!-- 100 Trajectories -->
     <g style="fill: #52514e" transform="translate(685.973442 57.354531) scale(0.1 -0.1)">
      <use xlink:href="#DejaVuSans-31"/>
      <use xlink:href="#DejaVuSans-30" transform="translate(63.623047 0)"/>
      <use xlink:href="#DejaVuSans-30" transform="translate(127.246094 0)"/>
      <use xlink:href="#DejaVuSans-20" transform="translate(190.869141 0)"/>
      <use xlink:href="#DejaVuSans-54" transform="translate(222.65625 0)"/>
      <use xlink:href="#DejaVuSans-72" transform="translate(268.990234 0)"/>
      <use xlink:href="#DejaVuSans-61" transform="translate(310.103516 0)"/>
      <use xlink:href="#DejaVuSans-6a" transform="translate(371.382812 0)"/>
      <use xlink:href="#DejaVuSans-65" transform="translate(399.166016 0)"/>
      <use xlink:href="#DejaVuSans-63" transform="translate(460.689453 0)"/>
      <use xlink:href="#DejaVuSans-74" transform="translate(515.669922 0)"/>
      <use xlink:href="#DejaVuSans-6f" transform="translate(554.878906 0)"/>
      <use xlink:href="#DejaVuSans-72" transform="translate(616.060547 0)"/>
      <use xlink:href="#DejaVuSans-69" transform="translate(657.173828 0)"/>
      <use xlink:href="#DejaVuSans-65" transform="translate(684.957031 0)"/>
      <use xlink:href="#DejaVuSans-73" transform="translate(746.480469 0)"/>
     </g>
    </g>
    <g id="line2d_39">
     <path d="M 653.973442 68.532656 
L 665.973442 68.532656 
L 677.973442 68.532656 
" style="fill: none; stroke-dasharray: 12.8,3.2,2,3.2; stroke-dashoffset: 0; stroke: #4a3aa7; stroke-width: 2"/>
     <g>
      <use xlink:href="#m3155fc3a85" x="665.973442" y="68.532656" style="fill: #4a3aa7; stroke: #fcfcfb; stroke-linejoin: miter"/>
     </g>
    </g>
    <g id="text_22">
     <!-- 500 Trajectories -->
     <g style="fill: #52514e" transform="translate(685.973442 72.032656) scale(0.1 -0.1)">
      <use xlink:href="#DejaVuSans-35"/>
      <use xlink:href="#DejaVuSans-30" transform="translate(63.623047 0)"/>
      <use xlink:href="#DejaVuSans-30" transform="translate(127.246094 0)"/>
      <use xlink:href="#DejaVuSans-20" transform="translate(190.869141 0)"/>
      <use xlink:href="#DejaVuSans-54" transform="translate(222.65625 0)"/>
      <use xlink:href="#DejaVuSans-72" transform="translate(268.990234 0)"/>
      <use xlink:href="#DejaVuSans-61" transform="translate(310.103516 0)"/>
      <use xlink:href="#DejaVuSans-6a" transform="translate(371.382812 0)"/>
      <use xlink:href="#DejaVuSans-65" transform="translate(399.166016 0)"/>
      <use xlink:href="#DejaVuSans-63" transform="translate(460.689453 0)"/>
      <use xlink:href="#DejaVuSans-74" transform="translate(515.669922 0)"/>
      <use xlink:href="#DejaVuSans-6f" transform="translate(554.878906 0)"/>
      <use xlink:href="#DejaVuSans-72" transform="translate(616.060547 0)"/>
      <use xlink:href="#DejaVuSans-69" transform="translate(657.173828 0)"/>
      <use xlink:href="#DejaVuSans-65" transform="translate(684.957031 0)"/>
      <use xlink:href="#DejaVuSans-73" transform="translate(746.480469 0)"/>
     </g>
    </g>
    <g id="line2d_40">
     <path d="M 653.973442 83.210781 
L 665.973442 83.210781 
L 677.973442 83.210781 
" style="fill: none; stroke-dasharray: 6,2,2,2; stroke-dashoffset: 0; stroke: #e34948; stroke-width: 2"/>
     <g>
      <use xlink:href="#m8d0a4d236b" x="665.973442" y="83.210781" style="fill: #e34948; stroke: #fcfcfb; stroke-linejoin: miter"/>
     </g>
    </g>
    <g id="text_23">
     <!-- 1000 Trajectories -->
     <g style="fill: #52514e" transform="translate(685.973442 86.710781) scale(0.1 -0.1)">
      <use xlink:href="#DejaVuSans-31"/>
      <use xlink:href="#DejaVuSans-30" transform="translate(63.623047 0)"/>
      <use xlink:href="#DejaVuSans-30" transform="translate(127.246094 0)"/>
      <use xlink:href="#DejaVuSans-30" transform="translate(190.869141 0)"/>
      <use xlink:href="#DejaVuSans-20" transform="translate(254.492188 0)"/>
      <use xlink:href="#DejaVuSans-54" transform="translate(286.279297 0)"/>
      <use xlink:href="#DejaVuSans-72" transform="translate(332.613281 0)"/>
      <use xlink:href="#DejaVuSans-61" transform="translate(373.726562 0)"/>
      <use xlink:href="#DejaVuSans-6a" transform="translate(435.005859 0)"/>
      <use xlink:href="#DejaVuSans-65" transform="translate(462.789062 0)"/>
      <use xlink:href="#DejaVuSans-63" transform="translate(524.3125 0)"/>
      <use xlink:href="#DejaVuSans-74" transform="translate(579.292969 0)"/>
      <use xlink:href="#DejaVuSans-6f" transform="translate(618.501953 0)"/>
      <use xlink:href="#DejaVuSans-72" transform="translate(679.683594 0)"/>
      <use xlink:href="#DejaVuSans-69" transform="translate(720.796875 0)"/>
      <use xlink:href="#DejaVuSans-65" transform="translate(748.580078 0)"/>
      <use xlink:href="#DejaVuSans-73" transform="translate(810.103516 0)"/>
     </g>
    </g>
   </g>
  </g>
 </g>
 <defs>
  <clipPath id="p9da7e41184">
   <rect x="63.836563" y="31.077969" width="574.644" height="354.44"/>
  </clipPath>
 </defs>
</svg>
