<?xml version="1.0" encoding="utf-8" standalone="no"?>
<!DOCTYPE svg PUBLIC "-//W3C//DTD SVG 1.1//EN"
  "http://www.w3.org/Graphics/SVG/1.1/DTD/svg11.dtd">
<svg xmlns:xlink="http://www.w3.org/1999/xlink" width="783.328052pt" height="424.042031pt" viewBox="0 0 783.328052 424.042031" xmlns="http://www.w3.org/2000/svg" version="1.1">
 <metadata>
  <rdf:RDF xmlns:dc="http://purl.org/dc/elements/1.1/" xmlns:cc="http://creativecommons.org/ns#" xmlns:rdf="http://www.w3.org/1999/02/22-rdf-syntax-ns#">
   <cc:Work>
    <dc:type rdf:resource="http://purl.org/dc/dcmitype/StillImage"/>
    <dc:date>2026-07-02T20:39:17.753255</dc:date>
    <dc:format>image/svg+xml</dc:format>
    <dc:creator>
     <cc:Agent>
      <dc:title>Matplotlib v3.10.8, https://matplotlib.org/</dc:title>
     </cc:Agent>
    </dc:creator>
   </cc:Work>
  </rdf:RDF>
 </metadata>
 <defs>
  <style type="text/css">*{stroke-linejoin: round; stroke-linecap: butt}</style>
 </defs>
 <g id="figure_1">
  <g id="patch_1">
   <path d="M 0 424.042031 
L 783.328052 424.042031 
L 783.328052 0 
L 0 0 
z
" style="fill: #fcfcfb"/>
  </g>
  <g id="axes_1">
   <g id="patch_2">
    <path d="M 52.345938 385.517969 
L 638.190841 385.517969 
L 638.190841 31.077969 
L 52.345938 31.077969 
z
" style="fill: #fcfcfb"/>
   </g>
   <g id="matplotlib.axis_1">
    <g id="xtick_1">
     <g id="line2d_1">
      <path d="M 78.975251 385.517969 
L 78.975251 31.077969 
" clip-path="url(#p58171cc22f)" style="fill: none; stroke: #e1e0d9; stroke-width: 0.8; stroke-linecap: square"/>
     </g>
     <g id="line2d_2">
      <defs>
       <path id="mae1d3e3ba1" d="M 0 0 
L 0 3.5 
" style="stroke: #898781; stroke-width: 0.8"/>
      </defs>
      <g>
       <use xlink:href="#mae1d3e3ba1" x="78.975251" y="385.517969" style="fill: #898781; stroke: #898781; stroke-width: 0.8"/>
      </g>
     </g>
     <g id="text_1">
      <!-- 2 -->
      <g style="fill: #898781" transform="translate(75.794001 400.116406) scale(0.1 -0.1)">
       <defs>
        <path id="DejaVuSans-32" d="M 1228 531 
L 3431 531 
L 3431 0 
L 469 0 
L 469 531 
Q 828 903 1448 1529 
Q 2069 2156 2228 2338 
Q 2531 2678 2651 2914 
Q 2772 3150 2772 3378 
Q 2772 3750 2511 3984 
Q 2250 4219 1831 4219 
Q 1534 4219 1204 4116 
Q 875 4013 500 3803 
L 500 4441 
Q 881 4594 1212 4672 
Q 1544 4750 1819 4750 
Q 2544 4750 2975 4387 
Q 3406 4025 3406 3419 
Q 3406 3131 3298 2873 
Q 3191 2616 2906 2266 
Q 2828 2175 2409 1742 
Q 1991 1309 1228 531 
z
" transform="scale(0.015625)"/>
       </defs>
       <use xlink:href="#DejaVuSans-32"/>
      </g>
     </g>
    </g>
    <g id="xtick_2">
     <g id="line2d_3">
      <path d="M 155.059005 385.517969 
L 155.059005 31.077969 
" clip-path="url(#p58171cc22f)" style="fill: none; stroke: #e1e0d9; stroke-width: 0.8; stroke-linecap: square"/>
     </g>
     <g id="line2d_4">
      <g>
       <use xlink:href="#mae1d3e3ba1" x="155.059005" y="385.517969" style="fill: #898781; stroke: #898781; stroke-width: 0.8"/>
      </g>
     </g>
     <g id="text_2">
      <!-- 4 -->
      <g style="fill: #898781" transform="translate(151.877755 400.116406) scale(0.1 -0.1)">
       <defs>
        <path id="DejaVuSans-34" d="M 2419 4116 
L 825 1625 
L 2419 1625 
L 2419 4116 
z
M 2253 4666 
L 3047 4666 
L 3047 1625 
L 3713 1625 
L 3713 1100 
L 3047 1100 
L 3047 0 
L 2419 0 
L 2419 1100 
L 313 1100 
L 313 1709 
L 2253 4666 
z
" transform="scale(0.015625)"/>
       </defs>
       <use xlink:href="#DejaVuSans-34"/>
      </g>
     </g>
    </g>
    <g id="xtick_3">
     <g id="line2d_5">
      <path d="M 231.142759 385.517969 
L 231.142759 31.077969 
" clip-path="url(#p58171cc22f)" style="fill: none; stroke: #e1e0d9; stroke-width: 0.8; stroke-linecap: square"/>
     </g>
     <g id="line2d_6">
      <g>
       <use xlink:href="#mae1d3e3ba1" x="231.142759" y="385.517969" style="fill: #898781; stroke: #898781; stroke-width: 0.8"/>
      </g>
     </g>
     <g id="text_3">
      <!-- 6 -->
      <g style="fill: #898781" transform="translate(227.961509 400.116406) scale(0.1 -0.1)">
       <defs>
        <path id="DejaVuSans-36" d="M 2113 2584 
Q 1688 2584 1439 2293 
Q 1191 2003 1191 1497 
Q 1191 994 1439 701 
Q 1688 409 2113 409 
Q 2538 409 2786 701 
Q 3034 994 3034 1497 
Q 3034 2003 2786 2293 
Q 2538 2584 2113 2584 
z
M 3366 4563 
L 3366 3988 
Q 3128 4100 2886 4159 
Q 2644 4219 2406 4219 
Q 1781 4219 1451 3797 
Q 1122 3375 1075 2522 
Q 1259 2794 1537 2939 
Q 1816 3084 2150 3084 
Q 2853 3084 3261 2657 
Q 3669 2231 3669 1497 
Q 3669 778 3244 343 
Q 2819 -91 2113 -91 
Q 1303 -91 875 529 
Q 447 1150 447 2328 
Q 447 3434 972 4092 
Q 1497 4750 2381 4750 
Q 2619 4750 2861 4703 
Q 3103 4656 3366 4563 
z
" transform="scale(0.015625)"/>
       </defs>
       <use xlink:href="#DejaVuSans-36"/>
      </g>
     </g>
    </g>
    <g id="xtick_4">
     <g id="line2d_7">
      <path d="M 307.226513 385.517969 
L 307.226513 31.077969 
" clip-path="url(#p58171cc22f)" style="fill: none; stroke: #e1e0d9; stroke-width: 0.8; stroke-linecap: square"/>
     </g>
     <g id="line2d_8">
      <g>
       <use xlink:href="#mae1d3e3ba1" x="307.226513" y="385.517969" style="fill: #898781; stroke: #898781; stroke-width: 0.8"/>
      </g>
     </g>
     <g id="text_4">
      <!-- 8 -->
      <g style="fill: #898781" transform="translate(304.045263 400.116406) scale(0.1 -0.1)">
       <defs>
        <path id="DejaVuSans-38" d="M 2034 2216 
Q 1584 2216 1326 1975 
Q 1069 1734 1069 1313 
Q 1069 891 1326 650 
Q 1584 409 2034 409 
Q 2484 409 2743 651 
Q 3003 894 3003 1313 
Q 3003 1734 2745 1975 
Q 2488 2216 2034 2216 
z
M 1403 2484 
Q 997 2584 770 2862 
Q 544 3141 544 3541 
Q 544 4100 942 4425 
Q 1341 4750 2034 4750 
Q 2731 4750 3128 4425 
Q 3525 4100 3525 3541 
Q 3525 3141 3298 2862 
Q 3072 2584 2669 2484 
Q 3125 2378 3379 2068 
Q 3634 1759 3634 1313 
Q 3634 634 3220 271 
Q 2806 -91 2034 -91 
Q 1263 -91 848 271 
Q 434 634 434 1313 
Q 434 1759 690 2068 
Q 947 2378 1403 2484 
z
M 1172 3481 
Q 1172 3119 1398 2916 
Q 1625 2713 2034 2713 
Q 2441 2713 2670 2916 
Q 2900 3119 2900 3481 
Q 2900 3844 2670 4047 
Q 2441 4250 2034 4250 
Q 1625 4250 1398 4047 
Q 1172 3844 1172 3481 
z
" transform="scale(0.015625)"/>
       </defs>
       <use xlink:href="#DejaVuSans-38"/>
      </g>
     </g>
    </g>
    <g id="xtick_5">
     <g id="line2d_9">
      <path d="M 383.310266 385.517969 
L 383.310266 31.077969 
" clip-path="url(#p58171cc22f)" style="fill: none; stroke: #e1e0d9; stroke-width: 0.8; stroke-linecap: square"/>
     </g>
     <g id="line2d_10">
      <g>
       <use xlink:href="#mae1d3e3ba1" x="383.310266" y="385.517969" style="fill: #898781; stroke: #898781; stroke-width: 0.8"/>
      </g>
     </g>
     <g id="text_5">
      <!-- 10 -->
      <g style="fill: #898781" transform="translate(376.947766 400.116406) scale(0.1 -0.1)">
       <defs>
        <path id="DejaVuSans-31" d="M 794 531 
L 1825 531 
L 1825 4091 
L 703 3866 
L 703 4441 
L 1819 4666 
L 2450 4666 
L 2450 531 
L 3481 531 
L 3481 0 
L 794 0 
L 794 531 
z
" transform="scale(0.015625)"/>
        <path id="DejaVuSans-30" d="M 2034 4250 
Q 1547 4250 1301 3770 
Q 1056 3291 1056 2328 
Q 1056 1369 1301 889 
Q 1547 409 2034 409 
Q 2525 409 2770 889 
Q 3016 1369 3016 2328 
Q 3016 3291 2770 3770 
Q 2525 4250 2034 4250 
z
M 2034 4750 
Q 2819 4750 3233 4129 
Q 3647 3509 3647 2328 
Q 3647 1150 3233 529 
Q 2819 -91 2034 -91 
Q 1250 -91 836 529 
Q 422 1150 422 2328 
Q 422 3509 836 4129 
Q 1250 4750 2034 4750 
z
" transform="scale(0.015625)"/>
       </defs>
       <use xlink:href="#DejaVuSans-31"/>
       <use xlink:href="#DejaVuSans-30" transform="translate(63.623047 0)"/>
      </g>
     </g>
    </g>
    <g id="xtick_6">
     <g id="line2d_11">
      <path d="M 459.39402 385.517969 
L 459.39402 31.077969 
" clip-path="url(#p58171cc22f)" style="fill: none; stroke: #e1e0d9; stroke-width: 0.8; stroke-linecap: square"/>
     </g>
     <g id="line2d_12">
      <g>
       <use xlink:href="#mae1d3e3ba1" x="459.39402" y="385.517969" style="fill: #898781; stroke: #898781; stroke-width: 0.8"/>
      </g>
     </g>
     <g id="text_6">
      <!-- 12 -->
      <g style="fill: #898781" transform="translate(453.03152 400.116406) scale(0.1 -0.1)">
       <use xlink:href="#DejaVuSans-31"/>
       <use xlink:href="#DejaVuSans-32" transform="translate(63.623047 0)"/>
      </g>
     </g>
    </g>
    <g id="xtick_7">
     <g id="line2d_13">
      <path d="M 535.477774 385.517969 
L 535.477774 31.077969 
" clip-path="url(#p58171cc22f)" style="fill: none; stroke: #e1e0d9; stroke-width: 0.8; stroke-linecap: square"/>
     </g>
     <g id="line2d_14">
      <g>
       <use xlink:href="#mae1d3e3ba1" x="535.477774" y="385.517969" style="fill: #898781; stroke: #898781; stroke-width: 0.8"/>
      </g>
     </g>
     <g id="text_7">
      <!-- 14 -->
      <g style="fill: #898781" transform="translate(529.115274 400.116406) scale(0.1 -0.1)">
       <use xlink:href="#DejaVuSans-31"/>
       <use xlink:href="#DejaVuSans-34" transform="translate(63.623047 0)"/>
      </g>
     </g>
    </g>
    <g id="xtick_8">
     <g id="line2d_15">
      <path d="M 611.561528 385.517969 
L 611.561528 31.077969 
" clip-path="url(#p58171cc22f)" style="fill: none; stroke: #e1e0d9; stroke-width: 0.8; stroke-linecap: square"/>
     </g>
     <g id="line2d_16">
      <g>
       <use xlink:href="#mae1d3e3ba1" x="611.561528" y="385.517969" style="fill: #898781; stroke: #898781; stroke-width: 0.8"/>
      </g>
     </g>
     <g id="text_8">
      <!-- 16 -->
      <g style="fill: #898781" transform="translate(605.199028 400.116406) scale(0.1 -0.1)">
       <use xlink:href="#DejaVuSans-31"/>
       <use xlink:href="#DejaVuSans-36" transform="translate(63.623047 0)"/>
      </g>
     </g>
    </g>
    <g id="text_9">
     <!-- Number of Qubits -->
     <g style="fill: #52514e" transform="translate(296.520343 414.554375) scale(0.11 -0.11)">
      <defs>
       <path id="DejaVuSans-4e" d="M 628 4666 
L 1478 4666 
L 3547 763 
L 3547 4666 
L 4159 4666 
L 4159 0 
L 3309 0 
L 1241 3903 
L 1241 0 
L 628 0 
L 628 4666 
z
" transform="scale(0.015625)"/>
       <path id="DejaVuSans-75" d="M 544 1381 
L 544 3500 
L 1119 3500 
L 1119 1403 
Q 1119 906 1312 657 
Q 1506 409 1894 409 
Q 2359 409 2629 706 
Q 2900 1003 2900 1516 
L 2900 3500 
L 3475 3500 
L 3475 0 
L 2900 0 
L 2900 538 
Q 2691 219 2414 64 
Q 2138 -91 1772 -91 
Q 1169 -91 856 284 
Q 544 659 544 1381 
z
M 1991 3584 
L 1991 3584 
z
" transform="scale(0.015625)"/>
       <path id="DejaVuSans-6d" d="M 3328 2828 
Q 3544 3216 3844 3400 
Q 4144 3584 4550 3584 
Q 5097 3584 5394 3201 
Q 5691 2819 5691 2113 
L 5691 0 
L 5113 0 
L 5113 2094 
Q 5113 2597 4934 2840 
Q 4756 3084 4391 3084 
Q 3944 3084 3684 2787 
Q 3425 2491 3425 1978 
L 3425 0 
L 2847 0 
L 2847 2094 
Q 2847 2600 2669 2842 
Q 2491 3084 2119 3084 
Q 1678 3084 1418 2786 
Q 1159 2488 1159 1978 
L 1159 0 
L 581 0 
L 581 3500 
L 1159 3500 
L 1159 2956 
Q 1356 3278 1631 3431 
Q 1906 3584 2284 3584 
Q 2666 3584 2933 3390 
Q 3200 3197 3328 2828 
z
" transform="scale(0.015625)"/>
       <path id="DejaVuSans-62" d="M 3116 1747 
Q 3116 2381 2855 2742 
Q 2594 3103 2138 3103 
Q 1681 3103 1420 2742 
Q 1159 2381 1159 1747 
Q 1159 1113 1420 752 
Q 1681 391 2138 391 
Q 2594 391 2855 752 
Q 3116 1113 3116 1747 
z
M 1159 2969 
Q 1341 3281 1617 3432 
Q 1894 3584 2278 3584 
Q 2916 3584 3314 3078 
Q 3713 2572 3713 1747 
Q 3713 922 3314 415 
Q 2916 -91 2278 -91 
Q 1894 -91 1617 61 
Q 1341 213 1159 525 
L 1159 0 
L 581 0 
L 581 4863 
L 1159 4863 
L 1159 2969 
z
" transform="scale(0.015625)"/>
       <path id="DejaVuSans-65" d="M 3597 1894 
L 3597 1613 
L 953 1613 
Q 991 1019 1311 708 
Q 1631 397 2203 397 
Q 2534 397 2845 478 
Q 3156 559 3463 722 
L 3463 178 
Q 3153 47 2828 -22 
Q 2503 -91 2169 -91 
Q 1331 -91 842 396 
Q 353 884 353 1716 
Q 353 2575 817 3079 
Q 1281 3584 2069 3584 
Q 2775 3584 3186 3129 
Q 3597 2675 3597 1894 
z
M 3022 2063 
Q 3016 2534 2758 2815 
Q 2500 3097 2075 3097 
Q 1594 3097 1305 2825 
Q 1016 2553 972 2059 
L 3022 2063 
z
" transform="scale(0.015625)"/>
       <path id="DejaVuSans-72" d="M 2631 2963 
Q 2534 3019 2420 3045 
Q 2306 3072 2169 3072 
Q 1681 3072 1420 2755 
Q 1159 2438 1159 1844 
L 1159 0 
L 581 0 
L 581 3500 
L 1159 3500 
L 1159 2956 
Q 1341 3275 1631 3429 
Q 1922 3584 2338 3584 
Q 2397 3584 2469 3576 
Q 2541 3569 2628 3553 
L 2631 2963 
z
" transform="scale(0.015625)"/>
       <path id="DejaVuSans-20" transform="scale(0.015625)"/>
       <path id="DejaVuSans-6f" d="M 1959 3097 
Q 1497 3097 1228 2736 
Q 959 2375 959 1747 
Q 959 1119 1226 758 
Q 1494 397 1959 397 
Q 2419 397 2687 759 
Q 2956 1122 2956 1747 
Q 2956 2369 2687 2733 
Q 2419 3097 1959 3097 
z
M 1959 3584 
Q 2709 3584 3137 3096 
Q 3566 2609 3566 1747 
Q 3566 888 3137 398 
Q 2709 -91 1959 -91 
Q 1206 -91 779 398 
Q 353 888 353 1747 
Q 353 2609 779 3096 
Q 1206 3584 1959 3584 
z
" transform="scale(0.015625)"/>
       <path id="DejaVuSans-66" d="M 2375 4863 
L 2375 4384 
L 1825 4384 
Q 1516 4384 1395 4259 
Q 1275 4134 1275 3809 
L 1275 3500 
L 2222 3500 
L 2222 3053 
L 1275 3053 
L 1275 0 
L 697 0 
L 697 3053 
L 147 3053 
L 147 3500 
L 697 3500 
L 697 3744 
Q 697 4328 969 4595 
Q 1241 4863 1831 4863 
L 2375 4863 
z
" transform="scale(0.015625)"/>
       <path id="DejaVuSans-51" d="M 2522 4238 
Q 1834 4238 1429 3725 
Q 1025 3213 1025 2328 
Q 1025 1447 1429 934 
Q 1834 422 2522 422 
Q 3209 422 3611 934 
Q 4013 1447 4013 2328 
Q 4013 3213 3611 3725 
Q 3209 4238 2522 4238 
z
M 3406 84 
L 4238 -825 
L 3475 -825 
L 2784 -78 
Q 2681 -84 2626 -87 
Q 2572 -91 2522 -91 
Q 1538 -91 948 567 
Q 359 1225 359 2328 
Q 359 3434 948 4092 
Q 1538 4750 2522 4750 
Q 3503 4750 4090 4092 
Q 4678 3434 4678 2328 
Q 4678 1516 4351 937 
Q 4025 359 3406 84 
z
" transform="scale(0.015625)"/>
       <path id="DejaVuSans-69" d="M 603 3500 
L 1178 3500 
L 1178 0 
L 603 0 
L 603 3500 
z
M 603 4863 
L 1178 4863 
L 1178 4134 
L 603 4134 
L 603 4863 
z
" transform="scale(0.015625)"/>
       <path id="DejaVuSans-74" d="M 1172 4494 
L 1172 3500 
L 2356 3500 
L 2356 3053 
L 1172 3053 
L 1172 1153 
Q 1172 725 1289 603 
Q 1406 481 1766 481 
L 2356 481 
L 2356 0 
L 1766 0 
Q 1100 0 847 248 
Q 594 497 594 1153 
L 594 3053 
L 172 3053 
L 172 3500 
L 594 3500 
L 594 4494 
L 1172 4494 
z
" transform="scale(0.015625)"/>
       <path id="DejaVuSans-73" d="M 2834 3397 
L 2834 2853 
Q 2591 2978 2328 3040 
Q 2066 3103 1784 3103 
Q 1356 3103 1142 2972 
Q 928 2841 928 2578 
Q 928 2378 1081 2264 
Q 1234 2150 1697 2047 
L 1894 2003 
Q 2506 1872 2764 1633 
Q 3022 1394 3022 966 
Q 3022 478 2636 193 
Q 2250 -91 1575 -91 
Q 1294 -91 989 -36 
Q 684 19 347 128 
L 347 722 
Q 666 556 975 473 
Q 1284 391 1588 391 
Q 1994 391 2212 530 
Q 2431 669 2431 922 
Q 2431 1156 2273 1281 
Q 2116 1406 1581 1522 
L 1381 1569 
Q 847 1681 609 1914 
Q 372 2147 372 2553 
Q 372 3047 722 3315 
Q 1072 3584 1716 3584 
Q 2034 3584 2315 3537 
Q 2597 3491 2834 3397 
z
" transform="scale(0.015625)"/>
      </defs>
      <use xlink:href="#DejaVuSans-4e"/>
      <use xlink:href="#DejaVuSans-75" transform="translate(74.804688 0)"/>
      <use xlink:href="#DejaVuSans-6d" transform="translate(138.183594 0)"/>
      <use xlink:href="#DejaVuSans-62" transform="translate(235.595703 0)"/>
      <use xlink:href="#DejaVuSans-65" transform="translate(299.072266 0)"/>
      <use xlink:href="#DejaVuSans-72" transform="translate(360.595703 0)"/>
      <use xlink:href="#DejaVuSans-20" transform="translate(401.708984 0)"/>
      <use xlink:href="#DejaVuSans-6f" transform="translate(433.496094 0)"/>
      <use xlink:href="#DejaVuSans-66" transform="translate(494.677734 0)"/>
      <use xlink:href="#DejaVuSans-20" transform="translate(529.882812 0)"/>
      <use xlink:href="#DejaVuSans-51" transform="translate(561.669922 0)"/>
      <use xlink:href="#DejaVuSans-75" transform="translate(640.380859 0)"/>
      <use xlink:href="#DejaVuSans-62" transform="translate(703.759766 0)"/>
      <use xlink:href="#DejaVuSans-69" transform="translate(767.236328 0)"/>
      <use xlink:href="#DejaVuSans-74" transform="translate(795.019531 0)"/>
      <use xlink:href="#DejaVuSans-73" transform="translate(834.228516 0)"/>
     </g>
    </g>
   </g>
   <g id="matplotlib.axis_2">
    <g id="ytick_1">
     <g id="line2d_17">
      <path d="M 52.345938 360.205029 
L 638.190841 360.205029 
" clip-path="url(#p58171cc22f)" style="fill: none; stroke: #e1e0d9; stroke-width: 0.8; stroke-linecap: square"/>
     </g>
     <g id="line2d_18">
      <defs>
       <path id="m20e3e0d00c" d="M 0 0 
L -3.5 0 
" style="stroke: #898781; stroke-width: 0.8"/>
      </defs>
      <g>
       <use xlink:href="#m20e3e0d00c" x="52.345938" y="360.205029" style="fill: #898781; stroke: #898781; stroke-width: 0.8"/>
      </g>
     </g>
     <g id="text_10">
      <!-- $\mathdefault{10^{-2}}$ -->
      <g style="fill: #898781" transform="translate(21.845938 364.004248) scale(0.1 -0.1)">
       <defs>
        <path id="DejaVuSans-2212" d="M 678 2272 
L 4684 2272 
L 4684 1741 
L 678 1741 
L 678 2272 
z
" transform="scale(0.015625)"/>
       </defs>
       <use xlink:href="#DejaVuSans-31" transform="translate(0 0.765625)"/>
       <use xlink:href="#DejaVuSans-30" transform="translate(63.623047 0.765625)"/>
       <use xlink:href="#DejaVuSans-2212" transform="translate(128.203125 39.046875) scale(0.7)"/>
       <use xlink:href="#DejaVuSans-32" transform="translate(186.855469 39.046875) scale(0.7)"/>
      </g>
     </g>
    </g>
    <g id="ytick_2">
     <g id="line2d_19">
      <path d="M 52.345938 301.968801 
L 638.190841 301.968801 
" clip-path="url(#p58171cc22f)" style="fill: none; stroke: #e1e0d9; stroke-width: 0.8; stroke-linecap: square"/>
     </g>
     <g id="line2d_20">
      <g>
       <use xlink:href="#m20e3e0d00c" x="52.345938" y="301.968801" style="fill: #898781; stroke: #898781; stroke-width: 0.8"/>
      </g>
     </g>
     <g id="text_11">
      <!-- $\mathdefault{10^{-1}}$ -->
      <g style="fill: #898781" transform="translate(21.845938 305.768019) scale(0.1 -0.1)">
       <use xlink:href="#DejaVuSans-31" transform="translate(0 0.684375)"/>
       <use xlink:href="#DejaVuSans-30" transform="translate(63.623047 0.684375)"/>
       <use xlink:href="#DejaVuSans-2212" transform="translate(128.203125 38.965625) scale(0.7)"/>
       <use xlink:href="#DejaVuSans-31" transform="translate(186.855469 38.965625) scale(0.7)"/>
      </g>
     </g>
    </g>
    <g id="ytick_3">
     <g id="line2d_21">
      <path d="M 52.345938 243.732572 
L 638.190841 243.732572 
" clip-path="url(#p58171cc22f)" style="fill: none; stroke: #e1e0d9; stroke-width: 0.8; stroke-linecap: square"/>
     </g>
     <g id="line2d_22">
      <g>
       <use xlink:href="#m20e3e0d00c" x="52.345938" y="243.732572" style="fill: #898781; stroke: #898781; stroke-width: 0.8"/>
      </g>
     </g>
     <g id="text_12">
      <!-- $\mathdefault{10^{0}}$ -->
      <g style="fill: #898781" transform="translate(27.745938 247.531791) scale(0.1 -0.1)">
       <use xlink:href="#DejaVuSans-31" transform="translate(0 0.765625)"/>
       <use xlink:href="#DejaVuSans-30" transform="translate(63.623047 0.765625)"/>
       <use xlink:href="#DejaVuSans-30" transform="translate(128.203125 39.046875) scale(0.7)"/>
      </g>
     </g>
    </g>
    <g id="ytick_4">
     <g id="line2d_23">
      <path d="M 52.345938 185.496344 
L 638.190841 185.496344 
" clip-path="url(#p58171cc22f)" style="fill: none; stroke: #e1e0d9; stroke-width: 0.8; stroke-linecap: square"/>
     </g>
     <g id="line2d_24">
      <g>
       <use xlink:href="#m20e3e0d00c" x="52.345938" y="185.496344" style="fill: #898781; stroke: #898781; stroke-width: 0.8"/>
      </g>
     </g>
     <g id="text_13">
      <!-- $\mathdefault{10^{1}}$ -->
      <g style="fill: #898781" transform="translate(27.745938 189.295562) scale(0.1 -0.1)">
       <use xlink:href="#DejaVuSans-31" transform="translate(0 0.684375)"/>
       <use xlink:href="#DejaVuSans-30" transform="translate(63.623047 0.684375)"/>
       <use xlink:href="#DejaVuSans-31" transform="translate(128.203125 38.965625) scale(0.7)"/>
      </g>
     </g>
    </g>
    <g id="ytick_5">
     <g id="line2d_25">
      <path d="M 52.345938 127.260115 
L 638.190841 127.260115 
" clip-path="url(#p58171cc22f)" style="fill: none; stroke: #e1e0d9; stroke-width: 0.8; stroke-linecap: square"/>
     </g>
     <g id="line2d_26">
      <g>
       <use xlink:href="#m20e3e0d00c" x="52.345938" y="127.260115" style="fill: #898781; stroke: #898781; stroke-width: 0.8"/>
      </g>
     </g>
     <g id="text_14">
      <!-- $\mathdefault{10^{2}}$ -->
      <g style="fill: #898781" transform="translate(27.745938 131.059334) scale(0.1 -0.1)">
       <use xlink:href="#DejaVuSans-31" transform="translate(0 0.765625)"/>
       <use xlink:href="#DejaVuSans-30" transform="translate(63.623047 0.765625)"/>
       <use xlink:href="#DejaVuSans-32" transform="translate(128.203125 39.046875) scale(0.7)"/>
      </g>
     </g>
    </g>
    <g id="ytick_6">
     <g id="line2d_27">
      <path d="M 52.345938 69.023886 
L 638.190841 69.023886 
" clip-path="url(#p58171cc22f)" style="fill: none; stroke: #e1e0d9; stroke-width: 0.8; stroke-linecap: square"/>
     </g>
     <g id="line2d_28">
      <g>
       <use xlink:href="#m20e3e0d00c" x="52.345938" y="69.023886" style="fill: #898781; stroke: #898781; stroke-width: 0.8"/>
      </g>
     </g>
     <g id="text_15">
      <!-- $\mathdefault{10^{3}}$ -->
      <g style="fill: #898781" transform="translate(27.745938 72.823105) scale(0.1 -0.1)">
       <defs>
        <path id="DejaVuSans-33" d="M 2597 2516 
Q 3050 2419 3304 2112 
Q 3559 1806 3559 1356 
Q 3559 666 3084 287 
Q 2609 -91 1734 -91 
Q 1441 -91 1130 -33 
Q 819 25 488 141 
L 488 750 
Q 750 597 1062 519 
Q 1375 441 1716 441 
Q 2309 441 2620 675 
Q 2931 909 2931 1356 
Q 2931 1769 2642 2001 
Q 2353 2234 1838 2234 
L 1294 2234 
L 1294 2753 
L 1863 2753 
Q 2328 2753 2575 2939 
Q 2822 3125 2822 3475 
Q 2822 3834 2567 4026 
Q 2313 4219 1838 4219 
Q 1578 4219 1281 4162 
Q 984 4106 628 3988 
L 628 4550 
Q 988 4650 1302 4700 
Q 1616 4750 1894 4750 
Q 2613 4750 3031 4423 
Q 3450 4097 3450 3541 
Q 3450 3153 3228 2886 
Q 3006 2619 2597 2516 
z
" transform="scale(0.015625)"/>
       </defs>
       <use xlink:href="#DejaVuSans-31" transform="translate(0 0.765625)"/>
       <use xlink:href="#DejaVuSans-30" transform="translate(63.623047 0.765625)"/>
       <use xlink:href="#DejaVuSans-33" transform="translate(128.203125 39.046875) scale(0.7)"/>
      </g>
     </g>
    </g>
    <g id="ytick_7">
     <g id="line2d_29">
      <defs>
       <path id="m57fbd2a32f" d="M 0 0 
L -2 0 
" style="stroke: #000000; stroke-width: 0.6"/>
      </defs>
      <g>
       <use xlink:href="#m57fbd2a32f" x="52.345938" y="383.379555" style="stroke: #000000; stroke-width: 0.6"/>
      </g>
     </g>
    </g>
    <g id="ytick_8">
     <g id="line2d_30">
      <g>
       <use xlink:href="#m57fbd2a32f" x="52.345938" y="377.735881" style="stroke: #000000; stroke-width: 0.6"/>
      </g>
     </g>
    </g>
    <g id="ytick_9">
     <g id="line2d_31">
      <g>
       <use xlink:href="#m57fbd2a32f" x="52.345938" y="373.124664" style="stroke: #000000; stroke-width: 0.6"/>
      </g>
     </g>
    </g>
    <g id="ytick_10">
     <g id="line2d_32">
      <g>
       <use xlink:href="#m57fbd2a32f" x="52.345938" y="369.225935" style="stroke: #000000; stroke-width: 0.6"/>
      </g>
     </g>
    </g>
    <g id="ytick_11">
     <g id="line2d_33">
      <g>
       <use xlink:href="#m57fbd2a32f" x="52.345938" y="365.848703" style="stroke: #000000; stroke-width: 0.6"/>
      </g>
     </g>
    </g>
    <g id="ytick_12">
     <g id="line2d_34">
      <g>
       <use xlink:href="#m57fbd2a32f" x="52.345938" y="362.869773" style="stroke: #000000; stroke-width: 0.6"/>
      </g>
     </g>
    </g>
    <g id="ytick_13">
     <g id="line2d_35">
      <g>
       <use xlink:href="#m57fbd2a32f" x="52.345938" y="342.674178" style="stroke: #000000; stroke-width: 0.6"/>
      </g>
     </g>
    </g>
    <g id="ytick_14">
     <g id="line2d_36">
      <g>
       <use xlink:href="#m57fbd2a32f" x="52.345938" y="332.419287" style="stroke: #000000; stroke-width: 0.6"/>
      </g>
     </g>
    </g>
    <g id="ytick_15">
     <g id="line2d_37">
      <g>
       <use xlink:href="#m57fbd2a32f" x="52.345938" y="325.143326" style="stroke: #000000; stroke-width: 0.6"/>
      </g>
     </g>
    </g>
    <g id="ytick_16">
     <g id="line2d_38">
      <g>
       <use xlink:href="#m57fbd2a32f" x="52.345938" y="319.499652" style="stroke: #000000; stroke-width: 0.6"/>
      </g>
     </g>
    </g>
    <g id="ytick_17">
     <g id="line2d_39">
      <g>
       <use xlink:href="#m57fbd2a32f" x="52.345938" y="314.888435" style="stroke: #000000; stroke-width: 0.6"/>
      </g>
     </g>
    </g>
    <g id="ytick_18">
     <g id="line2d_40">
      <g>
       <use xlink:href="#m57fbd2a32f" x="52.345938" y="310.989707" style="stroke: #000000; stroke-width: 0.6"/>
      </g>
     </g>
    </g>
    <g id="ytick_19">
     <g id="line2d_41">
      <g>
       <use xlink:href="#m57fbd2a32f" x="52.345938" y="307.612474" style="stroke: #000000; stroke-width: 0.6"/>
      </g>
     </g>
    </g>
    <g id="ytick_20">
     <g id="line2d_42">
      <g>
       <use xlink:href="#m57fbd2a32f" x="52.345938" y="304.633544" style="stroke: #000000; stroke-width: 0.6"/>
      </g>
     </g>
    </g>
    <g id="ytick_21">
     <g id="line2d_43">
      <g>
       <use xlink:href="#m57fbd2a32f" x="52.345938" y="284.437949" style="stroke: #000000; stroke-width: 0.6"/>
      </g>
     </g>
    </g>
    <g id="ytick_22">
     <g id="line2d_44">
      <g>
       <use xlink:href="#m57fbd2a32f" x="52.345938" y="274.183058" style="stroke: #000000; stroke-width: 0.6"/>
      </g>
     </g>
    </g>
    <g id="ytick_23">
     <g id="line2d_45">
      <g>
       <use xlink:href="#m57fbd2a32f" x="52.345938" y="266.907097" style="stroke: #000000; stroke-width: 0.6"/>
      </g>
     </g>
    </g>
    <g id="ytick_24">
     <g id="line2d_46">
      <g>
       <use xlink:href="#m57fbd2a32f" x="52.345938" y="261.263424" style="stroke: #000000; stroke-width: 0.6"/>
      </g>
     </g>
    </g>
    <g id="ytick_25">
     <g id="line2d_47">
      <g>
       <use xlink:href="#m57fbd2a32f" x="52.345938" y="256.652207" style="stroke: #000000; stroke-width: 0.6"/>
      </g>
     </g>
    </g>
    <g id="ytick_26">
     <g id="line2d_48">
      <g>
       <use xlink:href="#m57fbd2a32f" x="52.345938" y="252.753478" style="stroke: #000000; stroke-width: 0.6"/>
      </g>
     </g>
    </g>
    <g id="ytick_27">
     <g id="line2d_49">
      <g>
       <use xlink:href="#m57fbd2a32f" x="52.345938" y="249.376246" style="stroke: #000000; stroke-width: 0.6"/>
      </g>
     </g>
    </g>
    <g id="ytick_28">
     <g id="line2d_50">
      <g>
       <use xlink:href="#m57fbd2a32f" x="52.345938" y="246.397316" style="stroke: #000000; stroke-width: 0.6"/>
      </g>
     </g>
    </g>
    <g id="ytick_29">
     <g id="line2d_51">
      <g>
       <use xlink:href="#m57fbd2a32f" x="52.345938" y="226.201721" style="stroke: #000000; stroke-width: 0.6"/>
      </g>
     </g>
    </g>
    <g id="ytick_30">
     <g id="line2d_52">
      <g>
       <use xlink:href="#m57fbd2a32f" x="52.345938" y="215.94683" style="stroke: #000000; stroke-width: 0.6"/>
      </g>
     </g>
    </g>
    <g id="ytick_31">
     <g id="line2d_53">
      <g>
       <use xlink:href="#m57fbd2a32f" x="52.345938" y="208.670869" style="stroke: #000000; stroke-width: 0.6"/>
      </g>
     </g>
    </g>
    <g id="ytick_32">
     <g id="line2d_54">
      <g>
       <use xlink:href="#m57fbd2a32f" x="52.345938" y="203.027195" style="stroke: #000000; stroke-width: 0.6"/>
      </g>
     </g>
    </g>
    <g id="ytick_33">
     <g id="line2d_55">
      <g>
       <use xlink:href="#m57fbd2a32f" x="52.345938" y="198.415978" style="stroke: #000000; stroke-width: 0.6"/>
      </g>
     </g>
    </g>
    <g id="ytick_34">
     <g id="line2d_56">
      <g>
       <use xlink:href="#m57fbd2a32f" x="52.345938" y="194.51725" style="stroke: #000000; stroke-width: 0.6"/>
      </g>
     </g>
    </g>
    <g id="ytick_35">
     <g id="line2d_57">
      <g>
       <use xlink:href="#m57fbd2a32f" x="52.345938" y="191.140017" style="stroke: #000000; stroke-width: 0.6"/>
      </g>
     </g>
    </g>
    <g id="ytick_36">
     <g id="line2d_58">
      <g>
       <use xlink:href="#m57fbd2a32f" x="52.345938" y="188.161087" style="stroke: #000000; stroke-width: 0.6"/>
      </g>
     </g>
    </g>
    <g id="ytick_37">
     <g id="line2d_59">
      <g>
       <use xlink:href="#m57fbd2a32f" x="52.345938" y="167.965492" style="stroke: #000000; stroke-width: 0.6"/>
      </g>
     </g>
    </g>
    <g id="ytick_38">
     <g id="line2d_60">
      <g>
       <use xlink:href="#m57fbd2a32f" x="52.345938" y="157.710601" style="stroke: #000000; stroke-width: 0.6"/>
      </g>
     </g>
    </g>
    <g id="ytick_39">
     <g id="line2d_61">
      <g>
       <use xlink:href="#m57fbd2a32f" x="52.345938" y="150.43464" style="stroke: #000000; stroke-width: 0.6"/>
      </g>
     </g>
    </g>
    <g id="ytick_40">
     <g id="line2d_62">
      <g>
       <use xlink:href="#m57fbd2a32f" x="52.345938" y="144.790967" style="stroke: #000000; stroke-width: 0.6"/>
      </g>
     </g>
    </g>
    <g id="ytick_41">
     <g id="line2d_63">
      <g>
       <use xlink:href="#m57fbd2a32f" x="52.345938" y="140.17975" style="stroke: #000000; stroke-width: 0.6"/>
      </g>
     </g>
    </g>
    <g id="ytick_42">
     <g id="line2d_64">
      <g>
       <use xlink:href="#m57fbd2a32f" x="52.345938" y="136.281021" style="stroke: #000000; stroke-width: 0.6"/>
      </g>
     </g>
    </g>
    <g id="ytick_43">
     <g id="line2d_65">
      <g>
       <use xlink:href="#m57fbd2a32f" x="52.345938" y="132.903789" style="stroke: #000000; stroke-width: 0.6"/>
      </g>
     </g>
    </g>
    <g id="ytick_44">
     <g id="line2d_66">
      <g>
       <use xlink:href="#m57fbd2a32f" x="52.345938" y="129.924859" style="stroke: #000000; stroke-width: 0.6"/>
      </g>
     </g>
    </g>
    <g id="ytick_45">
     <g id="line2d_67">
      <g>
       <use xlink:href="#m57fbd2a32f" x="52.345938" y="109.729263" style="stroke: #000000; stroke-width: 0.6"/>
      </g>
     </g>
    </g>
    <g id="ytick_46">
     <g id="line2d_68">
      <g>
       <use xlink:href="#m57fbd2a32f" x="52.345938" y="99.474373" style="stroke: #000000; stroke-width: 0.6"/>
      </g>
     </g>
    </g>
    <g id="ytick_47">
     <g id="line2d_69">
      <g>
       <use xlink:href="#m57fbd2a32f" x="52.345938" y="92.198412" style="stroke: #000000; stroke-width: 0.6"/>
      </g>
     </g>
    </g>
    <g id="ytick_48">
     <g id="line2d_70">
      <g>
       <use xlink:href="#m57fbd2a32f" x="52.345938" y="86.554738" style="stroke: #000000; stroke-width: 0.6"/>
      </g>
     </g>
    </g>
    <g id="ytick_49">
     <g id="line2d_71">
      <g>
       <use xlink:href="#m57fbd2a32f" x="52.345938" y="81.943521" style="stroke: #000000; stroke-width: 0.6"/>
      </g>
     </g>
    </g>
    <g id="ytick_50">
     <g id="line2d_72">
      <g>
       <use xlink:href="#m57fbd2a32f" x="52.345938" y="78.044792" style="stroke: #000000; stroke-width: 0.6"/>
      </g>
     </g>
    </g>
    <g id="ytick_51">
     <g id="line2d_73">
      <g>
       <use xlink:href="#m57fbd2a32f" x="52.345938" y="74.66756" style="stroke: #000000; stroke-width: 0.6"/>
      </g>
     </g>
    </g>
    <g id="ytick_52">
     <g id="line2d_74">
      <g>
       <use xlink:href="#m57fbd2a32f" x="52.345938" y="71.68863" style="stroke: #000000; stroke-width: 0.6"/>
      </g>
     </g>
    </g>
    <g id="ytick_53">
     <g id="line2d_75">
      <g>
       <use xlink:href="#m57fbd2a32f" x="52.345938" y="51.493035" style="stroke: #000000; stroke-width: 0.6"/>
      </g>
     </g>
    </g>
    <g id="ytick_54">
     <g id="line2d_76">
      <g>
       <use xlink:href="#m57fbd2a32f" x="52.345938" y="41.238144" style="stroke: #000000; stroke-width: 0.6"/>
      </g>
     </g>
    </g>
    <g id="ytick_55">
     <g id="line2d_77">
      <g>
       <use xlink:href="#m57fbd2a32f" x="52.345938" y="33.962183" style="stroke: #000000; stroke-width: 0.6"/>
      </g>
     </g>
    </g>
    <g id="text_16">
     <!-- Runtime [s] -->
     <g style="fill: #52514e" transform="translate(15.558281 240.173906) rotate(-90) scale(0.11 -0.11)">
      <defs>
       <path id="DejaVuSans-52" d="M 2841 2188 
Q 3044 2119 3236 1894 
Q 3428 1669 3622 1275 
L 4263 0 
L 3584 0 
L 2988 1197 
Q 2756 1666 2539 1819 
Q 2322 1972 1947 1972 
L 1259 1972 
L 1259 0 
L 628 0 
L 628 4666 
L 2053 4666 
Q 2853 4666 3247 4331 
Q 3641 3997 3641 3322 
Q 3641 2881 3436 2590 
Q 3231 2300 2841 2188 
z
M 1259 4147 
L 1259 2491 
L 2053 2491 
Q 2509 2491 2742 2702 
Q 2975 2913 2975 3322 
Q 2975 3731 2742 3939 
Q 2509 4147 2053 4147 
L 1259 4147 
z
" transform="scale(0.015625)"/>
       <path id="DejaVuSans-6e" d="M 3513 2113 
L 3513 0 
L 2938 0 
L 2938 2094 
Q 2938 2591 2744 2837 
Q 2550 3084 2163 3084 
Q 1697 3084 1428 2787 
Q 1159 2491 1159 1978 
L 1159 0 
L 581 0 
L 581 3500 
L 1159 3500 
L 1159 2956 
Q 1366 3272 1645 3428 
Q 1925 3584 2291 3584 
Q 2894 3584 3203 3211 
Q 3513 2838 3513 2113 
z
" transform="scale(0.015625)"/>
       <path id="DejaVuSans-5b" d="M 550 4863 
L 1875 4863 
L 1875 4416 
L 1125 4416 
L 1125 -397 
L 1875 -397 
L 1875 -844 
L 550 -844 
L 550 4863 
z
" transform="scale(0.015625)"/>
       <path id="DejaVuSans-5d" d="M 1947 4863 
L 1947 -844 
L 622 -844 
L 622 -397 
L 1369 -397 
L 1369 4416 
L 622 4416 
L 622 4863 
L 1947 4863 
z
" transform="scale(0.015625)"/>
      </defs>
      <use xlink:href="#DejaVuSans-52"/>
      <use xlink:href="#DejaVuSans-75" transform="translate(64.982422 0)"/>
      <use xlink:href="#DejaVuSans-6e" transform="translate(128.361328 0)"/>
      <use xlink:href="#DejaVuSans-74" transform="translate(191.740234 0)"/>
      <use xlink:href="#DejaVuSans-69" transform="translate(230.949219 0)"/>
      <use xlink:href="#DejaVuSans-6d" transform="translate(258.732422 0)"/>
      <use xlink:href="#DejaVuSans-65" transform="translate(356.144531 0)"/>
      <use xlink:href="#DejaVuSans-20" transform="translate(417.667969 0)"/>
      <use xlink:href="#DejaVuSans-5b" transform="translate(449.455078 0)"/>
      <use xlink:href="#DejaVuSans-73" transform="translate(488.46875 0)"/>
      <use xlink:href="#DejaVuSans-5d" transform="translate(540.568359 0)"/>
     </g>
    </g>
   </g>
   <g id="FillBetweenPolyCollection_1">
    <path d="M 78.975251 251.02594 
L 78.975251 58479.96114 
L 117.017128 320.264143 
L 155.059005 58479.96114 
L 193.100882 346.057469 
L 231.142759 315.960355 
L 269.184636 277.414746 
L 307.226513 311.030828 
L 345.268389 294.172837 
L 383.310266 262.99814 
L 421.352143 231.585646 
L 459.39402 196.103761 
L 497.435897 158.882486 
L 535.477774 121.769284 
L 573.519651 84.596519 
L 611.561528 47.366914 
L 611.561528 47.188878 
L 611.561528 47.188878 
L 573.519651 84.208907 
L 535.477774 121.46511 
L 497.435897 158.256659 
L 459.39402 194.118054 
L 421.352143 225.346869 
L 383.310266 247.607764 
L 345.268389 255.988559 
L 307.226513 262.50103 
L 269.184636 254.400276 
L 231.142759 267.660957 
L 193.100882 279.69012 
L 155.059005 283.785207 
L 117.017128 318.976596 
L 78.975251 251.02594 
z
" clip-path="url(#p58171cc22f)" style="fill: #2a78d6; fill-opacity: 0.15"/>
   </g>
   <g id="FillBetweenPolyCollection_2">
    <path d="M 78.975251 351.56897 
L 78.975251 58479.96114 
L 117.017128 364.784807 
L 155.059005 354.778289 
L 193.100882 336.117157 
L 231.142759 326.484785 
L 269.184636 319.626257 
L 307.226513 312.037325 
L 345.268389 301.631459 
L 383.310266 285.726276 
L 421.352143 267.675622 
L 459.39402 250.096114 
L 497.435897 231.957503 
L 535.477774 213.094457 
L 573.519651 194.284134 
L 611.561528 171.88765 
L 611.561528 168.955766 
L 611.561528 168.955766 
L 573.519651 193.76539 
L 535.477774 212.46111 
L 497.435897 230.424103 
L 459.39402 248.926182 
L 421.352143 266.506178 
L 383.310266 284.507149 
L 345.268389 300.599433 
L 307.226513 310.788779 
L 269.184636 317.725528 
L 231.142759 322.902705 
L 193.100882 332.131392 
L 155.059005 346.741102 
L 117.017128 354.732225 
L 78.975251 351.56897 
z
" clip-path="url(#p58171cc22f)" style="fill: #eb6834; fill-opacity: 0.15"/>
   </g>
   <g id="FillBetweenPolyCollection_3">
    <defs>
     <path id="m074d82a5c0" d="M 78.975251 -106.166362 
L 78.975251 -104.304754 
L 117.017128 -119.588922 
L 155.059005 -128.9965 
L 193.100882 -142.343129 
L 231.142759 -150.085516 
L 269.184636 -153.022582 
L 307.226513 -156.381173 
L 345.268389 -158.679326 
L 383.310266 -164.402246 
L 421.352143 -174.895639 
L 459.39402 -192.176437 
L 497.435897 -211.180833 
L 535.477774 -229.712624 
L 573.519651 -248.682637 
L 611.561528 -270.997676 
L 611.561528 -273.837612 
L 611.561528 -273.837612 
L 573.519651 -249.222584 
L 535.477774 -230.141037 
L 497.435897 -211.774771 
L 459.39402 -193.867458 
L 421.352143 -177.712285 
L 383.310266 -165.833199 
L 345.268389 -160.231401 
L 307.226513 -157.392898 
L 269.184636 -153.843026 
L 231.142759 -151.179397 
L 193.100882 -143.410228 
L 155.059005 -129.973118 
L 117.017128 -120.955602 
L 78.975251 -106.166362 
z
"/>
    </defs>
    <g clip-path="url(#p58171cc22f)">
     <use xlink:href="#m074d82a5c0" x="0" y="424.042031" style="fill: #1baf7a; fill-opacity: 0.15"/>
    </g>
   </g>
   <g id="FillBetweenPolyCollection_4">
    <defs>
     <path id="m4f06641369" d="M 78.975251 -146.48901 
L 78.975251 -145.123635 
L 117.017128 -160.23401 
L 155.059005 -169.587052 
L 193.100882 -182.823254 
L 231.142759 -191.064744 
L 269.184636 -194.088721 
L 307.226513 -196.96071 
L 345.268389 -199.591854 
L 383.310266 -205.062542 
L 421.352143 -215.488982 
L 459.39402 -233.310565 
L 497.435897 -251.92614 
L 535.477774 -270.450767 
L 573.519651 -289.39142 
L 611.561528 -311.397497 
L 611.561528 -314.406928 
L 611.561528 -314.406928 
L 573.519651 -289.850131 
L 535.477774 -270.746668 
L 497.435897 -252.335703 
L 459.39402 -233.739781 
L 421.352143 -217.00934 
L 383.310266 -206.07934 
L 345.268389 -200.700004 
L 307.226513 -197.972022 
L 269.184636 -194.622761 
L 231.142759 -191.740163 
L 193.100882 -184.105523 
L 155.059005 -170.307685 
L 117.017128 -161.265167 
L 78.975251 -146.48901 
z
"/>
    </defs>
    <g clip-path="url(#p58171cc22f)">
     <use xlink:href="#m4f06641369" x="0" y="424.042031" style="fill: #4a3aa7; fill-opacity: 0.15"/>
    </g>
   </g>
   <g id="FillBetweenPolyCollection_5">
    <defs>
     <path id="mfc40159126" d="M 78.975251 -163.685599 
L 78.975251 -162.671878 
L 117.017128 -177.681634 
L 155.059005 -187.113819 
L 193.100882 -200.347297 
L 231.142759 -208.463691 
L 269.184636 -211.48414 
L 307.226513 -214.454275 
L 345.268389 -217.097034 
L 383.310266 -222.40522 
L 421.352143 -233.127182 
L 459.39402 -250.836406 
L 497.435897 -269.540101 
L 535.477774 -288.004278 
L 573.519651 -306.922752 
L 611.561528 -330.187961 
L 611.561528 -330.842887 
L 611.561528 -330.842887 
L 573.519651 -307.387351 
L 535.477774 -288.265586 
L 497.435897 -269.781718 
L 459.39402 -251.231117 
L 421.352143 -234.407913 
L 383.310266 -223.266646 
L 345.268389 -217.919226 
L 307.226513 -215.372151 
L 269.184636 -212.066202 
L 231.142759 -209.128564 
L 193.100882 -201.59439 
L 155.059005 -187.762214 
L 117.017128 -178.72835 
L 78.975251 -163.685599 
z
"/>
    </defs>
    <g clip-path="url(#p58171cc22f)">
     <use xlink:href="#mfc40159126" x="0" y="424.042031" style="fill: #e34948; fill-opacity: 0.15"/>
    </g>
   </g>
   <g id="patch_3">
    <path d="M 52.345938 385.517969 
L 52.345938 31.077969 
" style="fill: none; stroke: #c3c2b7; stroke-width: 0.8; stroke-linejoin: miter; stroke-linecap: square"/>
   </g>
   <g id="patch_4">
    <path d="M 52.345938 385.517969 
L 638.190841 385.517969 
" style="fill: none; stroke: #c3c2b7; stroke-width: 0.8; stroke-linejoin: miter; stroke-linecap: square"/>
   </g>
   <g id="text_17">
    <!-- Runtime of Density Matrix vs MCWF Simulations -->
    <g style="fill: #0b0b0b" transform="translate(167.985968 17.077969) scale(0.13 -0.13)">
     <defs>
      <path id="DejaVuSans-Bold-52" d="M 2297 2597 
Q 2675 2597 2839 2737 
Q 3003 2878 3003 3200 
Q 3003 3519 2839 3656 
Q 2675 3794 2297 3794 
L 1791 3794 
L 1791 2597 
L 2297 2597 
z
M 1791 1766 
L 1791 0 
L 588 0 
L 588 4666 
L 2425 4666 
Q 3347 4666 3776 4356 
Q 4206 4047 4206 3378 
Q 4206 2916 3982 2619 
Q 3759 2322 3309 2181 
Q 3556 2125 3751 1926 
Q 3947 1728 4147 1325 
L 4800 0 
L 3519 0 
L 2950 1159 
Q 2778 1509 2601 1637 
Q 2425 1766 2131 1766 
L 1791 1766 
z
" transform="scale(0.015625)"/>
      <path id="DejaVuSans-Bold-75" d="M 500 1363 
L 500 3500 
L 1625 3500 
L 1625 3150 
Q 1625 2866 1622 2436 
Q 1619 2006 1619 1863 
Q 1619 1441 1641 1255 
Q 1663 1069 1716 984 
Q 1784 875 1895 815 
Q 2006 756 2150 756 
Q 2500 756 2700 1025 
Q 2900 1294 2900 1772 
L 2900 3500 
L 4019 3500 
L 4019 0 
L 2900 0 
L 2900 506 
Q 2647 200 2364 54 
Q 2081 -91 1741 -91 
Q 1134 -91 817 281 
Q 500 653 500 1363 
z
" transform="scale(0.015625)"/>
      <path id="DejaVuSans-Bold-6e" d="M 4056 2131 
L 4056 0 
L 2931 0 
L 2931 347 
L 2931 1631 
Q 2931 2084 2911 2256 
Q 2891 2428 2841 2509 
Q 2775 2619 2662 2680 
Q 2550 2741 2406 2741 
Q 2056 2741 1856 2470 
Q 1656 2200 1656 1722 
L 1656 0 
L 538 0 
L 538 3500 
L 1656 3500 
L 1656 2988 
Q 1909 3294 2193 3439 
Q 2478 3584 2822 3584 
Q 3428 3584 3742 3212 
Q 4056 2841 4056 2131 
z
" transform="scale(0.015625)"/>
      <path id="DejaVuSans-Bold-74" d="M 1759 4494 
L 1759 3500 
L 2913 3500 
L 2913 2700 
L 1759 2700 
L 1759 1216 
Q 1759 972 1856 886 
Q 1953 800 2241 800 
L 2816 800 
L 2816 0 
L 1856 0 
Q 1194 0 917 276 
Q 641 553 641 1216 
L 641 2700 
L 84 2700 
L 84 3500 
L 641 3500 
L 641 4494 
L 1759 4494 
z
" transform="scale(0.015625)"/>
      <path id="DejaVuSans-Bold-69" d="M 538 3500 
L 1656 3500 
L 1656 0 
L 538 0 
L 538 3500 
z
M 538 4863 
L 1656 4863 
L 1656 3950 
L 538 3950 
L 538 4863 
z
" transform="scale(0.015625)"/>
      <path id="DejaVuSans-Bold-6d" d="M 3781 2919 
Q 3994 3244 4286 3414 
Q 4578 3584 4928 3584 
Q 5531 3584 5847 3212 
Q 6163 2841 6163 2131 
L 6163 0 
L 5038 0 
L 5038 1825 
Q 5041 1866 5042 1909 
Q 5044 1953 5044 2034 
Q 5044 2406 4934 2573 
Q 4825 2741 4581 2741 
Q 4263 2741 4089 2478 
Q 3916 2216 3909 1719 
L 3909 0 
L 2784 0 
L 2784 1825 
Q 2784 2406 2684 2573 
Q 2584 2741 2328 2741 
Q 2006 2741 1831 2477 
Q 1656 2213 1656 1722 
L 1656 0 
L 531 0 
L 531 3500 
L 1656 3500 
L 1656 2988 
Q 1863 3284 2130 3434 
Q 2397 3584 2719 3584 
Q 3081 3584 3359 3409 
Q 3638 3234 3781 2919 
z
" transform="scale(0.015625)"/>
      <path id="DejaVuSans-Bold-65" d="M 4031 1759 
L 4031 1441 
L 1416 1441 
Q 1456 1047 1700 850 
Q 1944 653 2381 653 
Q 2734 653 3104 758 
Q 3475 863 3866 1075 
L 3866 213 
Q 3469 63 3072 -14 
Q 2675 -91 2278 -91 
Q 1328 -91 801 392 
Q 275 875 275 1747 
Q 275 2603 792 3093 
Q 1309 3584 2216 3584 
Q 3041 3584 3536 3087 
Q 4031 2591 4031 1759 
z
M 2881 2131 
Q 2881 2450 2695 2645 
Q 2509 2841 2209 2841 
Q 1884 2841 1681 2658 
Q 1478 2475 1428 2131 
L 2881 2131 
z
" transform="scale(0.015625)"/>
      <path id="DejaVuSans-Bold-20" transform="scale(0.015625)"/>
      <path id="DejaVuSans-Bold-6f" d="M 2203 2784 
Q 1831 2784 1636 2517 
Q 1441 2250 1441 1747 
Q 1441 1244 1636 976 
Q 1831 709 2203 709 
Q 2569 709 2762 976 
Q 2956 1244 2956 1747 
Q 2956 2250 2762 2517 
Q 2569 2784 2203 2784 
z
M 2203 3584 
Q 3106 3584 3614 3096 
Q 4122 2609 4122 1747 
Q 4122 884 3614 396 
Q 3106 -91 2203 -91 
Q 1297 -91 786 396 
Q 275 884 275 1747 
Q 275 2609 786 3096 
Q 1297 3584 2203 3584 
z
" transform="scale(0.015625)"/>
      <path id="DejaVuSans-Bold-66" d="M 2841 4863 
L 2841 4128 
L 2222 4128 
Q 1984 4128 1890 4042 
Q 1797 3956 1797 3744 
L 1797 3500 
L 2753 3500 
L 2753 2700 
L 1797 2700 
L 1797 0 
L 678 0 
L 678 2700 
L 122 2700 
L 122 3500 
L 678 3500 
L 678 3744 
Q 678 4316 997 4589 
Q 1316 4863 1984 4863 
L 2841 4863 
z
" transform="scale(0.015625)"/>
      <path id="DejaVuSans-Bold-44" d="M 1791 3756 
L 1791 909 
L 2222 909 
Q 2959 909 3348 1275 
Q 3738 1641 3738 2338 
Q 3738 3031 3350 3393 
Q 2963 3756 2222 3756 
L 1791 3756 
z
M 588 4666 
L 1856 4666 
Q 2919 4666 3439 4514 
Q 3959 4363 4331 4000 
Q 4659 3684 4818 3271 
Q 4978 2859 4978 2338 
Q 4978 1809 4818 1395 
Q 4659 981 4331 666 
Q 3956 303 3431 151 
Q 2906 0 1856 0 
L 588 0 
L 588 4666 
z
" transform="scale(0.015625)"/>
      <path id="DejaVuSans-Bold-73" d="M 3272 3391 
L 3272 2541 
Q 2913 2691 2578 2766 
Q 2244 2841 1947 2841 
Q 1628 2841 1473 2761 
Q 1319 2681 1319 2516 
Q 1319 2381 1436 2309 
Q 1553 2238 1856 2203 
L 2053 2175 
Q 2913 2066 3209 1816 
Q 3506 1566 3506 1031 
Q 3506 472 3093 190 
Q 2681 -91 1863 -91 
Q 1516 -91 1145 -36 
Q 775 19 384 128 
L 384 978 
Q 719 816 1070 734 
Q 1422 653 1784 653 
Q 2113 653 2278 743 
Q 2444 834 2444 1013 
Q 2444 1163 2330 1236 
Q 2216 1309 1875 1350 
L 1678 1375 
Q 931 1469 631 1722 
Q 331 1975 331 2491 
Q 331 3047 712 3315 
Q 1094 3584 1881 3584 
Q 2191 3584 2531 3537 
Q 2872 3491 3272 3391 
z
" transform="scale(0.015625)"/>
      <path id="DejaVuSans-Bold-79" d="M 78 3500 
L 1197 3500 
L 2138 1125 
L 2938 3500 
L 4056 3500 
L 2584 -331 
Q 2363 -916 2067 -1148 
Q 1772 -1381 1288 -1381 
L 641 -1381 
L 641 -647 
L 991 -647 
Q 1275 -647 1404 -556 
Q 1534 -466 1606 -231 
L 1638 -134 
L 78 3500 
z
" transform="scale(0.015625)"/>
      <path id="DejaVuSans-Bold-4d" d="M 588 4666 
L 2119 4666 
L 3181 2169 
L 4250 4666 
L 5778 4666 
L 5778 0 
L 4641 0 
L 4641 3413 
L 3566 897 
L 2803 897 
L 1728 3413 
L 1728 0 
L 588 0 
L 588 4666 
z
" transform="scale(0.015625)"/>
      <path id="DejaVuSans-Bold-61" d="M 2106 1575 
Q 1756 1575 1579 1456 
Q 1403 1338 1403 1106 
Q 1403 894 1545 773 
Q 1688 653 1941 653 
Q 2256 653 2472 879 
Q 2688 1106 2688 1447 
L 2688 1575 
L 2106 1575 
z
M 3816 1997 
L 3816 0 
L 2688 0 
L 2688 519 
Q 2463 200 2181 54 
Q 1900 -91 1497 -91 
Q 953 -91 614 226 
Q 275 544 275 1050 
Q 275 1666 698 1953 
Q 1122 2241 2028 2241 
L 2688 2241 
L 2688 2328 
Q 2688 2594 2478 2717 
Q 2269 2841 1825 2841 
Q 1466 2841 1156 2769 
Q 847 2697 581 2553 
L 581 3406 
Q 941 3494 1303 3539 
Q 1666 3584 2028 3584 
Q 2975 3584 3395 3211 
Q 3816 2838 3816 1997 
z
" transform="scale(0.015625)"/>
      <path id="DejaVuSans-Bold-72" d="M 3138 2547 
Q 2991 2616 2845 2648 
Q 2700 2681 2553 2681 
Q 2122 2681 1889 2404 
Q 1656 2128 1656 1613 
L 1656 0 
L 538 0 
L 538 3500 
L 1656 3500 
L 1656 2925 
Q 1872 3269 2151 3426 
Q 2431 3584 2822 3584 
Q 2878 3584 2943 3579 
Q 3009 3575 3134 3559 
L 3138 2547 
z
" transform="scale(0.015625)"/>
      <path id="DejaVuSans-Bold-78" d="M 1422 1791 
L 159 3500 
L 1344 3500 
L 2059 2463 
L 2784 3500 
L 3969 3500 
L 2706 1797 
L 4031 0 
L 2847 0 
L 2059 1106 
L 1281 0 
L 97 0 
L 1422 1791 
z
" transform="scale(0.015625)"/>
      <path id="DejaVuSans-Bold-76" d="M 97 3500 
L 1216 3500 
L 2088 1081 
L 2956 3500 
L 4078 3500 
L 2700 0 
L 1472 0 
L 97 3500 
z
" transform="scale(0.015625)"/>
      <path id="DejaVuSans-Bold-43" d="M 4288 256 
Q 3956 84 3597 -3 
Q 3238 -91 2847 -91 
Q 1681 -91 1000 561 
Q 319 1213 319 2328 
Q 319 3447 1000 4098 
Q 1681 4750 2847 4750 
Q 3238 4750 3597 4662 
Q 3956 4575 4288 4403 
L 4288 3438 
Q 3953 3666 3628 3772 
Q 3303 3878 2944 3878 
Q 2300 3878 1931 3465 
Q 1563 3053 1563 2328 
Q 1563 1606 1931 1193 
Q 2300 781 2944 781 
Q 3303 781 3628 887 
Q 3953 994 4288 1222 
L 4288 256 
z
" transform="scale(0.015625)"/>
      <path id="DejaVuSans-Bold-57" d="M 191 4666 
L 1344 4666 
L 2150 1275 
L 2950 4666 
L 4109 4666 
L 4909 1275 
L 5716 4666 
L 6859 4666 
L 5759 0 
L 4372 0 
L 3525 3547 
L 2688 0 
L 1300 0 
L 191 4666 
z
" transform="scale(0.015625)"/>
      <path id="DejaVuSans-Bold-46" d="M 588 4666 
L 3834 4666 
L 3834 3756 
L 1791 3756 
L 1791 2888 
L 3713 2888 
L 3713 1978 
L 1791 1978 
L 1791 0 
L 588 0 
L 588 4666 
z
" transform="scale(0.015625)"/>
      <path id="DejaVuSans-Bold-53" d="M 3834 4519 
L 3834 3531 
Q 3450 3703 3084 3790 
Q 2719 3878 2394 3878 
Q 1963 3878 1756 3759 
Q 1550 3641 1550 3391 
Q 1550 3203 1689 3098 
Q 1828 2994 2194 2919 
L 2706 2816 
Q 3484 2659 3812 2340 
Q 4141 2022 4141 1434 
Q 4141 663 3683 286 
Q 3225 -91 2284 -91 
Q 1841 -91 1394 -6 
Q 947 78 500 244 
L 500 1259 
Q 947 1022 1364 901 
Q 1781 781 2169 781 
Q 2563 781 2772 912 
Q 2981 1044 2981 1288 
Q 2981 1506 2839 1625 
Q 2697 1744 2272 1838 
L 1806 1941 
Q 1106 2091 782 2419 
Q 459 2747 459 3303 
Q 459 4000 909 4375 
Q 1359 4750 2203 4750 
Q 2588 4750 2994 4692 
Q 3400 4634 3834 4519 
z
" transform="scale(0.015625)"/>
      <path id="DejaVuSans-Bold-6c" d="M 538 4863 
L 1656 4863 
L 1656 0 
L 538 0 
L 538 4863 
z
" transform="scale(0.015625)"/>
     </defs>
     <use xlink:href="#DejaVuSans-Bold-52"/>
     <use xlink:href="#DejaVuSans-Bold-75" transform="translate(77.001953 0)"/>
     <use xlink:href="#DejaVuSans-Bold-6e" transform="translate(148.193359 0)"/>
     <use xlink:href="#DejaVuSans-Bold-74" transform="translate(219.384766 0)"/>
     <use xlink:href="#DejaVuSans-Bold-69" transform="translate(267.1875 0)"/>
     <use xlink:href="#DejaVuSans-Bold-6d" transform="translate(301.464844 0)"/>
     <use xlink:href="#DejaVuSans-Bold-65" transform="translate(405.664062 0)"/>
     <use xlink:href="#DejaVuSans-Bold-20" transform="translate(473.486328 0)"/>
     <use xlink:href="#DejaVuSans-Bold-6f" transform="translate(508.300781 0)"/>
     <use xlink:href="#DejaVuSans-Bold-66" transform="translate(577.001953 0)"/>
     <use xlink:href="#DejaVuSans-Bold-20" transform="translate(620.507812 0)"/>
     <use xlink:href="#DejaVuSans-Bold-44" transform="translate(655.322266 0)"/>
     <use xlink:href="#DejaVuSans-Bold-65" transform="translate(738.330078 0)"/>
     <use xlink:href="#DejaVuSans-Bold-6e" transform="translate(806.152344 0)"/>
     <use xlink:href="#DejaVuSans-Bold-73" transform="translate(877.34375 0)"/>
     <use xlink:href="#DejaVuSans-Bold-69" transform="translate(936.865234 0)"/>
     <use xlink:href="#DejaVuSans-Bold-74" transform="translate(971.142578 0)"/>
     <use xlink:href="#DejaVuSans-Bold-79" transform="translate(1018.945312 0)"/>
     <use xlink:href="#DejaVuSans-Bold-20" transform="translate(1084.130859 0)"/>
     <use xlink:href="#DejaVuSans-Bold-4d" transform="translate(1118.945312 0)"/>
     <use xlink:href="#DejaVuSans-Bold-61" transform="translate(1218.457031 0)"/>
     <use xlink:href="#DejaVuSans-Bold-74" transform="translate(1285.9375 0)"/>
     <use xlink:href="#DejaVuSans-Bold-72" transform="translate(1333.740234 0)"/>
     <use xlink:href="#DejaVuSans-Bold-69" transform="translate(1383.056641 0)"/>
     <use xlink:href="#DejaVuSans-Bold-78" transform="translate(1417.333984 0)"/>
     <use xlink:href="#DejaVuSans-Bold-20" transform="translate(1481.835938 0)"/>
     <use xlink:href="#DejaVuSans-Bold-76" transform="translate(1516.650391 0)"/>
     <use xlink:href="#DejaVuSans-Bold-73" transform="translate(1581.835938 0)"/>
     <use xlink:href="#DejaVuSans-Bold-20" transform="translate(1641.357422 0)"/>
     <use xlink:href="#DejaVuSans-Bold-4d" transform="translate(1676.171875 0)"/>
     <use xlink:href="#DejaVuSans-Bold-43" transform="translate(1775.683594 0)"/>
     <use xlink:href="#DejaVuSans-Bold-57" transform="translate(1849.072266 0)"/>
     <use xlink:href="#DejaVuSans-Bold-46" transform="translate(1959.375 0)"/>
     <use xlink:href="#DejaVuSans-Bold-20" transform="translate(2027.685547 0)"/>
     <use xlink:href="#DejaVuSans-Bold-53" transform="translate(2062.5 0)"/>
     <use xlink:href="#DejaVuSans-Bold-69" transform="translate(2134.521484 0)"/>
     <use xlink:href="#DejaVuSans-Bold-6d" transform="translate(2168.798828 0)"/>
     <use xlink:href="#DejaVuSans-Bold-75" transform="translate(2272.998047 0)"/>
     <use xlink:href="#DejaVuSans-Bold-6c" transform="translate(2344.189453 0)"/>
     <use xlink:href="#DejaVuSans-Bold-61" transform="translate(2378.466797 0)"/>
     <use xlink:href="#DejaVuSans-Bold-74" transform="translate(2445.947266 0)"/>
     <use xlink:href="#DejaVuSans-Bold-69" transform="translate(2493.75 0)"/>
     <use xlink:href="#DejaVuSans-Bold-6f" transform="translate(2528.027344 0)"/>
     <use xlink:href="#DejaVuSans-Bold-6e" transform="translate(2596.728516 0)"/>
     <use xlink:href="#DejaVuSans-Bold-73" transform="translate(2667.919922 0)"/>
    </g>
   </g>
   <g id="line2d_78">
    <path d="M 78.975251 369.40706 
L 117.017128 359.262324 
L 155.059005 350.441773 
L 193.100882 334.04584 
L 231.142759 324.630381 
L 269.184636 318.658041 
L 307.226513 311.405348 
L 345.268389 301.110183 
L 383.310266 285.109368 
L 421.352143 267.084142 
L 459.39402 249.504384 
L 497.435897 231.179184 
L 535.477774 212.775801 
L 573.519651 194.023432 
L 611.561528 170.379248 
" clip-path="url(#p58171cc22f)" style="fill: none; stroke-dasharray: 7.4,3.2; stroke-dashoffset: 0; stroke: #eb6834; stroke-width: 2"/>
    <defs>
     <path id="m16d78e8c90" d="M -3.25 3.25 
L 3.25 3.25 
L 3.25 -3.25 
L -3.25 -3.25 
z
" style="stroke: #fcfcfb; stroke-linejoin: miter"/>
    </defs>
    <g clip-path="url(#p58171cc22f)">
     <use xlink:href="#m16d78e8c90" x="78.975251" y="369.40706" style="fill: #eb6834; stroke: #fcfcfb; stroke-linejoin: miter"/>
     <use xlink:href="#m16d78e8c90" x="117.017128" y="359.262324" style="fill: #eb6834; stroke: #fcfcfb; stroke-linejoin: miter"/>
     <use xlink:href="#m16d78e8c90" x="155.059005" y="350.441773" style="fill: #eb6834; stroke: #fcfcfb; stroke-linejoin: miter"/>
     <use xlink:href="#m16d78e8c90" x="193.100882" y="334.04584" style="fill: #eb6834; stroke: #fcfcfb; stroke-linejoin: miter"/>
     <use xlink:href="#m16d78e8c90" x="231.142759" y="324.630381" style="fill: #eb6834; stroke: #fcfcfb; stroke-linejoin: miter"/>
     <use xlink:href="#m16d78e8c90" x="269.184636" y="318.658041" style="fill: #eb6834; stroke: #fcfcfb; stroke-linejoin: miter"/>
     <use xlink:href="#m16d78e8c90" x="307.226513" y="311.405348" style="fill: #eb6834; stroke: #fcfcfb; stroke-linejoin: miter"/>
     <use xlink:href="#m16d78e8c90" x="345.268389" y="301.110183" style="fill: #eb6834; stroke: #fcfcfb; stroke-linejoin: miter"/>
     <use xlink:href="#m16d78e8c90" x="383.310266" y="285.109368" style="fill: #eb6834; stroke: #fcfcfb; stroke-linejoin: miter"/>
     <use xlink:href="#m16d78e8c90" x="421.352143" y="267.084142" style="fill: #eb6834; stroke: #fcfcfb; stroke-linejoin: miter"/>
     <use xlink:href="#m16d78e8c90" x="459.39402" y="249.504384" style="fill: #eb6834; stroke: #fcfcfb; stroke-linejoin: miter"/>
     <use xlink:href="#m16d78e8c90" x="497.435897" y="231.179184" style="fill: #eb6834; stroke: #fcfcfb; stroke-linejoin: miter"/>
     <use xlink:href="#m16d78e8c90" x="535.477774" y="212.775801" style="fill: #eb6834; stroke: #fcfcfb; stroke-linejoin: miter"/>
     <use xlink:href="#m16d78e8c90" x="573.519651" y="194.023432" style="fill: #eb6834; stroke: #fcfcfb; stroke-linejoin: miter"/>
     <use xlink:href="#m16d78e8c90" x="611.561528" y="170.379248" style="fill: #eb6834; stroke: #fcfcfb; stroke-linejoin: miter"/>
    </g>
   </g>
   <g id="line2d_79">
    <path d="M 78.975251 318.789349 
L 117.017128 303.760539 
L 155.059005 294.552509 
L 193.100882 281.159725 
L 231.142759 273.403661 
L 269.184636 270.605901 
L 307.226513 267.149938 
L 345.268389 264.574764 
L 383.310266 258.91419 
L 421.352143 247.698879 
L 459.39402 231.005953 
L 497.435897 212.562486 
L 535.477774 194.114293 
L 573.519651 175.08798 
L 611.561528 151.584547 
" clip-path="url(#p58171cc22f)" style="fill: none; stroke-dasharray: 2,3.3; stroke-dashoffset: 0; stroke: #1baf7a; stroke-width: 2"/>
    <defs>
     <path id="m82b8db4930" d="M 0 -3.25 
L -3.25 3.25 
L 3.25 3.25 
z
" style="stroke: #fcfcfb; stroke-linejoin: miter"/>
    </defs>
    <g clip-path="url(#p58171cc22f)">
     <use xlink:href="#m82b8db4930" x="78.975251" y="318.789349" style="fill: #1baf7a; stroke: #fcfcfb; stroke-linejoin: miter"/>
     <use xlink:href="#m82b8db4930" x="117.017128" y="303.760539" style="fill: #1baf7a; stroke: #fcfcfb; stroke-linejoin: miter"/>
     <use xlink:href="#m82b8db4930" x="155.059005" y="294.552509" style="fill: #1baf7a; stroke: #fcfcfb; stroke-linejoin: miter"/>
     <use xlink:href="#m82b8db4930" x="193.100882" y="281.159725" style="fill: #1baf7a; stroke: #fcfcfb; stroke-linejoin: miter"/>
     <use xlink:href="#m82b8db4930" x="231.142759" y="273.403661" style="fill: #1baf7a; stroke: #fcfcfb; stroke-linejoin: miter"/>
     <use xlink:href="#m82b8db4930" x="269.184636" y="270.605901" style="fill: #1baf7a; stroke: #fcfcfb; stroke-linejoin: miter"/>
     <use xlink:href="#m82b8db4930" x="307.226513" y="267.149938" style="fill: #1baf7a; stroke: #fcfcfb; stroke-linejoin: miter"/>
     <use xlink:href="#m82b8db4930" x="345.268389" y="264.574764" style="fill: #1baf7a; stroke: #fcfcfb; stroke-linejoin: miter"/>
     <use xlink:href="#m82b8db4930" x="383.310266" y="258.91419" style="fill: #1baf7a; stroke: #fcfcfb; stroke-linejoin: miter"/>
     <use xlink:href="#m82b8db4930" x="421.352143" y="247.698879" style="fill: #1baf7a; stroke: #fcfcfb; stroke-linejoin: miter"/>
     <use xlink:href="#m82b8db4930" x="459.39402" y="231.005953" style="fill: #1baf7a; stroke: #fcfcfb; stroke-linejoin: miter"/>
     <use xlink:href="#m82b8db4930" x="497.435897" y="212.562486" style="fill: #1baf7a; stroke: #fcfcfb; stroke-linejoin: miter"/>
     <use xlink:href="#m82b8db4930" x="535.477774" y="194.114293" style="fill: #1baf7a; stroke: #fcfcfb; stroke-linejoin: miter"/>
     <use xlink:href="#m82b8db4930" x="573.519651" y="175.08798" style="fill: #1baf7a; stroke: #fcfcfb; stroke-linejoin: miter"/>
     <use xlink:href="#m82b8db4930" x="611.561528" y="151.584547" style="fill: #1baf7a; stroke: #fcfcfb; stroke-linejoin: miter"/>
    </g>
   </g>
   <g id="line2d_80">
    <path d="M 78.975251 278.226496 
L 117.017128 263.287188 
L 155.059005 254.092096 
L 193.100882 240.569518 
L 231.142759 232.637323 
L 269.184636 229.68488 
L 307.226513 226.570611 
L 345.268389 223.890033 
L 383.310266 218.46598 
L 421.352143 207.781448 
L 459.39402 190.515948 
L 497.435897 171.91028 
L 535.477774 153.442881 
L 573.519651 134.420216 
L 611.561528 111.095084 
" clip-path="url(#p58171cc22f)" style="fill: none; stroke-dasharray: 12.8,3.2,2,3.2; stroke-dashoffset: 0; stroke: #4a3aa7; stroke-width: 2"/>
    <defs>
     <path id="mecc4afe468" d="M -0 4.596194 
L 4.596194 0 
L 0 -4.596194 
L -4.596194 -0 
z
" style="stroke: #fcfcfb; stroke-linejoin: miter"/>
    </defs>
    <g clip-path="url(#p58171cc22f)">
     <use xlink:href="#mecc4afe468" x="78.975251" y="278.226496" style="fill: #4a3aa7; stroke: #fcfcfb; stroke-linejoin: miter"/>
     <use xlink:href="#mecc4afe468" x="117.017128" y="263.287188" style="fill: #4a3aa7; stroke: #fcfcfb; stroke-linejoin: miter"/>
     <use xlink:href="#mecc4afe468" x="155.059005" y="254.092096" style="fill: #4a3aa7; stroke: #fcfcfb; stroke-linejoin: miter"/>
     <use xlink:href="#mecc4afe468" x="193.100882" y="240.569518" style="fill: #4a3aa7; stroke: #fcfcfb; stroke-linejoin: miter"/>
     <use xlink:href="#mecc4afe468" x="231.142759" y="232.637323" style="fill: #4a3aa7; stroke: #fcfcfb; stroke-linejoin: miter"/>
     <use xlink:href="#mecc4afe468" x="269.184636" y="229.68488" style="fill: #4a3aa7; stroke: #fcfcfb; stroke-linejoin: miter"/>
     <use xlink:href="#mecc4afe468" x="307.226513" y="226.570611" style="fill: #4a3aa7; stroke: #fcfcfb; stroke-linejoin: miter"/>
     <use xlink:href="#mecc4afe468" x="345.268389" y="223.890033" style="fill: #4a3aa7; stroke: #fcfcfb; stroke-linejoin: miter"/>
     <use xlink:href="#mecc4afe468" x="383.310266" y="218.46598" style="fill: #4a3aa7; stroke: #fcfcfb; stroke-linejoin: miter"/>
     <use xlink:href="#mecc4afe468" x="421.352143" y="207.781448" style="fill: #4a3aa7; stroke: #fcfcfb; stroke-linejoin: miter"/>
     <use xlink:href="#mecc4afe468" x="459.39402" y="190.515948" style="fill: #4a3aa7; stroke: #fcfcfb; stroke-linejoin: miter"/>
     <use xlink:href="#mecc4afe468" x="497.435897" y="171.91028" style="fill: #4a3aa7; stroke: #fcfcfb; stroke-linejoin: miter"/>
     <use xlink:href="#mecc4afe468" x="535.477774" y="153.442881" style="fill: #4a3aa7; stroke: #fcfcfb; stroke-linejoin: miter"/>
     <use xlink:href="#mecc4afe468" x="573.519651" y="134.420216" style="fill: #4a3aa7; stroke: #fcfcfb; stroke-linejoin: miter"/>
     <use xlink:href="#mecc4afe468" x="611.561528" y="111.095084" style="fill: #4a3aa7; stroke: #fcfcfb; stroke-linejoin: miter"/>
    </g>
   </g>
   <g id="line2d_81">
    <path d="M 78.975251 260.858214 
L 117.017128 245.831625 
L 155.059005 236.601937 
L 193.100882 223.063502 
L 231.142759 215.243719 
L 269.184636 212.265186 
L 307.226513 209.124655 
L 345.268389 206.53056 
L 383.310266 201.202431 
L 421.352143 190.266378 
L 459.39402 173.0075 
L 497.435897 154.380833 
L 535.477774 135.906762 
L 573.519651 116.885913 
L 611.561528 93.524488 
" clip-path="url(#p58171cc22f)" style="fill: none; stroke-dasharray: 6,2,2,2; stroke-dashoffset: 0; stroke: #e34948; stroke-width: 2"/>
    <defs>
     <path id="m2130c7e06a" d="M -0 3.25 
L 3.25 -3.25 
L -3.25 -3.25 
z
" style="stroke: #fcfcfb; stroke-linejoin: miter"/>
    </defs>
    <g clip-path="url(#p58171cc22f)">
     <use xlink:href="#m2130c7e06a" x="78.975251" y="260.858214" style="fill: #e34948; stroke: #fcfcfb; stroke-linejoin: miter"/>
     <use xlink:href="#m2130c7e06a" x="117.017128" y="245.831625" style="fill: #e34948; stroke: #fcfcfb; stroke-linejoin: miter"/>
     <use xlink:href="#m2130c7e06a" x="155.059005" y="236.601937" style="fill: #e34948; stroke: #fcfcfb; stroke-linejoin: miter"/>
     <use xlink:href="#m2130c7e06a" x="193.100882" y="223.063502" style="fill: #e34948; stroke: #fcfcfb; stroke-linejoin: miter"/>
     <use xlink:href="#m2130c7e06a" x="231.142759" y="215.243719" style="fill: #e34948; stroke: #fcfcfb; stroke-linejoin: miter"/>
     <use xlink:href="#m2130c7e06a" x="269.184636" y="212.265186" style="fill: #e34948; stroke: #fcfcfb; stroke-linejoin: miter"/>
     <use xlink:href="#m2130c7e06a" x="307.226513" y="209.124655" style="fill: #e34948; stroke: #fcfcfb; stroke-linejoin: miter"/>
     <use xlink:href="#m2130c7e06a" x="345.268389" y="206.53056" style="fill: #e34948; stroke: #fcfcfb; stroke-linejoin: miter"/>
     <use xlink:href="#m2130c7e06a" x="383.310266" y="201.202431" style="fill: #e34948; stroke: #fcfcfb; stroke-linejoin: miter"/>
     <use xlink:href="#m2130c7e06a" x="421.352143" y="190.266378" style="fill: #e34948; stroke: #fcfcfb; stroke-linejoin: miter"/>
     <use xlink:href="#m2130c7e06a" x="459.39402" y="173.0075" style="fill: #e34948; stroke: #fcfcfb; stroke-linejoin: miter"/>
     <use xlink:href="#m2130c7e06a" x="497.435897" y="154.380833" style="fill: #e34948; stroke: #fcfcfb; stroke-linejoin: miter"/>
     <use xlink:href="#m2130c7e06a" x="535.477774" y="135.906762" style="fill: #e34948; stroke: #fcfcfb; stroke-linejoin: miter"/>
     <use xlink:href="#m2130c7e06a" x="573.519651" y="116.885913" style="fill: #e34948; stroke: #fcfcfb; stroke-linejoin: miter"/>
     <use xlink:href="#m2130c7e06a" x="611.561528" y="93.524488" style="fill: #e34948; stroke: #fcfcfb; stroke-linejoin: miter"/>
    </g>
   </g>
   <g id="line2d_82">
    <path d="M 78.975251 306.53485 
L 117.017128 319.612177 
L 155.059005 307.333629 
L 193.100882 295.450594 
L 231.142759 281.698256 
L 269.184636 263.375348 
L 307.226513 276.567936 
L 345.268389 268.47017 
L 383.310266 254.14992 
L 421.352143 228.274376 
L 459.39402 195.091425 
L 497.435897 158.567637 
L 535.477774 121.61674 
L 573.519651 84.40197 
L 611.561528 47.277739 
" clip-path="url(#p58171cc22f)" style="fill: none; stroke: #2a78d6; stroke-width: 2; stroke-linecap: square"/>
    <defs>
     <path id="maf72b8d437" d="M 0 3.25 
C 0.86191 3.25 1.688635 2.907559 2.298097 2.298097 
C 2.907559 1.688635 3.25 0.86191 3.25 0 
C 3.25 -0.86191 2.907559 -1.688635 2.298097 -2.298097 
C 1.688635 -2.907559 0.86191 -3.25 0 -3.25 
C -0.86191 -3.25 -1.688635 -2.907559 -2.298097 -2.298097 
C -2.907559 -1.688635 -3.25 -0.86191 -3.25 0 
C -3.25 0.86191 -2.907559 1.688635 -2.298097 2.298097 
C -1.688635 2.907559 -0.86191 3.25 0 3.25 
z
" style="stroke: #fcfcfb"/>
    </defs>
    <g clip-path="url(#p58171cc22f)">
     <use xlink:href="#maf72b8d437" x="78.975251" y="306.53485" style="fill: #2a78d6; stroke: #fcfcfb"/>
     <use xlink:href="#maf72b8d437" x="117.017128" y="319.612177" style="fill: #2a78d6; stroke: #fcfcfb"/>
     <use xlink:href="#maf72b8d437" x="155.059005" y="307.333629" style="fill: #2a78d6; stroke: #fcfcfb"/>
     <use xlink:href="#maf72b8d437" x="193.100882" y="295.450594" style="fill: #2a78d6; stroke: #fcfcfb"/>
     <use xlink:href="#maf72b8d437" x="231.142759" y="281.698256" style="fill: #2a78d6; stroke: #fcfcfb"/>
     <use xlink:href="#maf72b8d437" x="269.184636" y="263.375348" style="fill: #2a78d6; stroke: #fcfcfb"/>
     <use xlink:href="#maf72b8d437" x="307.226513" y="276.567936" style="fill: #2a78d6; stroke: #fcfcfb"/>
     <use xlink:href="#maf72b8d437" x="345.268389" y="268.47017" style="fill: #2a78d6; stroke: #fcfcfb"/>
     <use xlink:href="#maf72b8d437" x="383.310266" y="254.14992" style="fill: #2a78d6; stroke: #fcfcfb"/>
     <use xlink:href="#maf72b8d437" x="421.352143" y="228.274376" style="fill: #2a78d6; stroke: #fcfcfb"/>
     <use xlink:href="#maf72b8d437" x="459.39402" y="195.091425" style="fill: #2a78d6; stroke: #fcfcfb"/>
     <use xlink:href="#maf72b8d437" x="497.435897" y="158.567637" style="fill: #2a78d6; stroke: #fcfcfb"/>
     <use xlink:href="#maf72b8d437" x="535.477774" y="121.61674" style="fill: #2a78d6; stroke: #fcfcfb"/>
     <use xlink:href="#maf72b8d437" x="573.519651" y="84.40197" style="fill: #2a78d6; stroke: #fcfcfb"/>
     <use xlink:href="#maf72b8d437" x="611.561528" y="47.277739" style="fill: #2a78d6; stroke: #fcfcfb"/>
    </g>
   </g>
   <g id="legend_1">
    <g id="line2d_83">
     <path d="M 653.907739 39.176406 
L 665.907739 39.176406 
L 677.907739 39.176406 
" style="fill: none; stroke: #2a78d6; stroke-width: 2; stroke-linecap: square"/>
     <g>
      <use xlink:href="#maf72b8d437" x="665.907739" y="39.176406" style="fill: #2a78d6; stroke: #fcfcfb"/>
     </g>
    </g>
    <g id="text_18">
     <!-- Density Matrix -->
     <g style="fill: #52514e" transform="translate(685.907739 42.676406) scale(0.1 -0.1)">
      <defs>
       <path id="DejaVuSans-44" d="M 1259 4147 
L 1259 519 
L 2022 519 
Q 2988 519 3436 956 
Q 3884 1394 3884 2338 
Q 3884 3275 3436 3711 
Q 2988 4147 2022 4147 
L 1259 4147 
z
M 628 4666 
L 1925 4666 
Q 3281 4666 3915 4102 
Q 4550 3538 4550 2338 
Q 4550 1131 3912 565 
Q 3275 0 1925 0 
L 628 0 
L 628 4666 
z
" transform="scale(0.015625)"/>
       <path id="DejaVuSans-79" d="M 2059 -325 
Q 1816 -950 1584 -1140 
Q 1353 -1331 966 -1331 
L 506 -1331 
L 506 -850 
L 844 -850 
Q 1081 -850 1212 -737 
Q 1344 -625 1503 -206 
L 1606 56 
L 191 3500 
L 800 3500 
L 1894 763 
L 2988 3500 
L 3597 3500 
L 2059 -325 
z
" transform="scale(0.015625)"/>
       <path id="DejaVuSans-4d" d="M 628 4666 
L 1569 4666 
L 2759 1491 
L 3956 4666 
L 4897 4666 
L 4897 0 
L 4281 0 
L 4281 4097 
L 3078 897 
L 2444 897 
L 1241 4097 
L 1241 0 
L 628 0 
L 628 4666 
z
" transform="scale(0.015625)"/>
       <path id="DejaVuSans-61" d="M 2194 1759 
Q 1497 1759 1228 1600 
Q 959 1441 959 1056 
Q 959 750 1161 570 
Q 1363 391 1709 391 
Q 2188 391 2477 730 
Q 2766 1069 2766 1631 
L 2766 1759 
L 2194 1759 
z
M 3341 1997 
L 3341 0 
L 2766 0 
L 2766 531 
Q 2569 213 2275 61 
Q 1981 -91 1556 -91 
Q 1019 -91 701 211 
Q 384 513 384 1019 
Q 384 1609 779 1909 
Q 1175 2209 1959 2209 
L 2766 2209 
L 2766 2266 
Q 2766 2663 2505 2880 
Q 2244 3097 1772 3097 
Q 1472 3097 1187 3025 
Q 903 2953 641 2809 
L 641 3341 
Q 956 3463 1253 3523 
Q 1550 3584 1831 3584 
Q 2591 3584 2966 3190 
Q 3341 2797 3341 1997 
z
" transform="scale(0.015625)"/>
       <path id="DejaVuSans-78" d="M 3513 3500 
L 2247 1797 
L 3578 0 
L 2900 0 
L 1881 1375 
L 863 0 
L 184 0 
L 1544 1831 
L 300 3500 
L 978 3500 
L 1906 2253 
L 2834 3500 
L 3513 3500 
z
" transform="scale(0.015625)"/>
      </defs>
      <use xlink:href="#DejaVuSans-44"/>
      <use xlink:href="#DejaVuSans-65" transform="translate(77.001953 0)"/>
      <use xlink:href="#DejaVuSans-6e" transform="translate(138.525391 0)"/>
      <use xlink:href="#DejaVuSans-73" transform="translate(201.904297 0)"/>
      <use xlink:href="#DejaVuSans-69" transform="translate(254.003906 0)"/>
      <use xlink:href="#DejaVuSans-74" transform="translate(281.787109 0)"/>
      <use xlink:href="#DejaVuSans-79" transform="translate(320.996094 0)"/>
      <use xlink:href="#DejaVuSans-20" transform="translate(380.175781 0)"/>
      <use xlink:href="#DejaVuSans-4d" transform="translate(411.962891 0)"/>
      <use xlink:href="#DejaVuSans-61" transform="translate(498.242188 0)"/>
      <use xlink:href="#DejaVuSans-74" transform="translate(559.521484 0)"/>
      <use xlink:href="#DejaVuSans-72" transform="translate(598.730469 0)"/>
      <use xlink:href="#DejaVuSans-69" transform="translate(639.84375 0)"/>
      <use xlink:href="#DejaVuSans-78" transform="translate(667.626953 0)"/>
     </g>
    </g>
    <g id="line2d_84">
     <path d="M 653.907739 53.854531 
L 665.907739 53.854531 
L 677.907739 53.854531 
" style="fill: none; stroke-dasharray: 7.4,3.2; stroke-dashoffset: 0; stroke: #eb6834; stroke-width: 2"/>
     <g>
      <use xlink:href="#m16d78e8c90" x="665.907739" y="53.854531" style="fill: #eb6834; stroke: #fcfcfb; stroke-linejoin: miter"/>
     </g>
    </g>
    <g id="text_19">
     <!-- 10 Trajectories -->
     <g style="fill: #52514e" transform="translate(685.907739 57.354531) scale(0.1 -0.1)">
      <defs>
       <path id="DejaVuSans-54" d="M -19 4666 
L 3928 4666 
L 3928 4134 
L 2272 4134 
L 2272 0 
L 1638 0 
L 1638 4134 
L -19 4134 
L -19 4666 
z
" transform="scale(0.015625)"/>
       <path id="DejaVuSans-6a" d="M 603 3500 
L 1178 3500 
L 1178 -63 
Q 1178 -731 923 -1031 
Q 669 -1331 103 -1331 
L -116 -1331 
L -116 -844 
L 38 -844 
Q 366 -844 484 -692 
Q 603 -541 603 -63 
L 603 3500 
z
M 603 4863 
L 1178 4863 
L 1178 4134 
L 603 4134 
L 603 4863 
z
" transform="scale(0.015625)"/>
       <path id="DejaVuSans-63" d="M 3122 3366 
L 3122 2828 
Q 2878 2963 2633 3030 
Q 2388 3097 2138 3097 
Q 1578 3097 1268 2742 
Q 959 2388 959 1747 
Q 959 1106 1268 751 
Q 1578 397 2138 397 
Q 2388 397 2633 464 
Q 2878 531 3122 666 
L 3122 134 
Q 2881 22 2623 -34 
Q 2366 -91 2075 -91 
Q 1284 -91 818 406 
Q 353 903 353 1747 
Q 353 2603 823 3093 
Q 1294 3584 2113 3584 
Q 2378 3584 2631 3529 
Q 2884 3475 3122 3366 
z
" transform="scale(0.015625)"/>
      </defs>
      <use xlink:href="#DejaVuSans-31"/>
      <use xlink:href="#DejaVuSans-30" transform="translate(63.623047 0)"/>
      <use xlink:href="#DejaVuSans-20" transform="translate(127.246094 0)"/>
      <use xlink:href="#DejaVuSans-54" transform="translate(159.033203 0)"/>
      <use xlink:href="#DejaVuSans-72" transform="translate(205.367188 0)"/>
      <use xlink:href="#DejaVuSans-61" transform="translate(246.480469 0)"/>
      <use xlink:href="#DejaVuSans-6a" transform="translate(307.759766 0)"/>
      <use xlink:href="#DejaVuSans-65" transform="translate(335.542969 0)"/>
      <use xlink:href="#DejaVuSans-63" transform="translate(397.066406 0)"/>
      <use xlink:href="#DejaVuSans-74" transform="translate(452.046875 0)"/>
      <use xlink:href="#DejaVuSans-6f" transform="translate(491.255859 0)"/>
      <use xlink:href="#DejaVuSans-72" transform="translate(552.4375 0)"/>
      <use xlink:href="#DejaVuSans-69" transform="translate(593.550781 0)"/>
      <use xlink:href="#DejaVuSans-65" transform="translate(621.333984 0)"/>
      <use xlink:href="#DejaVuSans-73" transform="translate(682.857422 0)"/>
     </g>
    </g>
    <g id="line2d_85">
     <path d="M 653.907739 68.532656 
L 665.907739 68.532656 
L 677.907739 68.532656 
" style="fill: none; stroke-dasharray: 2,3.3; stroke-dashoffset: 0; stroke: #1baf7a; stroke-width: 2"/>
     <g>
      <use xlink:href="#m82b8db4930" x="665.907739" y="68.532656" style="fill: #1baf7a; stroke: #fcfcfb; stroke-linejoin: miter"/>
     </g>
    </g>
    <g id="text_20">
     <!-- 100 Trajectories -->
     <g style="fill: #52514e" transform="translate(685.907739 72.032656) scale(0.1 -0.1)">
      <use xlink:href="#DejaVuSans-31"/>
      <use xlink:href="#DejaVuSans-30" transform="translate(63.623047 0)"/>
      <use xlink:href="#DejaVuSans-30" transform="translate(127.246094 0)"/>
      <use xlink:href="#DejaVuSans-20" transform="translate(190.869141 0)"/>
      <use xlink:href="#DejaVuSans-54" transform="translate(222.65625 0)"/>
      <use xlink:href="#DejaVuSans-72" transform="translate(268.990234 0)"/>
      <use xlink:href="#DejaVuSans-61" transform="translate(310.103516 0)"/>
      <use xlink:href="#DejaVuSans-6a" transform="translate(371.382812 0)"/>
      <use xlink:href="#DejaVuSans-65" transform="translate(399.166016 0)"/>
      <use xlink:href="#DejaVuSans-63" transform="translate(460.689453 0)"/>
      <use xlink:href="#DejaVuSans-74" transform="translate(515.669922 0)"/>
      <use xlink:href="#DejaVuSans-6f" transform="translate(554.878906 0)"/>
      <use xlink:href="#DejaVuSans-72" transform="translate(616.060547 0)"/>
      <use xlink:href="#DejaVuSans-69" transform="translate(657.173828 0)"/>
      <use xlink:href="#DejaVuSans-65" transform="translate(684.957031 0)"/>
      <use xlink:href="#DejaVuSans-73" transform="translate(746.480469 0)"/>
     </g>
    </g>
    <g id="line2d_86">
     <path d="M 653.907739 83.210781 
L 665.907739 83.210781 
L 677.907739 83.210781 
" style="fill: none; stroke-dasharray: 12.8,3.2,2,3.2; stroke-dashoffset: 0; stroke: #4a3aa7; stroke-width: 2"/>
     <g>
      <use xlink:href="#mecc4afe468" x="665.907739" y="83.210781" style="fill: #4a3aa7; stroke: #fcfcfb; stroke-linejoin: miter"/>
     </g>
    </g>
    <g id="text_21">
     <!-- 500 Trajectories -->
     <g style="fill: #52514e" transform="translate(685.907739 86.710781) scale(0.1 -0.1)">
      <defs>
       <path id="DejaVuSans-35" d="M 691 4666 
L 3169 4666 
L 3169 4134 
L 1269 4134 
L 1269 2991 
Q 1406 3038 1543 3061 
Q 1681 3084 1819 3084 
Q 2600 3084 3056 2656 
Q 3513 2228 3513 1497 
Q 3513 744 3044 326 
Q 2575 -91 1722 -91 
Q 1428 -91 1123 -41 
Q 819 9 494 109 
L 494 744 
Q 775 591 1075 516 
Q 1375 441 1709 441 
Q 2250 441 2565 725 
Q 2881 1009 2881 1497 
Q 2881 1984 2565 2268 
Q 2250 2553 1709 2553 
Q 1456 2553 1204 2497 
Q 953 2441 691 2322 
L 691 4666 
z
" transform="scale(0.015625)"/>
      </defs>
      <use xlink:href="#DejaVuSans-35"/>
      <use xlink:href="#DejaVuSans-30" transform="translate(63.623047 0)"/>
      <use xlink:href="#DejaVuSans-30" transform="translate(127.246094 0)"/>
      <use xlink:href="#DejaVuSans-20" transform="translate(190.869141 0)"/>
      <use xlink:href="#DejaVuSans-54" transform="translate(222.65625 0)"/>
      <use xlink:href="#DejaVuSans-72" transform="translate(268.990234 0)"/>
      <use xlink:href="#DejaVuSans-61" transform="translate(310.103516 0)"/>
      <use xlink:href="#DejaVuSans-6a" transform="translate(371.382812 0)"/>
      <use xlink:href="#DejaVuSans-65" transform="translate(399.166016 0)"/>
      <use xlink:href="#DejaVuSans-63" transform="translate(460.689453 0)"/>
      <use xlink:href="#DejaVuSans-74" transform="translate(515.669922 0)"/>
      <use xlink:href="#DejaVuSans-6f" transform="translate(554.878906 0)"/>
      <use xlink:href="#DejaVuSans-72" transform="translate(616.060547 0)"/>
      <use xlink:href="#DejaVuSans-69" transform="translate(657.173828 0)"/>
      <use xlink:href="#DejaVuSans-65" transform="translate(684.957031 0)"/>
      <use xlink:href="#DejaVuSans-73" transform="translate(746.480469 0)"/>
     </g>
    </g>
    <g id="line2d_87">
     <path d="M 653.907739 97.888906 
L 665.907739 97.888906 
L 677.907739 97.888906 
" style="fill: none; stroke-dasharray: 6,2,2,2; stroke-dashoffset: 0; stroke: #e34948; stroke-width: 2"/>
     <g>
      <use xlink:href="#m2130c7e06a" x="665.907739" y="97.888906" style="fill: #e34948; stroke: #fcfcfb; stroke-linejoin: miter"/>
     </g>
    </g>
    <g id="text_22">
     <!-- 1000 Trajectories -->
     <g style="fill: #52514e" transform="translate(685.907739 101.388906) scale(0.1 -0.1)">
      <use xlink:href="#DejaVuSans-31"/>
      <use xlink:href="#DejaVuSans-30" transform="translate(63.623047 0)"/>
      <use xlink:href="#DejaVuSans-30" transform="translate(127.246094 0)"/>
      <use xlink:href="#DejaVuSans-30" transform="translate(190.869141 0)"/>
      <use xlink:href="#DejaVuSans-20" transform="translate(254.492188 0)"/>
      <use xlink:href="#DejaVuSans-54" transform="translate(286.279297 0)"/>
      <use xlink:href="#DejaVuSans-72" transform="translate(332.613281 0)"/>
      <use xlink:href="#DejaVuSans-61" transform="translate(373.726562 0)"/>
      <use xlink:href="#DejaVuSans-6a" transform="translate(435.005859 0)"/>
      <use xlink:href="#DejaVuSans-65" transform="translate(462.789062 0)"/>
      <use xlink:href="#DejaVuSans-63" transform="translate(524.3125 0)"/>
      <use xlink:href="#DejaVuSans-74" transform="translate(579.292969 0)"/>
      <use xlink:href="#DejaVuSans-6f" transform="translate(618.501953 0)"/>
      <use xlink:href="#DejaVuSans-72" transform="translate(679.683594 0)"/>
      <use xlink:href="#DejaVuSans-69" transform="translate(720.796875 0)"/>
      <use xlink:href="#DejaVuSans-65" transform="translate(748.580078 0)"/>
      <use xlink:href="#DejaVuSans-73" transform="translate(810.103516 0)"/>
     </g>
    </g>
   </g>
  </g>
 </g>
 <defs>
  <clipPath id="p58171cc22f">
   <rect x="52.345938" y="31.077969" width="585.844904" height="354.44"/>
  </clipPath>
 </defs>
</svg>
